{"glyphs":{"0":{"ha":697,"x_min":14,"x_max":669,"o":"m 36 471 q 167 774 96 660 q 313 940 239 888 q 451 992 386 992 q 563 951 514 992 q 641 840 613 911 q 669 676 669 769 q 667 621 669 650 q 658 561 665 592 q 650 531 656 546 q 535 215 604 336 q 387 36 465 93 q 236 -21 308 -21 q 124 17 175 -21 q 44 125 74 54 q 14 294 14 196 q 16 349 14 321 q 24 408 18 378 l 24 411 q 36 471 24 432 m 153 433 q 194 295 153 336 q 290 254 235 254 q 385 278 338 254 q 469 342 433 301 q 518 432 506 382 l 519 439 q 527 487 525 464 q 529 529 529 510 q 485 673 529 628 q 382 718 442 718 q 259 673 321 718 q 165 547 197 628 q 153 433 153 482 z "},"1":{"ha":521,"x_min":28,"x_max":424,"o":"m 388 985 q 414 934 404 954 q 424 872 424 914 l 422 832 l 382 299 q 380 273 381 285 q 379 250 379 261 q 387 205 379 218 q 413 179 394 192 q 406 153 419 174 q 368 105 393 132 q 315 52 343 78 q 266 12 288 26 q 238 1 244 -3 q 197 42 211 19 q 183 114 183 65 l 185 149 l 218 582 q 158 522 192 550 q 105 494 136 504 q 51 485 74 485 q 28 496 28 485 q 44 519 28 507 q 138 635 97 561 q 192 785 178 710 q 207 819 194 797 q 222 847 208 829 q 253 883 235 864 q 283 917 268 901 q 310 939 299 932 q 360 978 338 963 q 388 985 383 993 z "},"2":{"ha":635,"x_min":-28,"x_max":586,"o":"m 53 235 q 163 394 113 331 q 257 501 214 457 q 333 581 300 546 q 372 635 360 610 q 383 682 383 661 q 359 735 383 715 q 301 754 335 754 q 228 730 267 754 q 167 651 190 706 q 135 594 150 613 q 108 576 119 576 q 86 625 86 576 q 93 676 86 647 q 114 738 100 704 q 256 938 174 878 q 413 999 338 999 q 535 951 485 999 q 586 825 586 903 q 562 722 586 778 q 481 606 538 665 q 383 503 425 546 q 307 427 340 461 q 244 359 274 393 q 183 281 215 325 q 238 292 210 288 q 300 296 267 296 q 422 281 356 296 q 568 229 488 267 q 578 203 578 224 q 566 142 578 178 q 536 70 554 106 q 500 14 518 35 q 468 -1 482 -7 q 331 49 393 35 q 217 63 269 63 q 84 41 140 63 q -15 0 28 19 q -21 -1 -17 -1 q -28 14 -28 -1 q -17 72 -28 35 q 9 147 -7 108 q 39 210 25 186 q 53 235 44 222 z "},"3":{"ha":682,"x_min":26,"x_max":613,"o":"m 107 429 q 174 507 139 472 q 221 565 190 528 q 285 644 251 603 q 347 718 319 686 q 316 717 332 717 q 286 717 300 717 q 174 729 226 717 q 81 760 121 742 q 71 788 71 765 q 83 849 71 813 q 113 919 94 885 q 149 975 131 954 q 181 990 168 996 q 264 963 215 974 q 369 953 313 953 q 444 956 401 953 q 526 966 486 958 q 586 988 565 974 q 594 992 590 992 q 603 974 603 992 q 594 920 603 954 q 570 850 585 886 q 542 788 556 814 q 507 744 533 769 l 424 644 q 439 644 432 644 q 565 594 517 644 q 613 464 613 543 q 607 411 613 439 q 590 356 601 383 q 579 335 586 346 q 556 275 569 301 q 444 113 507 179 q 318 13 382 47 q 196 -21 254 -21 q 89 21 135 -21 q 28 149 43 63 q 43 182 26 158 q 86 233 60 206 q 140 285 113 261 q 185 321 167 310 q 206 321 204 332 q 249 208 219 242 q 317 174 278 174 q 387 197 350 174 q 460 257 424 219 q 469 326 469 294 q 447 408 469 378 q 390 451 425 438 q 318 464 356 464 q 239 450 276 464 q 214 439 226 443 q 188 418 197 429 q 142 375 165 389 q 103 361 119 361 q 83 379 83 361 q 107 429 83 400 z "},"4":{"ha":689,"x_min":-3,"x_max":650,"o":"m 85 533 l 350 824 q 385 872 358 842 q 443 930 411 901 q 500 975 475 958 q 529 983 525 992 q 556 933 546 953 q 565 871 565 913 l 564 831 l 542 532 l 644 532 q 644 508 650 532 q 627 449 639 485 q 602 378 615 414 q 578 319 589 343 q 561 296 567 296 l 524 296 q 521 270 521 282 q 521 249 521 258 q 528 203 521 217 q 554 178 536 190 q 548 151 561 172 q 510 103 535 131 q 457 51 485 76 q 408 10 429 25 q 379 0 386 -4 q 339 41 353 18 q 325 113 325 64 l 326 147 l 338 296 l 1 294 q 2 317 -3 294 q 17 372 7 339 q 40 440 28 406 q 65 499 53 474 q 82 529 76 525 q 85 533 83 532 m 367 681 l 369 724 l 193 531 l 356 531 l 367 681 z "},"5":{"ha":714,"x_min":54,"x_max":644,"o":"m 583 275 q 472 113 535 179 q 346 13 410 47 q 224 -21 282 -21 q 117 21 163 -21 q 56 149 71 63 q 71 182 54 158 q 114 233 88 206 q 167 285 140 261 q 213 321 194 310 q 233 321 232 332 q 276 208 247 242 q 344 174 306 174 q 419 199 379 174 q 496 267 458 225 q 501 315 501 293 q 460 413 501 385 q 365 442 419 442 q 254 419 310 442 q 176 365 199 396 q 129 319 154 335 q 88 304 104 304 q 67 322 67 304 l 67 325 l 67 333 q 87 560 75 449 q 108 794 99 672 q 115 816 108 796 q 131 865 121 836 q 155 924 142 894 q 182 972 168 953 q 208 992 196 992 q 218 986 214 992 q 311 935 253 956 q 426 915 369 915 q 491 922 456 915 q 557 942 526 929 q 601 974 588 956 q 622 992 614 992 q 629 974 629 992 q 619 912 629 951 q 592 833 608 872 q 557 768 576 793 q 487 703 522 722 q 416 682 451 685 q 343 679 381 679 q 211 704 276 679 q 206 600 208 653 q 200 496 203 547 q 342 593 272 563 q 471 624 413 624 q 597 577 549 624 q 644 453 644 531 q 622 346 644 403 q 589 288 614 322 q 583 275 586 281 z "},"6":{"ha":613,"x_min":7,"x_max":571,"o":"m 554 321 q 446 114 507 189 q 321 8 385 39 q 201 -22 257 -22 q 124 -8 158 -22 q 69 25 90 6 q 22 101 36 57 q 7 196 7 144 q 40 381 7 281 q 125 583 72 481 q 240 775 178 685 q 360 932 301 865 q 415 976 388 961 q 460 990 442 990 q 482 974 482 990 q 456 926 482 957 q 370 818 417 883 q 281 676 324 753 q 211 522 239 600 q 296 588 250 567 q 385 608 342 608 q 477 584 435 608 q 545 516 519 560 q 571 413 571 472 q 561 344 571 379 l 561 342 q 554 321 560 332 m 242 186 q 322 150 279 150 q 385 172 357 150 q 431 225 414 193 q 433 263 433 244 q 397 372 433 340 q 314 404 360 404 q 232 383 271 404 q 179 329 193 361 q 197 251 182 288 q 242 186 211 215 z "},"7":{"ha":554,"x_min":14,"x_max":596,"o":"m 583 929 q 559 874 579 921 q 509 758 539 828 q 444 606 479 688 q 375 442 410 524 q 312 291 340 360 q 265 179 283 222 q 244 131 247 136 q 201 65 231 96 q 140 17 171 35 q 90 -1 110 -1 q 69 19 69 -1 q 78 53 69 32 q 93 88 78 53 q 133 183 108 124 q 190 317 158 243 q 253 470 221 392 q 317 622 286 549 q 374 750 349 694 q 185 693 281 693 q 95 710 138 693 q 21 761 53 726 q 14 788 14 768 q 27 852 14 814 q 59 926 40 890 q 97 980 78 961 q 126 986 115 999 q 214 934 158 949 q 326 919 269 919 q 423 928 378 919 q 492 951 468 938 q 574 992 540 992 q 596 969 596 992 q 583 929 596 954 z "},"8":{"ha":640,"x_min":21,"x_max":585,"o":"m 344 54 q 253 0 297 17 q 171 -17 208 -17 q 62 30 103 -17 q 21 149 21 76 q 44 258 21 200 q 121 376 68 317 q 162 417 140 399 q 203 449 183 435 q 116 536 156 493 q 76 636 76 579 q 93 708 76 668 q 119 749 100 725 q 164 797 139 772 q 211 842 189 822 q 242 874 225 857 q 278 908 258 892 q 376 971 326 950 q 468 992 426 992 q 546 966 515 992 q 576 888 576 940 q 552 785 576 844 q 472 647 528 725 q 417 585 446 611 q 497 518 458 549 q 560 453 535 488 q 585 372 585 418 q 556 271 585 332 q 522 226 546 253 q 471 173 499 200 q 419 126 443 146 q 385 90 404 108 q 344 54 365 71 m 364 628 q 383 664 378 646 q 389 700 389 682 q 370 765 389 736 q 324 810 351 793 q 272 828 297 828 q 257 826 264 828 q 256 807 256 817 q 288 714 256 757 q 364 628 319 671 l 364 628 m 224 313 q 238 232 224 272 q 279 166 253 192 q 340 140 306 140 q 400 161 369 140 q 404 199 404 179 q 382 276 404 240 q 325 345 360 313 q 253 411 290 378 q 231 365 238 390 q 224 313 224 340 z "},"9":{"ha":615,"x_min":42,"x_max":588,"o":"m 56 650 q 166 859 104 783 q 292 965 228 935 q 413 996 357 996 q 490 981 457 996 q 540 946 524 967 q 576 875 565 915 q 588 786 588 835 q 560 603 588 703 q 487 401 532 503 q 389 207 442 299 q 285 47 336 115 q 226 -5 260 14 q 172 -24 193 -24 q 153 -8 153 -24 q 171 31 153 4 q 233 127 197 67 q 303 263 268 188 q 365 417 339 338 q 297 372 332 386 q 226 357 261 357 q 135 383 178 357 q 67 456 93 410 q 42 564 42 503 q 44 595 42 579 q 47 624 46 611 q 49 629 47 626 l 49 629 q 49 631 49 629 q 56 650 51 638 m 179 710 q 215 593 179 628 q 294 558 251 558 q 360 576 328 558 q 408 622 392 593 q 408 643 408 633 q 399 722 408 686 q 368 785 390 758 q 331 815 350 806 q 293 824 313 824 q 230 802 260 824 q 182 750 200 781 q 179 710 179 729 z "},"A":{"ha":735,"x_min":-28,"x_max":682,"o":"m 54 232 q 131 271 85 260 q 142 329 135 297 l 33 329 q 35 353 29 329 q 51 412 40 376 q 76 483 63 447 q 100 542 89 518 q 117 565 111 565 l 188 565 q 203 645 194 606 q 219 724 211 685 q 238 754 222 735 q 276 797 254 774 q 319 836 299 819 l 321 838 l 397 897 q 443 933 417 914 l 443 933 l 443 933 q 512 978 478 958 q 558 999 546 999 q 574 960 569 999 q 579 857 579 921 q 576 720 579 796 q 569 567 572 644 l 676 567 q 676 543 682 567 q 659 484 671 519 q 634 413 647 449 q 610 354 621 378 q 593 331 599 331 l 560 331 q 560 297 560 313 l 561 256 q 574 196 563 213 q 608 179 586 179 q 635 183 621 179 q 646 179 646 188 q 626 143 646 169 q 576 87 606 117 q 517 33 546 57 q 474 6 489 10 q 438 0 457 0 q 397 20 411 0 q 381 86 383 40 l 379 207 q 379 270 379 238 q 381 336 379 303 l 247 338 q 231 267 239 300 q 275 235 260 256 q 278 222 278 229 q 270 177 278 207 q 251 115 263 147 q 226 53 239 82 q 203 10 214 25 q 186 1 192 -6 q 147 31 172 21 q 93 40 121 40 q 33 31 63 40 q -15 4 4 21 q -22 0 -19 0 q -28 10 -28 0 q -19 59 -28 26 q 3 128 -10 92 q 31 194 17 165 q 54 232 44 224 m 383 653 q 383 711 383 683 q 382 763 383 739 l 342 731 q 319 636 331 683 q 297 540 308 589 l 383 543 q 383 599 383 571 q 383 653 383 626 z "},"Á":{"ha":714,"x_min":-42,"x_max":706,"o":"m 40 232 q 117 271 71 260 q 128 329 121 297 l 19 329 q 21 353 15 329 q 38 412 26 376 q 62 483 49 447 q 86 542 75 518 q 103 565 97 565 l 174 565 q 189 645 181 606 q 206 724 197 685 q 224 754 208 735 q 263 797 240 774 q 306 836 285 819 l 307 838 l 383 897 q 429 933 403 914 l 429 933 l 429 933 q 498 978 464 958 q 544 999 532 999 q 560 960 556 999 q 565 857 565 921 q 562 720 565 796 q 556 567 558 644 l 663 567 q 663 543 668 567 q 645 484 657 519 q 620 413 633 449 q 596 354 607 378 q 579 331 585 331 l 546 331 q 546 297 546 313 l 547 256 q 560 196 549 213 q 594 179 572 179 q 621 183 607 179 q 632 179 632 188 q 612 143 632 169 q 562 87 592 117 q 503 33 532 57 q 460 6 475 10 q 424 0 443 0 q 383 20 397 0 q 367 86 369 40 l 365 207 q 365 270 365 238 q 367 336 365 303 l 233 338 q 217 267 225 300 q 261 235 246 256 q 264 222 264 229 q 256 177 264 207 q 237 115 249 147 q 213 53 225 82 q 189 10 200 25 q 172 1 178 -6 q 133 31 158 21 q 79 40 107 40 q 19 31 49 40 q -29 4 -10 21 q -36 0 -33 0 q -42 10 -42 0 q -33 59 -42 26 q -10 128 -24 92 q 17 194 3 165 q 40 232 31 224 m 369 653 q 369 711 369 683 q 368 763 369 739 l 328 731 q 306 636 317 683 q 283 540 294 589 l 369 543 q 369 599 369 571 q 369 653 369 626 m 381 1056 q 400 1090 388 1065 q 426 1144 413 1115 q 449 1192 439 1172 q 458 1213 458 1213 q 512 1251 474 1233 q 593 1278 550 1268 q 667 1289 636 1289 q 706 1272 706 1289 q 700 1257 706 1264 q 681 1234 699 1254 q 637 1186 663 1214 q 586 1131 611 1158 q 544 1085 561 1103 q 528 1067 528 1067 q 483 1042 518 1051 q 418 1032 447 1032 q 384 1038 396 1032 q 381 1056 372 1043 z "},"Ă":{"ha":735,"x_min":-28,"x_max":728,"o":"m 54 232 q 131 271 85 260 q 142 329 135 297 l 33 329 q 35 353 29 329 q 51 412 40 376 q 76 483 63 447 q 100 542 89 518 q 117 565 111 565 l 188 565 q 203 645 194 606 q 219 724 211 685 q 238 754 222 735 q 276 797 254 774 q 319 836 299 819 l 321 838 l 397 897 q 443 933 417 914 l 443 933 l 443 933 q 512 978 478 958 q 558 999 546 999 q 574 960 569 999 q 579 857 579 921 q 576 720 579 796 q 569 567 572 644 l 676 567 q 676 543 682 567 q 659 484 671 519 q 634 413 647 449 q 610 354 621 378 q 593 331 599 331 l 560 331 q 560 297 560 313 l 561 256 q 574 196 563 213 q 608 179 586 179 q 635 183 621 179 q 646 179 646 188 q 626 143 646 169 q 576 87 606 117 q 517 33 546 57 q 474 6 489 10 q 438 0 457 0 q 397 20 411 0 q 381 86 383 40 l 379 207 q 379 270 379 238 q 381 336 379 303 l 247 338 q 231 267 239 300 q 275 235 260 256 q 278 222 278 229 q 270 177 278 207 q 251 115 263 147 q 226 53 239 82 q 203 10 214 25 q 186 1 192 -6 q 147 31 172 21 q 93 40 121 40 q 33 31 63 40 q -15 4 4 21 q -22 0 -19 0 q -28 10 -28 0 q -19 59 -28 26 q 3 128 -10 92 q 31 194 17 165 q 54 232 44 224 m 383 653 q 383 711 383 683 q 382 763 383 739 l 342 731 q 319 636 331 683 q 297 540 308 589 l 383 543 q 383 599 383 571 q 383 653 383 626 m 490 1265 q 516 1200 497 1218 q 557 1182 535 1182 q 617 1202 588 1182 q 658 1238 646 1222 q 708 1274 690 1274 q 728 1242 728 1274 q 717 1192 728 1221 q 683 1135 707 1163 q 581 1047 635 1076 q 478 1017 526 1017 q 395 1047 431 1017 q 351 1138 360 1078 q 363 1178 350 1154 q 397 1225 376 1201 q 440 1265 418 1249 q 475 1281 461 1281 q 490 1265 489 1281 z "},"Ắ":{"ha":735,"x_min":-28,"x_max":793,"o":"m 54 232 q 131 271 85 260 q 142 329 135 297 l 33 329 q 35 353 29 329 q 51 412 40 376 q 76 483 63 447 q 100 542 89 518 q 117 565 111 565 l 188 565 q 203 645 194 606 q 219 724 211 685 q 238 754 222 735 q 276 797 254 774 q 319 836 299 819 l 321 838 l 397 897 q 443 933 417 914 l 443 933 l 443 933 q 512 978 478 958 q 558 999 546 999 q 574 960 569 999 q 579 857 579 921 q 576 720 579 796 q 569 567 572 644 l 676 567 q 676 543 682 567 q 659 484 671 519 q 634 413 647 449 q 610 354 621 378 q 593 331 599 331 l 560 331 q 560 297 560 313 l 561 256 q 574 196 563 213 q 608 179 586 179 q 635 183 621 179 q 646 179 646 188 q 626 143 646 169 q 576 87 606 117 q 517 33 546 57 q 474 6 489 10 q 438 0 457 0 q 397 20 411 0 q 381 86 383 40 l 379 207 q 379 270 379 238 q 381 336 379 303 l 247 338 q 231 267 239 300 q 275 235 260 256 q 278 222 278 229 q 270 177 278 207 q 251 115 263 147 q 226 53 239 82 q 203 10 214 25 q 186 1 192 -6 q 147 31 172 21 q 93 40 121 40 q 33 31 63 40 q -15 4 4 21 q -22 0 -19 0 q -28 10 -28 0 q -19 59 -28 26 q 3 128 -10 92 q 31 194 17 165 q 54 232 44 224 m 383 653 q 383 711 383 683 q 382 763 383 739 l 342 731 q 319 636 331 683 q 297 540 308 589 l 383 543 q 383 599 383 571 q 383 653 383 626 m 500 1289 q 517 1320 506 1297 q 542 1368 529 1343 q 563 1412 554 1393 q 571 1431 571 1431 q 619 1465 585 1450 q 692 1490 653 1481 q 758 1499 731 1499 q 793 1485 793 1499 q 788 1471 793 1476 q 770 1450 786 1468 q 731 1406 754 1432 q 686 1356 708 1381 q 649 1315 664 1332 q 633 1299 633 1299 q 592 1276 624 1285 q 535 1268 561 1268 q 504 1273 515 1268 q 500 1289 493 1278 m 500 1240 q 522 1182 506 1199 q 560 1165 539 1165 q 614 1183 588 1165 q 650 1215 640 1201 q 696 1249 682 1249 q 713 1219 713 1249 q 703 1175 713 1201 q 674 1124 693 1149 q 581 1044 629 1071 q 488 1017 532 1017 q 413 1044 444 1017 q 375 1125 382 1071 q 385 1162 374 1140 q 416 1204 397 1183 q 454 1240 435 1225 q 486 1254 474 1254 q 500 1240 499 1254 z "},"Ặ":{"ha":735,"x_min":-28,"x_max":728,"o":"m 54 232 q 131 271 85 260 q 142 329 135 297 l 33 329 q 35 353 29 329 q 51 412 40 376 q 76 483 63 447 q 100 542 89 518 q 117 565 111 565 l 188 565 q 203 645 194 606 q 219 724 211 685 q 238 754 222 735 q 276 797 254 774 q 319 836 299 819 l 321 838 l 397 897 q 443 933 417 914 l 443 933 l 443 933 q 512 978 478 958 q 558 999 546 999 q 574 960 569 999 q 579 857 579 921 q 576 720 579 796 q 569 567 572 644 l 676 567 q 676 543 682 567 q 659 484 671 519 q 634 413 647 449 q 610 354 621 378 q 593 331 599 331 l 560 331 q 560 297 560 313 l 561 256 q 574 196 563 213 q 608 179 586 179 q 635 183 621 179 q 646 179 646 188 q 626 143 646 169 q 576 87 606 117 q 517 33 546 57 q 474 6 489 10 q 438 0 457 0 q 397 20 411 0 q 381 86 383 40 l 379 207 q 379 270 379 238 q 381 336 379 303 l 247 338 q 231 267 239 300 q 275 235 260 256 q 278 222 278 229 q 270 177 278 207 q 251 115 263 147 q 226 53 239 82 q 203 10 214 25 q 186 1 192 -6 q 147 31 172 21 q 93 40 121 40 q 33 31 63 40 q -15 4 4 21 q -22 0 -19 0 q -28 10 -28 0 q -19 59 -28 26 q 3 128 -10 92 q 31 194 17 165 q 54 232 44 224 m 383 653 q 383 711 383 683 q 382 763 383 739 l 342 731 q 319 636 331 683 q 297 540 308 589 l 383 543 q 383 599 383 571 q 383 653 383 626 m 304 -74 l 400 -178 q 388 -205 404 -183 q 346 -251 371 -226 q 300 -292 321 -275 q 275 -303 279 -308 l 179 -197 q 191 -171 175 -192 q 232 -125 207 -150 q 278 -84 257 -100 q 304 -74 300 -68 m 490 1265 q 516 1200 497 1218 q 557 1182 535 1182 q 617 1202 588 1182 q 658 1238 646 1222 q 708 1274 690 1274 q 728 1242 728 1274 q 717 1192 728 1221 q 683 1135 707 1163 q 581 1047 635 1076 q 478 1017 526 1017 q 395 1047 431 1017 q 351 1138 360 1078 q 363 1178 350 1154 q 397 1225 376 1201 q 440 1265 418 1249 q 475 1281 461 1281 q 490 1265 489 1281 z "},"Ằ":{"ha":735,"x_min":-28,"x_max":701,"o":"m 54 232 q 131 271 85 260 q 142 329 135 297 l 33 329 q 35 353 29 329 q 51 412 40 376 q 76 483 63 447 q 100 542 89 518 q 117 565 111 565 l 188 565 q 203 645 194 606 q 219 724 211 685 q 238 754 222 735 q 276 797 254 774 q 319 836 299 819 l 321 838 l 397 897 q 443 933 417 914 l 443 933 l 443 933 q 512 978 478 958 q 558 999 546 999 q 574 960 569 999 q 579 857 579 921 q 576 720 579 796 q 569 567 572 644 l 676 567 q 676 543 682 567 q 659 484 671 519 q 634 413 647 449 q 610 354 621 378 q 593 331 599 331 l 560 331 q 560 297 560 313 l 561 256 q 574 196 563 213 q 608 179 586 179 q 635 183 621 179 q 646 179 646 188 q 626 143 646 169 q 576 87 606 117 q 517 33 546 57 q 474 6 489 10 q 438 0 457 0 q 397 20 411 0 q 381 86 383 40 l 379 207 q 379 270 379 238 q 381 336 379 303 l 247 338 q 231 267 239 300 q 275 235 260 256 q 278 222 278 229 q 270 177 278 207 q 251 115 263 147 q 226 53 239 82 q 203 10 214 25 q 186 1 192 -6 q 147 31 172 21 q 93 40 121 40 q 33 31 63 40 q -15 4 4 21 q -22 0 -19 0 q -28 10 -28 0 q -19 59 -28 26 q 3 128 -10 92 q 31 194 17 165 q 54 232 44 224 m 383 653 q 383 711 383 683 q 382 763 383 739 l 342 731 q 319 636 331 683 q 297 540 308 589 l 383 543 q 383 599 383 571 q 383 653 383 626 m 576 1288 q 574 1272 585 1276 q 543 1267 563 1267 q 485 1275 517 1267 q 444 1297 454 1283 q 429 1314 444 1297 q 392 1355 414 1331 q 347 1405 369 1379 q 308 1449 324 1431 q 289 1469 292 1467 q 285 1483 285 1476 q 319 1497 285 1497 q 386 1488 347 1497 q 459 1464 425 1479 q 507 1429 493 1449 q 515 1410 507 1429 q 536 1367 524 1392 q 560 1319 549 1342 q 576 1288 571 1296 m 488 1239 q 511 1181 494 1197 q 549 1164 528 1164 q 603 1182 576 1164 q 639 1214 629 1200 q 685 1247 671 1247 q 701 1218 701 1247 q 692 1174 701 1200 q 663 1122 682 1147 q 569 1042 618 1069 q 476 1015 521 1015 q 402 1042 433 1015 q 363 1124 371 1069 q 373 1160 361 1139 q 404 1203 385 1182 q 443 1238 424 1224 q 475 1253 463 1253 q 488 1239 488 1253 z "},"Ẳ":{"ha":735,"x_min":-28,"x_max":708,"o":"m 54 232 q 131 271 85 260 q 142 329 135 297 l 33 329 q 35 353 29 329 q 51 412 40 376 q 76 483 63 447 q 100 542 89 518 q 117 565 111 565 l 188 565 q 203 645 194 606 q 219 724 211 685 q 238 754 222 735 q 276 797 254 774 q 319 836 299 819 l 321 838 l 397 897 q 443 933 417 914 l 443 933 l 443 933 q 512 978 478 958 q 558 999 546 999 q 574 960 569 999 q 579 857 579 921 q 576 720 579 796 q 569 567 572 644 l 676 567 q 676 543 682 567 q 659 484 671 519 q 634 413 647 449 q 610 354 621 378 q 593 331 599 331 l 560 331 q 560 297 560 313 l 561 256 q 574 196 563 213 q 608 179 586 179 q 635 183 621 179 q 646 179 646 188 q 626 143 646 169 q 576 87 606 117 q 517 33 546 57 q 474 6 489 10 q 438 0 457 0 q 397 20 411 0 q 381 86 383 40 l 379 207 q 379 270 379 238 q 381 336 379 303 l 247 338 q 231 267 239 300 q 275 235 260 256 q 278 222 278 229 q 270 177 278 207 q 251 115 263 147 q 226 53 239 82 q 203 10 214 25 q 186 1 192 -6 q 147 31 172 21 q 93 40 121 40 q 33 31 63 40 q -15 4 4 21 q -22 0 -19 0 q -28 10 -28 0 q -19 59 -28 26 q 3 128 -10 92 q 31 194 17 165 q 54 232 44 224 m 383 653 q 383 711 383 683 q 382 763 383 739 l 342 731 q 319 636 331 683 q 297 540 308 589 l 383 543 q 383 599 383 571 q 383 653 383 626 m 543 1294 q 567 1332 567 1321 q 538 1347 567 1347 q 513 1345 526 1347 q 485 1340 500 1343 q 482 1340 483 1340 q 481 1339 481 1339 q 471 1351 471 1339 q 480 1387 471 1364 q 503 1433 489 1410 q 533 1474 518 1457 q 557 1493 547 1492 q 567 1495 563 1494 q 578 1496 572 1496 q 651 1472 615 1496 q 686 1406 686 1447 q 677 1365 686 1388 q 646 1319 668 1343 q 595 1283 626 1297 q 546 1269 564 1269 q 533 1276 533 1269 q 543 1294 533 1283 m 494 1240 q 518 1182 501 1199 q 556 1165 535 1165 q 609 1183 583 1165 q 646 1215 635 1201 q 692 1249 678 1249 q 708 1219 708 1249 q 699 1175 708 1201 q 668 1124 689 1149 q 576 1044 625 1071 q 483 1017 528 1017 q 409 1044 440 1017 q 369 1125 378 1071 q 380 1162 368 1140 q 410 1204 392 1183 q 449 1240 429 1225 q 481 1254 468 1254 q 494 1240 493 1254 z "},"Ẵ":{"ha":735,"x_min":-28,"x_max":744,"o":"m 54 232 q 131 271 85 260 q 142 329 135 297 l 33 329 q 35 353 29 329 q 51 412 40 376 q 76 483 63 447 q 100 542 89 518 q 117 565 111 565 l 188 565 q 203 645 194 606 q 219 724 211 685 q 238 754 222 735 q 276 797 254 774 q 319 836 299 819 l 321 838 l 397 897 q 443 933 417 914 l 443 933 l 443 933 q 512 978 478 958 q 558 999 546 999 q 574 960 569 999 q 579 857 579 921 q 576 720 579 796 q 569 567 572 644 l 676 567 q 676 543 682 567 q 659 484 671 519 q 634 413 647 449 q 610 354 621 378 q 593 331 599 331 l 560 331 q 560 297 560 313 l 561 256 q 574 196 563 213 q 608 179 586 179 q 635 183 621 179 q 646 179 646 188 q 626 143 646 169 q 576 87 606 117 q 517 33 546 57 q 474 6 489 10 q 438 0 457 0 q 397 20 411 0 q 381 86 383 40 l 379 207 q 379 270 379 238 q 381 336 379 303 l 247 338 q 231 267 239 300 q 275 235 260 256 q 278 222 278 229 q 270 177 278 207 q 251 115 263 147 q 226 53 239 82 q 203 10 214 25 q 186 1 192 -6 q 147 31 172 21 q 93 40 121 40 q 33 31 63 40 q -15 4 4 21 q -22 0 -19 0 q -28 10 -28 0 q -19 59 -28 26 q 3 128 -10 92 q 31 194 17 165 q 54 232 44 224 m 383 653 q 383 711 383 683 q 382 763 383 739 l 342 731 q 319 636 331 683 q 297 540 308 589 l 383 543 q 383 599 383 571 q 383 653 383 626 m 697 1322 q 610 1276 653 1276 q 586 1281 597 1276 q 554 1301 568 1286 q 529 1332 540 1317 q 506 1351 518 1347 q 500 1353 503 1353 q 493 1354 497 1354 q 471 1347 483 1354 q 438 1317 458 1339 q 419 1304 425 1304 q 413 1321 413 1304 q 426 1378 413 1342 q 458 1435 439 1414 q 514 1479 490 1468 q 554 1490 538 1490 q 575 1486 567 1490 q 606 1465 593 1481 q 631 1434 619 1449 q 656 1415 643 1419 q 669 1414 660 1414 q 696 1422 683 1414 q 719 1442 708 1429 q 738 1453 729 1453 q 744 1438 744 1453 q 731 1379 744 1417 q 697 1322 717 1342 m 497 1240 q 519 1182 503 1199 q 557 1165 536 1165 q 611 1183 585 1165 q 649 1215 638 1201 q 693 1249 678 1249 q 711 1219 711 1249 q 701 1175 711 1201 q 671 1124 692 1149 q 578 1044 628 1071 q 486 1017 529 1017 q 411 1044 443 1017 q 372 1125 379 1071 q 383 1162 371 1140 q 413 1204 394 1183 q 451 1240 432 1225 q 483 1254 471 1254 q 497 1240 496 1254 z "},"Ǎ":{"ha":735,"x_min":-28,"x_max":694,"o":"m 54 232 q 131 271 85 260 q 142 329 135 297 l 33 329 q 35 353 29 329 q 51 412 40 376 q 76 483 63 447 q 100 542 89 518 q 117 565 111 565 l 188 565 q 203 645 194 606 q 219 724 211 685 q 238 754 222 735 q 276 797 254 774 q 319 836 299 819 l 321 838 l 397 897 q 443 933 417 914 l 443 933 l 443 933 q 512 978 478 958 q 558 999 546 999 q 574 960 569 999 q 579 857 579 921 q 576 720 579 796 q 569 567 572 644 l 676 567 q 676 543 682 567 q 659 484 671 519 q 634 413 647 449 q 610 354 621 378 q 593 331 599 331 l 560 331 q 560 297 560 313 l 561 256 q 574 196 563 213 q 608 179 586 179 q 635 183 621 179 q 646 179 646 188 q 626 143 646 169 q 576 87 606 117 q 517 33 546 57 q 474 6 489 10 q 438 0 457 0 q 397 20 411 0 q 381 86 383 40 l 379 207 q 379 270 379 238 q 381 336 379 303 l 247 338 q 231 267 239 300 q 275 235 260 256 q 278 222 278 229 q 270 177 278 207 q 251 115 263 147 q 226 53 239 82 q 203 10 214 25 q 186 1 192 -6 q 147 31 172 21 q 93 40 121 40 q 33 31 63 40 q -15 4 4 21 q -22 0 -19 0 q -28 10 -28 0 q -19 59 -28 26 q 3 128 -10 92 q 31 194 17 165 q 54 232 44 224 m 383 653 q 383 711 383 683 q 382 763 383 739 l 342 731 q 319 636 331 683 q 297 540 308 589 l 383 543 q 383 599 383 571 q 383 653 383 626 m 439 1281 l 540 1172 l 597 1244 q 635 1275 613 1264 q 674 1286 658 1286 q 694 1272 694 1286 q 683 1247 694 1260 l 565 1097 q 547 1081 558 1088 q 494 1042 525 1058 q 440 1026 463 1026 q 419 1033 429 1026 l 286 1175 q 282 1189 282 1182 q 306 1230 282 1207 q 363 1270 331 1253 q 418 1288 396 1288 q 439 1281 429 1288 z "},"Â":{"ha":735,"x_min":-28,"x_max":699,"o":"m 54 232 q 131 271 85 260 q 142 329 135 297 l 33 329 q 35 353 29 329 q 51 412 40 376 q 76 483 63 447 q 100 542 89 518 q 117 565 111 565 l 188 565 q 203 645 194 606 q 219 724 211 685 q 238 754 222 735 q 276 797 254 774 q 319 836 299 819 l 321 838 l 397 897 q 443 933 417 914 l 443 933 l 443 933 q 512 978 478 958 q 558 999 546 999 q 574 960 569 999 q 579 857 579 921 q 576 720 579 796 q 569 567 572 644 l 676 567 q 676 543 682 567 q 659 484 671 519 q 634 413 647 449 q 610 354 621 378 q 593 331 599 331 l 560 331 q 560 297 560 313 l 561 256 q 574 196 563 213 q 608 179 586 179 q 635 183 621 179 q 646 179 646 188 q 626 143 646 169 q 576 87 606 117 q 517 33 546 57 q 474 6 489 10 q 438 0 457 0 q 397 20 411 0 q 381 86 383 40 l 379 207 q 379 270 379 238 q 381 336 379 303 l 247 338 q 231 267 239 300 q 275 235 260 256 q 278 222 278 229 q 270 177 278 207 q 251 115 263 147 q 226 53 239 82 q 203 10 214 25 q 186 1 192 -6 q 147 31 172 21 q 93 40 121 40 q 33 31 63 40 q -15 4 4 21 q -22 0 -19 0 q -28 10 -28 0 q -19 59 -28 26 q 3 128 -10 92 q 31 194 17 165 q 54 232 44 224 m 383 653 q 383 711 383 683 q 382 763 383 739 l 342 731 q 319 636 331 683 q 297 540 308 589 l 383 543 q 383 599 383 571 q 383 653 383 626 m 542 1014 l 440 1122 l 383 1050 q 345 1019 368 1031 q 307 1008 322 1008 q 286 1022 286 1008 q 297 1047 286 1035 l 415 1197 q 433 1214 422 1207 q 487 1252 456 1236 q 540 1268 518 1268 q 561 1261 551 1268 l 694 1119 q 699 1106 699 1114 q 674 1065 699 1088 q 618 1024 650 1042 q 563 1007 586 1007 q 542 1014 551 1007 z "},"Ấ":{"ha":735,"x_min":-28,"x_max":686,"o":"m 54 232 q 131 271 85 260 q 142 329 135 297 l 33 329 q 35 353 29 329 q 51 412 40 376 q 76 483 63 447 q 100 542 89 518 q 117 565 111 565 l 188 565 q 203 645 194 606 q 219 724 211 685 q 238 754 222 735 q 276 797 254 774 q 319 836 299 819 l 321 838 l 397 897 q 443 933 417 914 l 443 933 l 443 933 q 512 978 478 958 q 558 999 546 999 q 574 960 569 999 q 579 857 579 921 q 576 720 579 796 q 569 567 572 644 l 676 567 q 676 543 682 567 q 659 484 671 519 q 634 413 647 449 q 610 354 621 378 q 593 331 599 331 l 560 331 q 560 297 560 313 l 561 256 q 574 196 563 213 q 608 179 586 179 q 635 183 621 179 q 646 179 646 188 q 626 143 646 169 q 576 87 606 117 q 517 33 546 57 q 474 6 489 10 q 438 0 457 0 q 397 20 411 0 q 381 86 383 40 l 379 207 q 379 270 379 238 q 381 336 379 303 l 247 338 q 231 267 239 300 q 275 235 260 256 q 278 222 278 229 q 270 177 278 207 q 251 115 263 147 q 226 53 239 82 q 203 10 214 25 q 186 1 192 -6 q 147 31 172 21 q 93 40 121 40 q 33 31 63 40 q -15 4 4 21 q -22 0 -19 0 q -28 10 -28 0 q -19 59 -28 26 q 3 128 -10 92 q 31 194 17 165 q 54 232 44 224 m 383 653 q 383 711 383 683 q 382 763 383 739 l 342 731 q 319 636 331 683 q 297 540 308 589 l 383 543 q 383 599 383 571 q 383 653 383 626 m 156 1110 q 173 1141 161 1118 q 197 1190 185 1164 q 218 1233 210 1215 q 226 1251 226 1251 q 274 1286 240 1271 q 347 1311 308 1301 q 414 1321 386 1321 q 449 1306 449 1321 q 443 1292 449 1297 q 426 1271 442 1289 q 387 1228 410 1253 q 342 1178 364 1203 q 304 1138 319 1154 q 289 1121 289 1121 q 248 1098 279 1107 q 190 1089 217 1089 q 160 1094 171 1089 q 156 1110 149 1100 m 544 1025 l 453 1121 l 403 1057 q 369 1029 389 1039 q 333 1019 349 1019 q 315 1032 315 1019 q 325 1054 315 1043 l 431 1188 q 484 1232 449 1211 q 544 1253 519 1253 q 554 1251 550 1253 q 563 1247 558 1250 l 682 1119 q 686 1107 686 1114 q 665 1070 686 1092 q 614 1033 643 1049 q 564 1018 585 1018 q 544 1025 554 1018 z "},"Ậ":{"ha":735,"x_min":-28,"x_max":699,"o":"m 54 232 q 131 271 85 260 q 142 329 135 297 l 33 329 q 35 353 29 329 q 51 412 40 376 q 76 483 63 447 q 100 542 89 518 q 117 565 111 565 l 188 565 q 203 645 194 606 q 219 724 211 685 q 238 754 222 735 q 276 797 254 774 q 319 836 299 819 l 321 838 l 397 897 q 443 933 417 914 l 443 933 l 443 933 q 512 978 478 958 q 558 999 546 999 q 574 960 569 999 q 579 857 579 921 q 576 720 579 796 q 569 567 572 644 l 676 567 q 676 543 682 567 q 659 484 671 519 q 634 413 647 449 q 610 354 621 378 q 593 331 599 331 l 560 331 q 560 297 560 313 l 561 256 q 574 196 563 213 q 608 179 586 179 q 635 183 621 179 q 646 179 646 188 q 626 143 646 169 q 576 87 606 117 q 517 33 546 57 q 474 6 489 10 q 438 0 457 0 q 397 20 411 0 q 381 86 383 40 l 379 207 q 379 270 379 238 q 381 336 379 303 l 247 338 q 231 267 239 300 q 275 235 260 256 q 278 222 278 229 q 270 177 278 207 q 251 115 263 147 q 226 53 239 82 q 203 10 214 25 q 186 1 192 -6 q 147 31 172 21 q 93 40 121 40 q 33 31 63 40 q -15 4 4 21 q -22 0 -19 0 q -28 10 -28 0 q -19 59 -28 26 q 3 128 -10 92 q 31 194 17 165 q 54 232 44 224 m 383 653 q 383 711 383 683 q 382 763 383 739 l 342 731 q 319 636 331 683 q 297 540 308 589 l 383 543 q 383 599 383 571 q 383 653 383 626 m 304 -74 l 400 -178 q 388 -205 404 -183 q 346 -251 371 -226 q 300 -292 321 -275 q 275 -303 279 -308 l 179 -197 q 191 -171 175 -192 q 232 -125 207 -150 q 278 -84 257 -100 q 304 -74 300 -68 m 542 1014 l 440 1122 l 383 1050 q 345 1019 368 1031 q 307 1008 322 1008 q 286 1022 286 1008 q 297 1047 286 1035 l 415 1197 q 433 1214 422 1207 q 487 1252 456 1236 q 540 1268 518 1268 q 561 1261 551 1268 l 694 1119 q 699 1106 699 1114 q 674 1065 699 1088 q 618 1024 650 1042 q 563 1007 586 1007 q 542 1014 551 1007 z "},"Ầ":{"ha":649,"x_min":-111,"x_max":763,"o":"m -29 232 q 47 271 1 260 q 58 329 51 297 l -50 329 q -49 353 -54 329 q -32 412 -43 376 q -8 483 -21 447 q 17 542 6 518 q 33 565 28 565 l 104 565 q 119 645 111 606 q 136 724 128 685 q 155 754 139 735 q 193 797 171 774 q 236 836 215 819 l 238 838 l 314 897 q 360 933 333 914 l 360 933 l 360 933 q 428 978 394 958 q 475 999 463 999 q 491 960 486 999 q 496 857 496 921 q 492 720 496 796 q 486 567 489 644 l 593 567 q 593 543 599 567 q 576 484 588 519 q 551 413 564 449 q 526 354 538 378 q 510 331 515 331 l 476 331 q 476 297 476 313 l 478 256 q 491 196 479 213 q 525 179 503 179 q 551 183 538 179 q 563 179 563 188 q 542 143 563 169 q 492 87 522 117 q 434 33 463 57 q 390 6 406 10 q 354 0 374 0 q 314 20 328 0 q 297 86 300 40 l 296 207 q 296 270 296 238 q 297 336 296 303 l 164 338 q 147 267 156 300 q 192 235 176 256 q 194 222 194 229 q 187 177 194 207 q 167 115 179 147 q 143 53 156 82 q 119 10 131 25 q 103 1 108 -6 q 63 31 89 21 q 10 40 38 40 q -50 31 -21 40 q -99 4 -79 21 q -106 0 -103 0 q -111 10 -111 0 q -102 59 -111 26 q -80 128 -93 92 q -53 194 -67 165 q -29 232 -39 224 m 300 653 q 300 711 300 683 q 299 763 300 739 l 258 731 q 236 636 247 683 q 214 540 225 589 l 300 543 q 300 599 300 571 q 300 653 300 626 m 756 1164 q 751 1149 763 1154 q 721 1143 740 1143 q 663 1152 694 1143 q 622 1175 632 1161 q 607 1192 622 1175 q 569 1233 592 1208 q 524 1282 547 1257 q 485 1325 501 1307 q 468 1346 469 1343 q 463 1360 463 1351 q 497 1375 463 1375 q 564 1365 525 1375 q 638 1340 603 1356 q 685 1306 672 1325 q 693 1288 685 1306 q 714 1244 701 1269 q 738 1195 726 1218 q 756 1164 750 1172 m 453 1025 l 361 1121 l 311 1057 q 277 1029 297 1039 q 242 1019 257 1019 q 224 1032 224 1019 q 233 1054 224 1043 l 339 1188 q 392 1232 357 1211 q 453 1253 428 1253 q 463 1251 458 1253 q 471 1247 467 1250 l 590 1119 q 594 1107 594 1114 q 573 1070 594 1092 q 522 1033 551 1049 q 472 1018 493 1018 q 453 1025 463 1018 z "},"Ẩ":{"ha":735,"x_min":-28,"x_max":847,"o":"m 54 232 q 131 271 85 260 q 142 329 135 297 l 33 329 q 35 353 29 329 q 51 412 40 376 q 76 483 63 447 q 100 542 89 518 q 117 565 111 565 l 188 565 q 203 645 194 606 q 219 724 211 685 q 238 754 222 735 q 276 797 254 774 q 319 836 299 819 l 321 838 l 397 897 q 443 933 417 914 l 443 933 l 443 933 q 512 978 478 958 q 558 999 546 999 q 574 960 569 999 q 579 857 579 921 q 576 720 579 796 q 569 567 572 644 l 676 567 q 676 543 682 567 q 659 484 671 519 q 634 413 647 449 q 610 354 621 378 q 593 331 599 331 l 560 331 q 560 297 560 313 l 561 256 q 574 196 563 213 q 608 179 586 179 q 635 183 621 179 q 646 179 646 188 q 626 143 646 169 q 576 87 606 117 q 517 33 546 57 q 474 6 489 10 q 438 0 457 0 q 397 20 411 0 q 381 86 383 40 l 379 207 q 379 270 379 238 q 381 336 379 303 l 247 338 q 231 267 239 300 q 275 235 260 256 q 278 222 278 229 q 270 177 278 207 q 251 115 263 147 q 226 53 239 82 q 203 10 214 25 q 186 1 192 -6 q 147 31 172 21 q 93 40 121 40 q 33 31 63 40 q -15 4 4 21 q -22 0 -19 0 q -28 10 -28 0 q -19 59 -28 26 q 3 128 -10 92 q 31 194 17 165 q 54 232 44 224 m 383 653 q 383 711 383 683 q 382 763 383 739 l 342 731 q 319 636 331 683 q 297 540 308 589 l 383 543 q 383 599 383 571 q 383 653 383 626 m 689 1219 q 714 1261 714 1249 q 682 1278 714 1278 q 655 1276 669 1278 q 624 1271 640 1274 q 621 1270 622 1271 q 618 1269 619 1269 q 608 1283 608 1269 q 619 1324 608 1299 q 644 1374 629 1349 q 676 1419 660 1400 q 704 1440 692 1439 q 715 1442 710 1442 q 726 1443 721 1443 q 782 1431 754 1443 q 828 1397 810 1419 q 847 1343 847 1375 q 837 1299 847 1322 q 803 1247 826 1275 q 746 1207 781 1222 q 692 1192 711 1192 q 678 1200 678 1192 q 689 1219 678 1208 m 536 1025 l 444 1121 l 394 1057 q 360 1029 381 1039 q 325 1019 340 1019 q 307 1032 307 1019 q 317 1054 307 1043 l 422 1188 q 476 1232 440 1211 q 536 1253 511 1253 q 546 1251 542 1253 q 554 1247 550 1250 l 674 1119 q 678 1107 678 1114 q 656 1070 678 1092 q 606 1033 635 1049 q 556 1018 576 1018 q 536 1025 546 1018 z "},"Ẫ":{"ha":735,"x_min":-28,"x_max":682,"o":"m 54 232 q 131 271 85 260 q 142 329 135 297 l 33 329 q 35 353 29 329 q 51 412 40 376 q 76 483 63 447 q 100 542 89 518 q 117 565 111 565 l 188 565 q 203 645 194 606 q 219 724 211 685 q 238 754 222 735 q 276 797 254 774 q 319 836 299 819 l 321 838 l 397 897 q 443 933 417 914 l 443 933 l 443 933 q 512 978 478 958 q 558 999 546 999 q 574 960 569 999 q 579 857 579 921 q 576 720 579 796 q 569 567 572 644 l 676 567 q 676 543 682 567 q 659 484 671 519 q 634 413 647 449 q 610 354 621 378 q 593 331 599 331 l 560 331 q 560 297 560 313 l 561 256 q 574 196 563 213 q 608 179 586 179 q 635 183 621 179 q 646 179 646 188 q 626 143 646 169 q 576 87 606 117 q 517 33 546 57 q 474 6 489 10 q 438 0 457 0 q 397 20 411 0 q 381 86 383 40 l 379 207 q 379 270 379 238 q 381 336 379 303 l 247 338 q 231 267 239 300 q 275 235 260 256 q 278 222 278 229 q 270 177 278 207 q 251 115 263 147 q 226 53 239 82 q 203 10 214 25 q 186 1 192 -6 q 147 31 172 21 q 93 40 121 40 q 33 31 63 40 q -15 4 4 21 q -22 0 -19 0 q -28 10 -28 0 q -19 59 -28 26 q 3 128 -10 92 q 31 194 17 165 q 54 232 44 224 m 383 653 q 383 711 383 683 q 382 763 383 739 l 342 731 q 319 636 331 683 q 297 540 308 589 l 383 543 q 383 599 383 571 q 383 653 383 626 m 625 1350 q 547 1308 588 1308 q 525 1313 536 1308 q 497 1332 510 1318 q 474 1360 485 1346 q 453 1376 464 1374 q 442 1379 447 1379 q 422 1372 433 1379 q 392 1346 411 1365 q 375 1333 382 1333 q 369 1349 369 1333 q 381 1400 369 1367 q 411 1451 393 1433 q 460 1492 439 1482 q 497 1501 482 1501 q 515 1497 510 1501 q 544 1478 532 1492 q 566 1451 556 1464 q 588 1433 576 1438 l 600 1433 q 646 1458 624 1433 q 663 1468 654 1468 q 668 1454 668 1468 q 656 1402 668 1436 q 625 1350 644 1368 m 538 1049 l 446 1146 l 394 1082 q 360 1054 381 1064 q 326 1044 340 1044 q 307 1057 307 1044 q 317 1079 307 1068 l 424 1214 q 438 1228 429 1222 q 487 1263 458 1247 q 536 1278 515 1278 q 554 1272 546 1278 l 675 1144 q 678 1132 678 1140 q 656 1094 678 1115 q 606 1058 635 1074 q 556 1043 576 1043 q 538 1049 546 1043 z "},"Ȁ":{"ha":735,"x_min":-28,"x_max":733,"o":"m 54 232 q 131 271 85 260 q 142 329 135 297 l 33 329 q 35 353 29 329 q 51 412 40 376 q 76 483 63 447 q 100 542 89 518 q 117 565 111 565 l 188 565 q 203 645 194 606 q 219 724 211 685 q 238 754 222 735 q 276 797 254 774 q 319 836 299 819 l 321 838 l 397 897 q 443 933 417 914 l 443 933 l 443 933 q 512 978 478 958 q 558 999 546 999 q 574 960 569 999 q 579 857 579 921 q 576 720 579 796 q 569 567 572 644 l 676 567 q 676 543 682 567 q 659 484 671 519 q 634 413 647 449 q 610 354 621 378 q 593 331 599 331 l 560 331 q 560 297 560 313 l 561 256 q 574 196 563 213 q 608 179 586 179 q 635 183 621 179 q 646 179 646 188 q 626 143 646 169 q 576 87 606 117 q 517 33 546 57 q 474 6 489 10 q 438 0 457 0 q 397 20 411 0 q 381 86 383 40 l 379 207 q 379 270 379 238 q 381 336 379 303 l 247 338 q 231 267 239 300 q 275 235 260 256 q 278 222 278 229 q 270 177 278 207 q 251 115 263 147 q 226 53 239 82 q 203 10 214 25 q 186 1 192 -6 q 147 31 172 21 q 93 40 121 40 q 33 31 63 40 q -15 4 4 21 q -22 0 -19 0 q -28 10 -28 0 q -19 59 -28 26 q 3 128 -10 92 q 31 194 17 165 q 54 232 44 224 m 383 653 q 383 711 383 683 q 382 763 383 739 l 342 731 q 319 636 331 683 q 297 540 308 589 l 383 543 q 383 599 383 571 q 383 653 383 626 m 478 1072 q 474 1054 486 1060 q 440 1049 463 1049 q 376 1058 411 1049 q 331 1083 342 1068 q 314 1101 331 1083 q 272 1147 297 1119 q 222 1203 247 1175 q 178 1251 196 1231 q 158 1274 161 1271 q 153 1289 153 1281 q 192 1306 153 1306 q 265 1295 222 1306 q 347 1267 308 1285 q 400 1229 385 1250 q 410 1209 400 1229 q 433 1160 419 1189 q 459 1107 446 1132 q 478 1072 472 1082 m 725 1071 q 722 1053 733 1058 q 688 1047 710 1047 q 624 1057 658 1047 q 578 1082 589 1067 q 561 1100 578 1082 q 519 1146 544 1118 q 469 1201 494 1174 q 426 1249 443 1229 q 406 1272 408 1269 q 400 1288 400 1279 q 439 1304 400 1304 q 513 1294 469 1304 q 594 1266 556 1283 q 647 1228 632 1249 q 657 1208 647 1228 q 680 1159 667 1188 q 706 1106 693 1131 q 725 1071 719 1081 z "},"Ä":{"ha":735,"x_min":-28,"x_max":740,"o":"m 54 232 q 131 271 85 260 q 142 329 135 297 l 33 329 q 35 353 29 329 q 51 412 40 376 q 76 483 63 447 q 100 542 89 518 q 117 565 111 565 l 188 565 q 203 645 194 606 q 219 724 211 685 q 238 754 222 735 q 276 797 254 774 q 319 836 299 819 l 321 838 l 397 897 q 443 933 417 914 l 443 933 l 443 933 q 512 978 478 958 q 558 999 546 999 q 574 960 569 999 q 579 857 579 921 q 576 720 579 796 q 569 567 572 644 l 676 567 q 676 543 682 567 q 659 484 671 519 q 634 413 647 449 q 610 354 621 378 q 593 331 599 331 l 560 331 q 560 297 560 313 l 561 256 q 574 196 563 213 q 608 179 586 179 q 635 183 621 179 q 646 179 646 188 q 626 143 646 169 q 576 87 606 117 q 517 33 546 57 q 474 6 489 10 q 438 0 457 0 q 397 20 411 0 q 381 86 383 40 l 379 207 q 379 270 379 238 q 381 336 379 303 l 247 338 q 231 267 239 300 q 275 235 260 256 q 278 222 278 229 q 270 177 278 207 q 251 115 263 147 q 226 53 239 82 q 203 10 214 25 q 186 1 192 -6 q 147 31 172 21 q 93 40 121 40 q 33 31 63 40 q -15 4 4 21 q -22 0 -19 0 q -28 10 -28 0 q -19 59 -28 26 q 3 128 -10 92 q 31 194 17 165 q 54 232 44 224 m 383 653 q 383 711 383 683 q 382 763 383 739 l 342 731 q 319 636 331 683 q 297 540 308 589 l 383 543 q 383 599 383 571 q 383 653 383 626 m 631 1279 l 736 1163 q 729 1142 740 1158 q 698 1103 718 1125 q 656 1061 678 1081 q 619 1031 635 1042 q 599 1024 603 1019 l 492 1140 q 499 1161 488 1144 q 531 1199 511 1178 q 573 1241 551 1221 q 610 1272 594 1261 q 631 1279 626 1283 m 358 1276 l 464 1160 q 457 1139 468 1156 q 426 1100 446 1122 q 384 1058 406 1078 q 347 1028 363 1039 q 326 1021 331 1017 l 219 1138 q 227 1158 215 1142 q 259 1197 239 1175 q 301 1238 279 1218 q 338 1269 322 1258 q 358 1276 354 1281 z "},"Ǟ":{"ha":735,"x_min":-28,"x_max":740,"o":"m 54 232 q 131 271 85 260 q 142 329 135 297 l 33 329 q 35 353 29 329 q 51 412 40 376 q 76 483 63 447 q 100 542 89 518 q 117 565 111 565 l 188 565 q 203 645 194 606 q 219 724 211 685 q 238 754 222 735 q 276 797 254 774 q 319 836 299 819 l 321 838 l 397 897 q 443 933 417 914 l 443 933 l 443 933 q 512 978 478 958 q 558 999 546 999 q 574 960 569 999 q 579 857 579 921 q 576 720 579 796 q 569 567 572 644 l 676 567 q 676 543 682 567 q 659 484 671 519 q 634 413 647 449 q 610 354 621 378 q 593 331 599 331 l 560 331 q 560 297 560 313 l 561 256 q 574 196 563 213 q 608 179 586 179 q 635 183 621 179 q 646 179 646 188 q 626 143 646 169 q 576 87 606 117 q 517 33 546 57 q 474 6 489 10 q 438 0 457 0 q 397 20 411 0 q 381 86 383 40 l 379 207 q 379 270 379 238 q 381 336 379 303 l 247 338 q 231 267 239 300 q 275 235 260 256 q 278 222 278 229 q 270 177 278 207 q 251 115 263 147 q 226 53 239 82 q 203 10 214 25 q 186 1 192 -6 q 147 31 172 21 q 93 40 121 40 q 33 31 63 40 q -15 4 4 21 q -22 0 -19 0 q -28 10 -28 0 q -19 59 -28 26 q 3 128 -10 92 q 31 194 17 165 q 54 232 44 224 m 383 653 q 383 711 383 683 q 382 763 383 739 l 342 731 q 319 636 331 683 q 297 540 308 589 l 383 543 q 383 599 383 571 q 383 653 383 626 m 631 1279 l 736 1163 q 729 1142 740 1158 q 698 1103 718 1125 q 656 1061 678 1081 q 619 1031 635 1042 q 599 1024 603 1019 l 492 1140 q 499 1161 488 1144 q 531 1199 511 1178 q 573 1241 551 1221 q 610 1272 594 1261 q 631 1279 626 1283 m 358 1276 l 464 1160 q 457 1139 468 1156 q 426 1100 446 1122 q 384 1058 406 1078 q 347 1028 363 1039 q 326 1021 331 1017 l 219 1138 q 227 1158 215 1142 q 259 1197 239 1175 q 301 1238 279 1218 q 338 1269 322 1258 q 358 1276 354 1281 m 382 1499 l 703 1496 q 711 1479 711 1496 q 704 1438 711 1464 q 686 1387 697 1413 q 664 1344 675 1361 q 644 1326 653 1326 l 324 1329 q 315 1344 315 1329 q 322 1387 315 1361 q 340 1438 329 1413 q 363 1481 351 1464 q 382 1499 374 1499 z "},"Ȧ":{"ha":735,"x_min":-28,"x_max":682,"o":"m 54 232 q 131 271 85 260 q 142 329 135 297 l 33 329 q 35 353 29 329 q 51 412 40 376 q 76 483 63 447 q 100 542 89 518 q 117 565 111 565 l 188 565 q 203 645 194 606 q 219 724 211 685 q 238 754 222 735 q 276 797 254 774 q 319 836 299 819 l 321 838 l 397 897 q 443 933 417 914 l 443 933 l 443 933 q 512 978 478 958 q 558 999 546 999 q 574 960 569 999 q 579 857 579 921 q 576 720 579 796 q 569 567 572 644 l 676 567 q 676 543 682 567 q 659 484 671 519 q 634 413 647 449 q 610 354 621 378 q 593 331 599 331 l 560 331 q 560 297 560 313 l 561 256 q 574 196 563 213 q 608 179 586 179 q 635 183 621 179 q 646 179 646 188 q 626 143 646 169 q 576 87 606 117 q 517 33 546 57 q 474 6 489 10 q 438 0 457 0 q 397 20 411 0 q 381 86 383 40 l 379 207 q 379 270 379 238 q 381 336 379 303 l 247 338 q 231 267 239 300 q 275 235 260 256 q 278 222 278 229 q 270 177 278 207 q 251 115 263 147 q 226 53 239 82 q 203 10 214 25 q 186 1 192 -6 q 147 31 172 21 q 93 40 121 40 q 33 31 63 40 q -15 4 4 21 q -22 0 -19 0 q -28 10 -28 0 q -19 59 -28 26 q 3 128 -10 92 q 31 194 17 165 q 54 232 44 224 m 383 653 q 383 711 383 683 q 382 763 383 739 l 342 731 q 319 636 331 683 q 297 540 308 589 l 383 543 q 383 599 383 571 q 383 653 383 626 m 492 1278 l 597 1161 q 590 1140 601 1157 q 559 1101 579 1124 q 517 1060 539 1079 q 480 1029 496 1040 q 460 1022 464 1018 l 353 1139 q 360 1160 349 1143 q 392 1198 372 1176 q 434 1240 413 1219 q 472 1271 456 1260 q 492 1278 488 1282 z "},"Ạ":{"ha":735,"x_min":-28,"x_max":682,"o":"m 54 232 q 131 271 85 260 q 142 329 135 297 l 33 329 q 35 353 29 329 q 51 412 40 376 q 76 483 63 447 q 100 542 89 518 q 117 565 111 565 l 188 565 q 203 645 194 606 q 219 724 211 685 q 238 754 222 735 q 276 797 254 774 q 319 836 299 819 l 321 838 l 397 897 q 443 933 417 914 l 443 933 l 443 933 q 512 978 478 958 q 558 999 546 999 q 574 960 569 999 q 579 857 579 921 q 576 720 579 796 q 569 567 572 644 l 676 567 q 676 543 682 567 q 659 484 671 519 q 634 413 647 449 q 610 354 621 378 q 593 331 599 331 l 560 331 q 560 297 560 313 l 561 256 q 574 196 563 213 q 608 179 586 179 q 635 183 621 179 q 646 179 646 188 q 626 143 646 169 q 576 87 606 117 q 517 33 546 57 q 474 6 489 10 q 438 0 457 0 q 397 20 411 0 q 381 86 383 40 l 379 207 q 379 270 379 238 q 381 336 379 303 l 247 338 q 231 267 239 300 q 275 235 260 256 q 278 222 278 229 q 270 177 278 207 q 251 115 263 147 q 226 53 239 82 q 203 10 214 25 q 186 1 192 -6 q 147 31 172 21 q 93 40 121 40 q 33 31 63 40 q -15 4 4 21 q -22 0 -19 0 q -28 10 -28 0 q -19 59 -28 26 q 3 128 -10 92 q 31 194 17 165 q 54 232 44 224 m 383 653 q 383 711 383 683 q 382 763 383 739 l 342 731 q 319 636 331 683 q 297 540 308 589 l 383 543 q 383 599 383 571 q 383 653 383 626 m 304 -74 l 400 -178 q 388 -205 404 -183 q 346 -251 371 -226 q 300 -292 321 -275 q 275 -303 279 -308 l 179 -197 q 191 -171 175 -192 q 232 -125 207 -150 q 278 -84 257 -100 q 304 -74 300 -68 z "},"À":{"ha":735,"x_min":-28,"x_max":682,"o":"m 54 232 q 131 271 85 260 q 142 329 135 297 l 33 329 q 35 353 29 329 q 51 412 40 376 q 76 483 63 447 q 100 542 89 518 q 117 565 111 565 l 188 565 q 203 645 194 606 q 219 724 211 685 q 238 754 222 735 q 276 797 254 774 q 319 836 299 819 l 321 838 l 397 897 q 443 933 417 914 l 443 933 l 443 933 q 512 978 478 958 q 558 999 546 999 q 574 960 569 999 q 579 857 579 921 q 576 720 579 796 q 569 567 572 644 l 676 567 q 676 543 682 567 q 659 484 671 519 q 634 413 647 449 q 610 354 621 378 q 593 331 599 331 l 560 331 q 560 297 560 313 l 561 256 q 574 196 563 213 q 608 179 586 179 q 635 183 621 179 q 646 179 646 188 q 626 143 646 169 q 576 87 606 117 q 517 33 546 57 q 474 6 489 10 q 438 0 457 0 q 397 20 411 0 q 381 86 383 40 l 379 207 q 379 270 379 238 q 381 336 379 303 l 247 338 q 231 267 239 300 q 275 235 260 256 q 278 222 278 229 q 270 177 278 207 q 251 115 263 147 q 226 53 239 82 q 203 10 214 25 q 186 1 192 -6 q 147 31 172 21 q 93 40 121 40 q 33 31 63 40 q -15 4 4 21 q -22 0 -19 0 q -28 10 -28 0 q -19 59 -28 26 q 3 128 -10 92 q 31 194 17 165 q 54 232 44 224 m 383 653 q 383 711 383 683 q 382 763 383 739 l 342 731 q 319 636 331 683 q 297 540 308 589 l 383 543 q 383 599 383 571 q 383 653 383 626 m 492 1056 q 488 1038 500 1043 q 454 1032 476 1032 q 390 1042 425 1032 q 344 1067 356 1051 q 328 1085 344 1067 q 286 1131 311 1103 q 235 1186 261 1158 q 192 1234 210 1214 q 172 1257 175 1254 q 167 1272 167 1264 q 206 1289 167 1289 q 279 1278 236 1289 q 360 1251 322 1268 q 414 1213 399 1233 q 424 1192 414 1213 q 447 1144 433 1172 q 473 1090 460 1115 q 492 1056 486 1065 z "},"Ả":{"ha":735,"x_min":-28,"x_max":682,"o":"m 54 232 q 131 271 85 260 q 142 329 135 297 l 33 329 q 35 353 29 329 q 51 412 40 376 q 76 483 63 447 q 100 542 89 518 q 117 565 111 565 l 188 565 q 203 645 194 606 q 219 724 211 685 q 238 754 222 735 q 276 797 254 774 q 319 836 299 819 l 321 838 l 397 897 q 443 933 417 914 l 443 933 l 443 933 q 512 978 478 958 q 558 999 546 999 q 574 960 569 999 q 579 857 579 921 q 576 720 579 796 q 569 567 572 644 l 676 567 q 676 543 682 567 q 659 484 671 519 q 634 413 647 449 q 610 354 621 378 q 593 331 599 331 l 560 331 q 560 297 560 313 l 561 256 q 574 196 563 213 q 608 179 586 179 q 635 183 621 179 q 646 179 646 188 q 626 143 646 169 q 576 87 606 117 q 517 33 546 57 q 474 6 489 10 q 438 0 457 0 q 397 20 411 0 q 381 86 383 40 l 379 207 q 379 270 379 238 q 381 336 379 303 l 247 338 q 231 267 239 300 q 275 235 260 256 q 278 222 278 229 q 270 177 278 207 q 251 115 263 147 q 226 53 239 82 q 203 10 214 25 q 186 1 192 -6 q 147 31 172 21 q 93 40 121 40 q 33 31 63 40 q -15 4 4 21 q -22 0 -19 0 q -28 10 -28 0 q -19 59 -28 26 q 3 128 -10 92 q 31 194 17 165 q 54 232 44 224 m 383 653 q 383 711 383 683 q 382 763 383 739 l 342 731 q 319 636 331 683 q 297 540 308 589 l 383 543 q 383 599 383 571 q 383 653 383 626 m 447 1047 q 472 1089 472 1076 q 440 1106 472 1106 q 413 1103 428 1106 q 382 1099 399 1101 q 379 1098 381 1099 q 376 1097 378 1097 q 367 1111 367 1097 q 377 1151 367 1126 q 403 1202 388 1176 q 434 1247 418 1228 q 463 1268 450 1267 q 474 1270 468 1269 q 485 1271 479 1271 q 540 1259 513 1271 q 587 1225 568 1247 q 606 1171 606 1203 q 595 1126 606 1150 q 561 1075 585 1103 q 504 1035 539 1050 q 450 1019 469 1019 q 436 1028 436 1019 q 447 1047 436 1036 z "},"Ɑ":{"ha":813,"x_min":28,"x_max":818,"o":"m 776 915 q 743 840 754 889 q 726 735 732 792 q 715 629 721 679 q 698 467 708 549 q 679 303 688 386 l 676 242 q 684 181 676 206 q 710 156 692 156 q 740 168 722 156 q 772 186 764 186 q 771 167 782 186 q 736 119 760 147 q 683 63 713 92 q 626 15 654 35 q 580 -11 600 -3 q 543 -19 560 -19 q 502 0 517 -19 q 482 49 488 19 q 476 107 476 78 l 479 146 q 421 92 450 115 q 369 53 392 68 q 296 -1 332 21 q 243 -21 260 -24 q 76 63 125 0 q 28 211 28 125 q 53 362 28 282 q 121 523 79 442 q 210 679 163 604 q 305 815 258 754 q 385 914 351 875 q 419 954 403 938 q 449 976 436 971 q 504 983 472 983 q 583 980 536 983 q 690 976 631 976 q 746 978 717 976 q 807 982 775 979 q 810 967 818 983 q 776 915 806 950 m 356 739 q 336 709 356 739 q 292 630 317 679 q 249 521 268 581 q 231 401 231 461 q 266 277 231 335 q 396 190 301 219 q 446 245 421 215 q 492 313 471 275 q 498 409 494 360 q 507 507 501 458 q 516 590 511 553 q 538 670 521 628 q 596 769 556 713 q 490 764 538 765 q 407 763 442 763 l 376 763 q 356 739 367 750 z "},"Ā":{"ha":735,"x_min":-28,"x_max":697,"o":"m 54 232 q 131 271 85 260 q 142 329 135 297 l 33 329 q 35 353 29 329 q 51 412 40 376 q 76 483 63 447 q 100 542 89 518 q 117 565 111 565 l 188 565 q 203 645 194 606 q 219 724 211 685 q 238 754 222 735 q 276 797 254 774 q 319 836 299 819 l 321 838 l 397 897 q 443 933 417 914 l 443 933 l 443 933 q 512 978 478 958 q 558 999 546 999 q 574 960 569 999 q 579 857 579 921 q 576 720 579 796 q 569 567 572 644 l 676 567 q 676 543 682 567 q 659 484 671 519 q 634 413 647 449 q 610 354 621 378 q 593 331 599 331 l 560 331 q 560 297 560 313 l 561 256 q 574 196 563 213 q 608 179 586 179 q 635 183 621 179 q 646 179 646 188 q 626 143 646 169 q 576 87 606 117 q 517 33 546 57 q 474 6 489 10 q 438 0 457 0 q 397 20 411 0 q 381 86 383 40 l 379 207 q 379 270 379 238 q 381 336 379 303 l 247 338 q 231 267 239 300 q 275 235 260 256 q 278 222 278 229 q 270 177 278 207 q 251 115 263 147 q 226 53 239 82 q 203 10 214 25 q 186 1 192 -6 q 147 31 172 21 q 93 40 121 40 q 33 31 63 40 q -15 4 4 21 q -22 0 -19 0 q -28 10 -28 0 q -19 59 -28 26 q 3 128 -10 92 q 31 194 17 165 q 54 232 44 224 m 383 653 q 383 711 383 683 q 382 763 383 739 l 342 731 q 319 636 331 683 q 297 540 308 589 l 383 543 q 383 599 383 571 q 383 653 383 626 m 368 1221 l 689 1218 q 697 1201 697 1218 q 690 1160 697 1186 q 672 1109 683 1135 q 650 1066 661 1083 q 631 1049 639 1049 l 310 1051 q 301 1067 301 1051 q 308 1109 301 1083 q 326 1160 315 1135 q 349 1203 338 1186 q 368 1221 360 1221 z "},"Ą":{"ha":658,"x_min":-111,"x_max":599,"o":"m -29 232 q 47 271 1 260 q 58 329 51 297 l -50 329 q -49 353 -54 329 q -32 412 -43 376 q -8 483 -21 447 q 17 542 6 518 q 33 565 28 565 l 104 565 q 119 645 111 606 q 136 724 128 685 q 155 754 139 735 q 193 797 171 774 q 236 836 215 819 l 238 838 l 314 897 q 360 933 333 914 l 360 933 l 360 933 q 428 978 394 958 q 475 999 463 999 q 491 960 486 999 q 496 857 496 921 q 492 720 496 796 q 486 567 489 644 l 593 567 q 593 543 599 567 q 576 484 588 519 q 551 413 564 449 q 526 354 538 378 q 510 331 515 331 l 476 331 q 476 297 476 313 l 478 256 q 491 196 479 213 q 525 179 503 179 q 551 183 538 179 q 563 179 563 188 q 542 143 563 169 q 492 87 522 117 q 434 33 463 57 q 390 6 406 10 q 354 0 374 0 q 314 20 328 0 q 297 86 300 40 l 296 207 q 296 270 296 238 q 297 336 296 303 l 164 338 q 147 267 156 300 q 192 235 176 256 q 194 222 194 229 q 187 177 194 207 q 167 115 179 147 q 143 53 156 82 q 119 10 131 25 q 103 1 108 -6 q 63 31 89 21 q 10 40 38 40 q -50 31 -21 40 q -99 4 -79 21 q -106 0 -103 0 q -111 10 -111 0 q -102 59 -111 26 q -80 128 -93 92 q -53 194 -67 165 q -29 232 -39 224 m 300 653 q 300 711 300 683 q 299 763 300 739 l 258 731 q 236 636 247 683 q 214 540 225 589 l 300 543 q 300 599 300 571 q 300 653 300 626 m 393 -360 q 263 -400 325 -400 q 187 -376 217 -400 q 157 -306 157 -353 q 208 -164 157 -251 q 382 46 258 -76 q 466 118 431 94 q 515 142 501 142 q 512 117 526 142 q 449 43 497 92 q 385 -47 404 -1 q 365 -128 365 -92 q 383 -194 365 -168 q 432 -219 401 -219 q 474 -207 451 -219 q 508 -193 496 -193 q 519 -206 519 -193 q 501 -251 519 -221 q 454 -311 483 -281 q 393 -360 425 -342 z "},"Å":{"ha":735,"x_min":-28,"x_max":682,"o":"m 54 232 q 131 271 85 260 q 142 329 135 297 l 33 329 q 35 353 29 329 q 51 412 40 376 q 76 483 63 447 q 100 542 89 518 q 117 565 111 565 l 188 565 q 203 645 194 606 q 219 724 211 685 q 238 754 222 735 q 276 797 254 774 q 319 836 299 819 l 321 838 l 397 897 q 443 933 417 914 l 443 933 l 443 933 q 512 978 478 958 q 558 999 546 999 q 574 960 569 999 q 579 857 579 921 q 576 720 579 796 q 569 567 572 644 l 676 567 q 676 543 682 567 q 659 484 671 519 q 634 413 647 449 q 610 354 621 378 q 593 331 599 331 l 560 331 q 560 297 560 313 l 561 256 q 574 196 563 213 q 608 179 586 179 q 635 183 621 179 q 646 179 646 188 q 626 143 646 169 q 576 87 606 117 q 517 33 546 57 q 474 6 489 10 q 438 0 457 0 q 397 20 411 0 q 381 86 383 40 l 379 207 q 379 270 379 238 q 381 336 379 303 l 247 338 q 231 267 239 300 q 275 235 260 256 q 278 222 278 229 q 270 177 278 207 q 251 115 263 147 q 226 53 239 82 q 203 10 214 25 q 186 1 192 -6 q 147 31 172 21 q 93 40 121 40 q 33 31 63 40 q -15 4 4 21 q -22 0 -19 0 q -28 10 -28 0 q -19 59 -28 26 q 3 128 -10 92 q 31 194 17 165 q 54 232 44 224 m 383 653 q 383 711 383 683 q 382 763 383 739 l 342 731 q 319 636 331 683 q 297 540 308 589 l 383 543 q 383 599 383 571 q 383 653 383 626 m 501 1025 q 456 1013 476 1013 q 411 1031 429 1013 q 393 1082 393 1049 q 403 1134 393 1106 q 438 1197 414 1163 q 460 1225 447 1213 q 490 1254 474 1242 q 565 1282 529 1282 q 607 1268 590 1282 q 624 1226 624 1254 q 606 1163 624 1200 q 546 1076 589 1126 q 526 1047 538 1061 q 501 1025 514 1032 m 522 1126 q 525 1136 522 1128 q 528 1154 528 1144 q 522 1175 528 1165 q 499 1185 515 1185 q 492 1183 496 1185 q 488 1160 489 1174 l 488 1150 q 494 1129 488 1133 q 513 1122 500 1125 l 515 1122 q 519 1122 518 1122 l 522 1126 z "},"Ã":{"ha":721,"x_min":-42,"x_max":668,"o":"m 40 232 q 117 271 71 260 q 128 329 121 297 l 19 329 q 21 353 15 329 q 38 412 26 376 q 62 483 49 447 q 86 542 75 518 q 103 565 97 565 l 174 565 q 189 645 181 606 q 206 724 197 685 q 224 754 208 735 q 263 797 240 774 q 306 836 285 819 l 307 838 l 383 897 q 429 933 403 914 l 429 933 l 429 933 q 498 978 464 958 q 544 999 532 999 q 560 960 556 999 q 565 857 565 921 q 562 720 565 796 q 556 567 558 644 l 663 567 q 663 543 668 567 q 645 484 657 519 q 620 413 633 449 q 596 354 607 378 q 579 331 585 331 l 546 331 q 546 297 546 313 l 547 256 q 560 196 549 213 q 594 179 572 179 q 621 183 607 179 q 632 179 632 188 q 612 143 632 169 q 562 87 592 117 q 503 33 532 57 q 460 6 475 10 q 424 0 443 0 q 383 20 397 0 q 367 86 369 40 l 365 207 q 365 270 365 238 q 367 336 365 303 l 233 338 q 217 267 225 300 q 261 235 246 256 q 264 222 264 229 q 256 177 264 207 q 237 115 249 147 q 213 53 225 82 q 189 10 200 25 q 172 1 178 -6 q 133 31 158 21 q 79 40 107 40 q 19 31 49 40 q -29 4 -10 21 q -36 0 -33 0 q -42 10 -42 0 q -33 59 -42 26 q -10 128 -24 92 q 17 194 3 165 q 40 232 31 224 m 369 653 q 369 711 369 683 q 368 763 369 739 l 328 731 q 306 636 317 683 q 283 540 294 589 l 369 543 q 369 599 369 571 q 369 653 369 626 m 601 1078 q 552 1040 576 1051 q 504 1028 528 1028 q 478 1032 490 1028 q 443 1056 458 1039 q 415 1090 428 1072 q 389 1111 403 1107 q 375 1114 381 1114 q 351 1105 365 1114 q 314 1072 338 1096 q 293 1058 300 1058 q 285 1076 285 1058 q 299 1140 285 1100 q 336 1203 314 1181 q 399 1253 372 1240 q 443 1265 425 1265 q 467 1261 457 1265 q 501 1237 486 1254 q 528 1203 515 1219 q 556 1182 542 1186 q 571 1181 560 1181 q 600 1189 586 1181 q 626 1211 614 1197 q 646 1224 638 1224 q 654 1207 654 1224 q 639 1142 654 1183 q 601 1078 624 1101 z "},"Ɐ":{"ha":749,"x_min":25,"x_max":735,"o":"m 149 -26 q 133 13 138 -26 q 128 115 128 51 q 131 252 128 176 q 138 406 135 328 l 31 406 q 31 429 25 406 q 48 488 36 453 q 73 559 60 524 q 97 618 86 594 q 114 642 108 642 l 147 642 q 147 675 147 660 l 146 717 q 133 776 144 760 q 99 793 121 793 q 72 789 88 793 q 61 793 61 785 q 81 829 61 803 q 131 885 101 856 q 190 939 161 915 q 233 967 218 963 q 269 972 250 972 q 311 952 297 972 q 326 886 325 932 l 328 765 q 328 702 328 735 q 326 636 328 669 l 460 635 q 476 706 468 672 q 432 738 447 717 q 429 750 429 743 q 437 795 429 765 q 456 858 444 825 q 481 919 468 890 q 504 963 493 947 q 521 971 515 978 q 561 942 536 951 q 614 932 586 932 q 674 942 644 932 q 722 968 704 951 q 729 972 726 972 q 735 963 735 972 q 726 913 735 946 q 703 844 717 881 q 676 778 690 807 q 653 740 663 749 q 576 701 622 713 q 565 643 572 675 l 674 643 q 672 619 678 643 q 656 560 667 596 q 631 490 644 525 q 607 431 618 454 q 590 407 596 407 l 519 407 q 504 327 513 367 q 488 249 496 288 q 469 218 485 238 q 431 176 453 199 q 388 136 408 153 l 386 135 l 310 75 q 264 39 290 58 l 264 39 l 264 39 q 195 -6 229 14 q 149 -26 161 -26 m 324 319 q 324 261 324 289 q 325 210 324 233 l 365 242 q 388 336 376 289 q 410 432 399 383 l 324 429 q 324 374 324 401 q 324 319 324 346 z "},"Æ":{"ha":1021,"x_min":-28,"x_max":993,"o":"m 54 232 q 99 260 74 250 q 151 275 125 271 q 168 331 160 301 l 49 331 q 50 354 44 331 q 67 413 56 378 q 91 484 78 449 q 115 543 104 519 q 132 567 126 567 l 242 567 q 270 660 256 614 q 300 753 285 707 q 324 790 306 768 q 365 835 342 813 q 410 872 389 857 l 410 872 l 411 872 q 429 885 421 881 l 550 965 q 553 968 551 967 q 599 983 572 979 q 660 986 626 986 q 770 981 711 986 q 881 975 829 975 q 939 978 913 975 q 985 990 965 982 l 988 990 q 993 974 993 990 q 985 918 993 953 q 966 846 978 883 q 942 782 954 808 q 921 751 931 756 q 871 738 900 742 q 808 735 842 735 q 695 740 754 735 q 586 744 636 744 q 564 744 574 744 q 557 676 561 710 q 550 608 553 643 l 929 610 q 935 596 935 610 q 924 540 935 576 q 899 466 914 504 q 869 401 885 428 q 846 374 854 374 l 524 372 q 516 303 519 338 q 508 232 513 268 q 619 265 564 265 q 675 258 647 265 q 732 235 703 250 q 793 208 764 219 q 850 197 822 197 q 910 211 881 197 q 918 214 915 214 q 919 196 928 214 q 893 151 911 178 q 852 95 875 124 q 808 45 829 67 q 774 17 788 24 q 731 1 751 6 q 692 -4 711 -4 q 635 6 663 -4 q 579 29 608 15 q 514 47 544 47 q 469 38 490 47 q 426 15 447 29 q 400 -3 410 -3 q 388 40 383 -3 q 402 185 394 111 q 417 336 410 260 l 265 338 q 240 263 251 299 q 275 235 261 253 q 278 222 278 229 q 270 177 278 207 q 251 115 263 147 q 226 53 239 82 q 203 10 214 25 q 186 1 192 -6 q 147 31 172 21 q 93 40 121 40 q 33 31 63 40 q -15 4 4 21 q -22 0 -19 0 q -28 10 -28 0 q -19 59 -28 26 q 3 128 -10 92 q 31 194 17 165 q 54 232 44 224 m 404 744 q 370 643 388 694 q 335 542 353 592 l 438 543 q 449 662 443 603 q 461 781 454 721 l 404 744 z "},"Ǽ":{"ha":1021,"x_min":-28,"x_max":993,"o":"m 54 232 q 99 260 74 250 q 151 275 125 271 q 168 331 160 301 l 49 331 q 50 354 44 331 q 67 413 56 378 q 91 484 78 449 q 115 543 104 519 q 132 567 126 567 l 242 567 q 270 660 256 614 q 300 753 285 707 q 324 790 306 768 q 365 835 342 813 q 410 872 389 857 l 410 872 l 411 872 q 429 885 421 881 l 550 965 q 553 968 551 967 q 599 983 572 979 q 660 986 626 986 q 770 981 711 986 q 881 975 829 975 q 939 978 913 975 q 985 990 965 982 l 988 990 q 993 974 993 990 q 985 918 993 953 q 966 846 978 883 q 942 782 954 808 q 921 751 931 756 q 871 738 900 742 q 808 735 842 735 q 695 740 754 735 q 586 744 636 744 q 564 744 574 744 q 557 676 561 710 q 550 608 553 643 l 929 610 q 935 596 935 610 q 924 540 935 576 q 899 466 914 504 q 869 401 885 428 q 846 374 854 374 l 524 372 q 516 303 519 338 q 508 232 513 268 q 619 265 564 265 q 675 258 647 265 q 732 235 703 250 q 793 208 764 219 q 850 197 822 197 q 910 211 881 197 q 918 214 915 214 q 919 196 928 214 q 893 151 911 178 q 852 95 875 124 q 808 45 829 67 q 774 17 788 24 q 731 1 751 6 q 692 -4 711 -4 q 635 6 663 -4 q 579 29 608 15 q 514 47 544 47 q 469 38 490 47 q 426 15 447 29 q 400 -3 410 -3 q 388 40 383 -3 q 402 185 394 111 q 417 336 410 260 l 265 338 q 240 263 251 299 q 275 235 261 253 q 278 222 278 229 q 270 177 278 207 q 251 115 263 147 q 226 53 239 82 q 203 10 214 25 q 186 1 192 -6 q 147 31 172 21 q 93 40 121 40 q 33 31 63 40 q -15 4 4 21 q -22 0 -19 0 q -28 10 -28 0 q -19 59 -28 26 q 3 128 -10 92 q 31 194 17 165 q 54 232 44 224 m 404 744 q 370 643 388 694 q 335 542 353 592 l 438 543 q 449 662 443 603 q 461 781 454 721 l 404 744 m 617 1085 q 636 1119 624 1094 q 662 1173 649 1144 q 685 1222 675 1201 q 694 1242 694 1242 q 748 1280 710 1263 q 829 1308 786 1297 q 903 1318 872 1318 q 942 1301 942 1318 q 936 1286 942 1293 q 917 1263 935 1283 q 873 1215 899 1243 q 822 1160 847 1188 q 781 1114 797 1132 q 764 1096 764 1096 q 719 1071 754 1081 q 654 1061 683 1061 q 620 1067 632 1061 q 617 1085 608 1072 z "},"Ǣ":{"ha":1021,"x_min":-28,"x_max":993,"o":"m 54 232 q 99 260 74 250 q 151 275 125 271 q 168 331 160 301 l 49 331 q 50 354 44 331 q 67 413 56 378 q 91 484 78 449 q 115 543 104 519 q 132 567 126 567 l 242 567 q 270 660 256 614 q 300 753 285 707 q 324 790 306 768 q 365 835 342 813 q 410 872 389 857 l 410 872 l 411 872 q 429 885 421 881 l 550 965 q 553 968 551 967 q 599 983 572 979 q 660 986 626 986 q 770 981 711 986 q 881 975 829 975 q 939 978 913 975 q 985 990 965 982 l 988 990 q 993 974 993 990 q 985 918 993 953 q 966 846 978 883 q 942 782 954 808 q 921 751 931 756 q 871 738 900 742 q 808 735 842 735 q 695 740 754 735 q 586 744 636 744 q 564 744 574 744 q 557 676 561 710 q 550 608 553 643 l 929 610 q 935 596 935 610 q 924 540 935 576 q 899 466 914 504 q 869 401 885 428 q 846 374 854 374 l 524 372 q 516 303 519 338 q 508 232 513 268 q 619 265 564 265 q 675 258 647 265 q 732 235 703 250 q 793 208 764 219 q 850 197 822 197 q 910 211 881 197 q 918 214 915 214 q 919 196 928 214 q 893 151 911 178 q 852 95 875 124 q 808 45 829 67 q 774 17 788 24 q 731 1 751 6 q 692 -4 711 -4 q 635 6 663 -4 q 579 29 608 15 q 514 47 544 47 q 469 38 490 47 q 426 15 447 29 q 400 -3 410 -3 q 388 40 383 -3 q 402 185 394 111 q 417 336 410 260 l 265 338 q 240 263 251 299 q 275 235 261 253 q 278 222 278 229 q 270 177 278 207 q 251 115 263 147 q 226 53 239 82 q 203 10 214 25 q 186 1 192 -6 q 147 31 172 21 q 93 40 121 40 q 33 31 63 40 q -15 4 4 21 q -22 0 -19 0 q -28 10 -28 0 q -19 59 -28 26 q 3 128 -10 92 q 31 194 17 165 q 54 232 44 224 m 404 744 q 370 643 388 694 q 335 542 353 592 l 438 543 q 449 662 443 603 q 461 781 454 721 l 404 744 m 590 1250 l 911 1247 q 919 1231 919 1247 q 913 1190 919 1215 q 894 1138 906 1164 q 872 1095 883 1113 q 853 1078 861 1078 l 532 1081 q 524 1096 524 1081 q 531 1138 524 1113 q 549 1190 538 1164 q 571 1233 560 1215 q 590 1250 582 1250 z "},"B":{"ha":685,"x_min":-28,"x_max":644,"o":"m 375 1 q 245 20 303 15 q 143 25 188 25 q 24 14 63 25 q -18 0 -14 3 q -22 -1 -19 -1 q -28 10 -28 -1 q -16 69 -28 29 q 13 151 -4 110 q 43 217 29 193 q 54 336 47 265 q 69 483 61 407 q 86 626 78 558 q 101 735 94 693 q 111 758 103 746 q 57 747 85 754 q 52 765 46 744 q 75 816 58 785 q 113 880 92 847 q 151 936 133 913 q 179 961 169 960 q 299 976 236 976 q 439 956 371 976 q 551 890 507 935 q 596 771 596 844 q 576 673 596 726 q 514 554 557 619 q 609 490 574 526 q 644 401 644 454 q 617 301 644 358 q 532 167 590 243 q 495 116 518 144 q 447 60 472 88 q 403 17 422 33 q 375 1 383 0 m 419 618 q 366 720 419 679 q 218 765 313 761 q 210 714 214 742 q 204 656 207 686 q 315 622 261 638 q 417 590 369 607 q 419 618 419 604 m 164 256 q 463 218 257 256 q 469 240 469 231 q 444 281 469 258 q 356 333 419 304 q 175 401 292 363 q 166 313 169 351 q 160 256 163 275 l 164 256 z "},"Ḅ":{"ha":685,"x_min":-28,"x_max":644,"o":"m 375 1 q 245 20 303 15 q 143 25 188 25 q 24 14 63 25 q -18 0 -14 3 q -22 -1 -19 -1 q -28 10 -28 -1 q -16 69 -28 29 q 13 151 -4 110 q 43 217 29 193 q 54 336 47 265 q 69 483 61 407 q 86 626 78 558 q 101 735 94 693 q 111 758 103 746 q 57 747 85 754 q 52 765 46 744 q 75 816 58 785 q 113 880 92 847 q 151 936 133 913 q 179 961 169 960 q 299 976 236 976 q 439 956 371 976 q 551 890 507 935 q 596 771 596 844 q 576 673 596 726 q 514 554 557 619 q 609 490 574 526 q 644 401 644 454 q 617 301 644 358 q 532 167 590 243 q 495 116 518 144 q 447 60 472 88 q 403 17 422 33 q 375 1 383 0 m 419 618 q 366 720 419 679 q 218 765 313 761 q 210 714 214 742 q 204 656 207 686 q 315 622 261 638 q 417 590 369 607 q 419 618 419 604 m 164 256 q 463 218 257 256 q 469 240 469 231 q 444 281 469 258 q 356 333 419 304 q 175 401 292 363 q 166 313 169 351 q 160 256 163 275 l 164 256 m 260 -74 l 356 -178 q 343 -205 360 -183 q 301 -251 326 -226 q 256 -292 276 -275 q 231 -303 235 -308 l 135 -197 q 147 -171 131 -192 q 188 -125 163 -150 q 234 -84 213 -100 q 260 -74 256 -68 z "},"Ɓ":{"ha":932,"x_min":14,"x_max":892,"o":"m 622 1 q 492 20 550 15 q 390 25 435 25 q 272 14 310 25 q 229 0 233 3 q 219 10 219 -6 q 231 70 219 29 q 260 153 243 111 q 292 218 276 194 q 303 322 296 261 q 317 451 310 383 q 333 585 325 519 q 347 703 340 650 q 358 785 354 756 l 332 785 q 206 780 244 785 q 154 767 168 775 q 153 746 153 756 q 172 699 153 714 q 215 685 192 685 q 269 700 246 685 q 288 707 281 707 q 296 697 296 707 q 284 658 296 683 q 254 603 272 632 q 215 549 236 574 q 178 514 194 525 q 147 499 163 504 q 118 494 132 494 q 44 531 75 494 q 14 624 14 568 q 28 694 14 658 q 51 727 33 708 q 89 764 68 746 q 206 883 153 839 q 307 951 260 928 q 401 981 354 974 q 499 989 447 989 l 547 988 q 557 988 551 988 q 697 969 629 988 q 810 909 765 951 q 856 792 856 867 q 834 687 856 746 q 763 553 813 628 q 857 490 822 525 q 892 401 892 454 q 865 301 892 358 q 779 167 838 243 q 742 116 765 144 q 694 60 719 88 q 650 17 669 33 q 622 1 631 0 m 683 646 q 628 743 683 708 q 469 782 572 778 q 461 721 465 753 q 453 656 457 689 q 568 620 513 636 q 672 588 624 604 q 683 646 683 619 m 411 256 q 710 218 504 256 q 717 240 717 231 q 692 281 717 258 q 603 333 667 304 q 424 400 540 361 q 414 313 418 351 q 407 256 410 275 l 411 256 z "},"Ḇ":{"ha":685,"x_min":-28,"x_max":644,"o":"m 375 1 q 245 20 303 15 q 143 25 188 25 q 24 14 63 25 q -18 0 -14 3 q -22 -1 -19 -1 q -28 10 -28 -1 q -16 69 -28 29 q 13 151 -4 110 q 43 217 29 193 q 54 336 47 265 q 69 483 61 407 q 86 626 78 558 q 101 735 94 693 q 111 758 103 746 q 57 747 85 754 q 52 765 46 744 q 75 816 58 785 q 113 880 92 847 q 151 936 133 913 q 179 961 169 960 q 299 976 236 976 q 439 956 371 976 q 551 890 507 935 q 596 771 596 844 q 576 673 596 726 q 514 554 557 619 q 609 490 574 526 q 644 401 644 454 q 617 301 644 358 q 532 167 590 243 q 495 116 518 144 q 447 60 472 88 q 403 17 422 33 q 375 1 383 0 m 419 618 q 366 720 419 679 q 218 765 313 761 q 210 714 214 742 q 204 656 207 686 q 315 622 261 638 q 417 590 369 607 q 419 618 419 604 m 164 256 q 463 218 257 256 q 469 240 469 231 q 444 281 469 258 q 356 333 419 304 q 175 401 292 363 q 166 313 169 351 q 160 256 163 275 l 164 256 m 108 -47 l 429 -50 q 438 -67 438 -50 q 431 -108 438 -82 q 413 -159 424 -133 q 390 -202 401 -185 q 371 -219 379 -219 l 50 -217 q 42 -201 42 -217 q 49 -159 42 -185 q 67 -108 56 -133 q 89 -65 78 -82 q 108 -47 100 -47 z "},"Ƀ":{"ha":761,"x_min":-28,"x_max":721,"o":"m 451 1 q 322 20 379 15 q 219 25 264 25 q 101 14 139 25 q 58 0 63 3 q 54 -1 57 -1 q 49 10 49 -1 q 60 69 49 29 q 89 151 72 110 q 119 217 106 193 q 122 235 121 225 q 124 257 122 246 l -22 254 q -28 268 -28 254 q -17 324 -28 288 q 8 398 -7 360 q 37 463 22 436 q 61 490 51 490 l 147 492 q 163 629 154 564 q 178 735 171 694 q 188 758 179 746 q 133 747 161 754 q 128 765 122 744 q 151 816 135 785 q 189 880 168 847 q 228 936 210 913 q 256 961 246 960 q 375 976 313 976 q 515 956 447 976 q 628 890 583 935 q 672 771 672 844 q 653 673 672 726 q 590 554 633 619 q 685 490 650 526 q 721 401 721 454 q 694 301 721 358 q 608 167 667 243 q 572 116 594 144 q 524 60 549 88 q 479 17 499 33 q 451 1 460 0 m 496 618 q 442 720 496 679 q 294 765 389 761 q 287 714 290 742 q 281 656 283 686 q 392 622 338 638 q 493 590 446 607 q 496 618 496 604 m 240 256 q 539 218 333 256 q 546 240 546 231 q 521 281 546 258 q 432 333 496 304 q 251 401 368 363 q 242 313 246 351 q 236 256 239 275 l 240 256 z "},"C":{"ha":633,"x_min":14,"x_max":606,"o":"m 518 760 q 462 742 496 749 q 390 733 428 735 q 249 523 290 614 q 208 369 208 432 q 255 257 208 293 q 365 221 301 221 q 461 240 413 221 q 549 296 510 258 q 558 303 556 303 q 560 281 565 303 q 542 224 556 258 q 512 154 529 190 q 478 89 494 118 q 449 49 461 60 q 363 -4 411 14 q 264 -22 314 -22 q 144 5 201 -22 q 50 86 86 32 q 14 221 14 140 q 78 446 14 315 q 300 742 143 576 q 247 763 269 750 q 242 776 242 765 q 253 835 242 797 q 280 911 264 872 q 310 975 296 950 q 333 996 325 1000 q 393 976 358 982 q 464 969 428 969 q 596 993 546 969 q 600 994 597 994 q 606 981 606 994 q 596 928 606 963 q 572 857 586 894 q 544 792 558 819 q 518 760 529 764 z "},"Ć":{"ha":633,"x_min":14,"x_max":736,"o":"m 518 760 q 462 742 496 749 q 390 733 428 735 q 249 523 290 614 q 208 369 208 432 q 255 257 208 293 q 365 221 301 221 q 461 240 413 221 q 549 296 510 258 q 558 303 556 303 q 560 281 565 303 q 542 224 556 258 q 512 154 529 190 q 478 89 494 118 q 449 49 461 60 q 363 -4 411 14 q 264 -22 314 -22 q 144 5 201 -22 q 50 86 86 32 q 14 221 14 140 q 78 446 14 315 q 300 742 143 576 q 247 763 269 750 q 242 776 242 765 q 253 835 242 797 q 280 911 264 872 q 310 975 296 950 q 333 996 325 1000 q 393 976 358 982 q 464 969 428 969 q 596 993 546 969 q 600 994 597 994 q 606 981 606 994 q 596 928 606 963 q 572 857 586 894 q 544 792 558 819 q 518 760 529 764 m 411 1099 q 431 1133 418 1108 q 456 1187 443 1158 q 479 1235 469 1215 q 489 1256 489 1256 q 542 1294 504 1276 q 624 1322 581 1311 q 697 1332 667 1332 q 736 1315 736 1332 q 731 1300 736 1307 q 711 1277 729 1297 q 667 1229 693 1257 q 617 1174 642 1201 q 575 1128 592 1146 q 558 1110 558 1110 q 513 1085 549 1094 q 449 1075 478 1075 q 415 1081 426 1075 q 411 1099 403 1086 z "},"Č":{"ha":633,"x_min":14,"x_max":711,"o":"m 518 760 q 462 742 496 749 q 390 733 428 735 q 249 523 290 614 q 208 369 208 432 q 255 257 208 293 q 365 221 301 221 q 461 240 413 221 q 549 296 510 258 q 558 303 556 303 q 560 281 565 303 q 542 224 556 258 q 512 154 529 190 q 478 89 494 118 q 449 49 461 60 q 363 -4 411 14 q 264 -22 314 -22 q 144 5 201 -22 q 50 86 86 32 q 14 221 14 140 q 78 446 14 315 q 300 742 143 576 q 247 763 269 750 q 242 776 242 765 q 253 835 242 797 q 280 911 264 872 q 310 975 296 950 q 333 996 325 1000 q 393 976 358 982 q 464 969 428 969 q 596 993 546 969 q 600 994 597 994 q 606 981 606 994 q 596 928 606 963 q 572 857 586 894 q 544 792 558 819 q 518 760 529 764 m 456 1324 l 557 1215 l 614 1288 q 652 1318 629 1307 q 690 1329 675 1329 q 711 1315 711 1329 q 700 1290 711 1303 l 582 1140 q 564 1124 575 1131 q 510 1085 542 1101 q 457 1069 479 1069 q 436 1076 446 1069 l 303 1218 q 299 1232 299 1225 q 323 1273 299 1250 q 380 1313 347 1296 q 435 1331 413 1331 q 456 1324 446 1331 z "},"Ç":{"ha":633,"x_min":14,"x_max":606,"o":"m 518 760 q 462 742 496 749 q 390 733 428 735 q 249 523 290 614 q 208 369 208 432 q 255 257 208 293 q 365 221 301 221 q 461 240 413 221 q 549 296 510 258 q 558 303 556 303 q 560 281 565 303 q 542 224 556 258 q 512 154 529 190 q 478 89 494 118 q 449 49 461 60 q 363 -4 411 14 q 264 -22 314 -22 q 144 5 201 -22 q 50 86 86 32 q 14 221 14 140 q 78 446 14 315 q 300 742 143 576 q 247 763 269 750 q 242 776 242 765 q 253 835 242 797 q 280 911 264 872 q 310 975 296 950 q 333 996 325 1000 q 393 976 358 982 q 464 969 428 969 q 596 993 546 969 q 600 994 597 994 q 606 981 606 994 q 596 928 606 963 q 572 857 586 894 q 544 792 558 819 q 518 760 529 764 m 272 -35 q 257 -57 267 -43 q 346 -37 306 -37 q 405 -55 382 -37 q 428 -108 428 -72 q 411 -175 428 -137 q 385 -221 403 -196 q 368 -257 376 -240 q 273 -368 326 -333 q 158 -403 219 -403 q 40 -374 101 -403 q 42 -353 32 -369 q 70 -316 51 -337 q 111 -275 89 -294 q 151 -244 133 -256 q 176 -235 169 -232 q 212 -248 196 -244 q 242 -251 228 -251 q 304 -229 276 -251 q 272 -189 299 -201 q 214 -176 246 -176 q 172 -181 193 -176 q 135 -197 150 -186 q 99 -212 111 -212 q 90 -204 90 -212 q 106 -168 90 -190 q 164 -73 133 -125 q 231 35 194 -21 q 269 81 251 67 q 296 96 286 96 q 313 69 313 96 q 303 24 313 51 q 272 -35 293 -3 z "},"Ĉ":{"ha":633,"x_min":14,"x_max":715,"o":"m 518 760 q 462 742 496 749 q 390 733 428 735 q 249 523 290 614 q 208 369 208 432 q 255 257 208 293 q 365 221 301 221 q 461 240 413 221 q 549 296 510 258 q 558 303 556 303 q 560 281 565 303 q 542 224 556 258 q 512 154 529 190 q 478 89 494 118 q 449 49 461 60 q 363 -4 411 14 q 264 -22 314 -22 q 144 5 201 -22 q 50 86 86 32 q 14 221 14 140 q 78 446 14 315 q 300 742 143 576 q 247 763 269 750 q 242 776 242 765 q 253 835 242 797 q 280 911 264 872 q 310 975 296 950 q 333 996 325 1000 q 393 976 358 982 q 464 969 428 969 q 596 993 546 969 q 600 994 597 994 q 606 981 606 994 q 596 928 606 963 q 572 857 586 894 q 544 792 558 819 q 518 760 529 764 m 558 1057 l 457 1165 l 400 1093 q 362 1063 385 1074 q 324 1051 339 1051 q 303 1065 303 1051 q 314 1090 303 1078 l 432 1240 q 450 1257 439 1250 q 503 1295 472 1279 q 557 1311 535 1311 q 578 1304 568 1311 l 711 1163 q 715 1149 715 1157 q 691 1108 715 1131 q 635 1067 667 1085 q 579 1050 603 1050 q 558 1057 568 1050 z "},"Ċ":{"ha":633,"x_min":14,"x_max":618,"o":"m 518 760 q 462 742 496 749 q 390 733 428 735 q 249 523 290 614 q 208 369 208 432 q 255 257 208 293 q 365 221 301 221 q 461 240 413 221 q 549 296 510 258 q 558 303 556 303 q 560 281 565 303 q 542 224 556 258 q 512 154 529 190 q 478 89 494 118 q 449 49 461 60 q 363 -4 411 14 q 264 -22 314 -22 q 144 5 201 -22 q 50 86 86 32 q 14 221 14 140 q 78 446 14 315 q 300 742 143 576 q 247 763 269 750 q 242 776 242 765 q 253 835 242 797 q 280 911 264 872 q 310 975 296 950 q 333 996 325 1000 q 393 976 358 982 q 464 969 428 969 q 596 993 546 969 q 600 994 597 994 q 606 981 606 994 q 596 928 606 963 q 572 857 586 894 q 544 792 558 819 q 518 760 529 764 m 508 1321 l 614 1204 q 607 1183 618 1200 q 576 1144 596 1167 q 534 1103 556 1122 q 497 1072 513 1083 q 476 1065 481 1061 l 369 1182 q 377 1203 365 1186 q 409 1241 389 1219 q 451 1283 429 1263 q 488 1314 472 1303 q 508 1321 504 1325 z "},"Ƈ":{"ha":633,"x_min":14,"x_max":917,"o":"m 518 760 q 462 742 496 749 q 390 733 428 735 q 249 523 290 614 q 208 369 208 432 q 255 257 208 293 q 365 221 301 221 q 461 240 413 221 q 549 296 510 258 q 558 303 556 303 q 560 281 565 303 q 542 224 556 258 q 512 154 529 190 q 478 89 494 118 q 449 49 461 60 q 363 -4 411 14 q 264 -22 314 -22 q 144 5 201 -22 q 50 86 86 32 q 14 221 14 140 q 78 446 14 315 q 300 742 143 576 q 247 763 269 750 q 242 776 242 765 q 253 835 242 797 q 280 911 264 872 q 310 975 296 950 q 333 996 325 1000 q 399 975 360 982 q 413 1016 403 994 q 440 1060 422 1038 q 482 1115 456 1085 q 542 1171 508 1144 q 656 1249 600 1219 q 764 1278 713 1278 q 844 1254 807 1278 q 910 1178 881 1231 q 898 1140 917 1167 q 847 1080 879 1113 q 781 1019 815 1047 q 722 977 747 992 q 690 974 696 963 q 629 1047 661 1028 q 569 1065 597 1065 q 524 1056 544 1065 q 497 1040 504 1046 q 485 1009 490 1026 q 478 969 479 992 q 596 993 551 972 q 606 981 606 999 q 596 928 606 963 q 572 857 586 894 q 544 792 558 819 q 518 760 529 764 z "},"D":{"ha":697,"x_min":7,"x_max":636,"o":"m 376 -21 q 221 -7 283 -11 q 118 -3 158 -3 q 47 -8 67 -3 q 18 -19 26 -12 q 11 -22 15 -22 q 7 -11 7 -22 q 17 40 7 6 q 41 113 26 75 q 69 179 56 151 q 83 407 75 299 q 99 602 92 515 q 113 744 107 689 q 71 757 92 751 q 65 771 65 758 q 76 828 65 790 q 103 905 88 865 q 133 972 118 944 q 157 996 149 999 q 423 874 317 951 q 583 694 529 796 q 636 478 636 593 q 540 161 636 321 q 513 109 533 140 q 465 47 492 78 q 415 -3 439 17 q 376 -21 390 -22 m 504 338 q 477 467 504 400 q 387 595 450 533 q 214 706 324 657 q 201 482 210 608 q 183 235 192 356 q 294 220 226 232 q 474 194 363 208 q 496 262 488 225 q 504 338 504 299 z "},"Ď":{"ha":697,"x_min":7,"x_max":636,"o":"m 376 -21 q 221 -7 283 -11 q 118 -3 158 -3 q 47 -8 67 -3 q 18 -19 26 -12 q 11 -22 15 -22 q 7 -11 7 -22 q 17 40 7 6 q 41 113 26 75 q 69 179 56 151 q 83 407 75 299 q 99 602 92 515 q 113 744 107 689 q 71 757 92 751 q 65 771 65 758 q 76 828 65 790 q 103 905 88 865 q 133 972 118 944 q 157 996 149 999 q 423 874 317 951 q 583 694 529 796 q 636 478 636 593 q 540 161 636 321 q 513 109 533 140 q 465 47 492 78 q 415 -3 439 17 q 376 -21 390 -22 m 504 338 q 477 467 504 400 q 387 595 450 533 q 214 706 324 657 q 201 482 210 608 q 183 235 192 356 q 294 220 226 232 q 474 194 363 208 q 496 262 488 225 q 504 338 504 299 m 300 1267 l 401 1158 l 458 1231 q 497 1261 474 1250 q 535 1272 519 1272 q 556 1258 556 1272 q 544 1233 556 1246 l 426 1083 q 408 1067 419 1074 q 355 1028 386 1044 q 301 1013 324 1013 q 281 1019 290 1013 l 147 1161 q 143 1175 143 1168 q 167 1216 143 1193 q 224 1256 192 1239 q 279 1274 257 1274 q 300 1267 290 1274 z "},"Ḓ":{"ha":697,"x_min":7,"x_max":636,"o":"m 376 -21 q 221 -7 283 -11 q 118 -3 158 -3 q 47 -8 67 -3 q 18 -19 26 -12 q 11 -22 15 -22 q 7 -11 7 -22 q 17 40 7 6 q 41 113 26 75 q 69 179 56 151 q 83 407 75 299 q 99 602 92 515 q 113 744 107 689 q 71 757 92 751 q 65 771 65 758 q 76 828 65 790 q 103 905 88 865 q 133 972 118 944 q 157 996 149 999 q 423 874 317 951 q 583 694 529 796 q 636 478 636 593 q 540 161 636 321 q 513 109 533 140 q 465 47 492 78 q 415 -3 439 17 q 376 -21 390 -22 m 504 338 q 477 467 504 400 q 387 595 450 533 q 214 706 324 657 q 201 482 210 608 q 183 235 192 356 q 294 220 226 232 q 474 194 363 208 q 496 262 488 225 q 504 338 504 299 m 260 -275 l 169 -176 l 118 -242 q 84 -269 104 -260 q 49 -279 64 -279 q 31 -267 31 -279 q 40 -244 31 -256 l 147 -110 q 154 -101 150 -104 q 163 -94 158 -97 q 212 -60 183 -75 q 260 -46 240 -46 q 269 -47 265 -46 q 278 -51 274 -49 l 397 -179 q 401 -192 401 -185 q 380 -229 401 -208 q 329 -265 358 -250 q 279 -281 300 -281 q 260 -275 271 -281 z "},"Đ":{"ha":772,"x_min":14,"x_max":710,"o":"m 450 -21 q 294 -7 357 -11 q 192 -3 232 -3 q 120 -8 140 -3 q 92 -19 100 -12 q 85 -22 89 -22 q 81 -11 81 -22 q 90 40 81 6 q 115 113 100 75 q 143 179 129 151 q 157 407 149 299 q 173 602 165 515 q 186 744 181 689 q 144 757 165 751 q 139 771 139 758 q 150 828 139 790 q 176 905 161 865 q 207 972 192 944 q 231 996 222 999 q 497 874 390 951 q 656 694 603 796 q 710 478 710 593 q 614 161 710 321 q 586 109 607 140 q 539 47 565 78 q 488 -3 513 17 q 450 -21 464 -22 m 578 338 q 551 467 578 400 q 460 595 524 533 q 288 706 397 657 q 274 482 283 608 q 257 235 265 356 q 368 220 300 232 q 547 194 436 208 q 569 262 561 225 q 578 338 578 299 m 103 578 l 417 581 q 422 567 422 581 q 412 511 422 547 q 387 437 401 475 q 357 372 372 399 q 333 344 342 344 l 19 342 q 14 356 14 342 q 24 411 14 375 q 49 485 35 447 q 78 551 64 524 q 103 578 93 578 z "},"Ḋ":{"ha":697,"x_min":7,"x_max":636,"o":"m 376 -21 q 221 -7 283 -11 q 118 -3 158 -3 q 47 -8 67 -3 q 18 -19 26 -12 q 11 -22 15 -22 q 7 -11 7 -22 q 17 40 7 6 q 41 113 26 75 q 69 179 56 151 q 83 407 75 299 q 99 602 92 515 q 113 744 107 689 q 71 757 92 751 q 65 771 65 758 q 76 828 65 790 q 103 905 88 865 q 133 972 118 944 q 157 996 149 999 q 423 874 317 951 q 583 694 529 796 q 636 478 636 593 q 540 161 636 321 q 513 109 533 140 q 465 47 492 78 q 415 -3 439 17 q 376 -21 390 -22 m 504 338 q 477 467 504 400 q 387 595 450 533 q 214 706 324 657 q 201 482 210 608 q 183 235 192 356 q 294 220 226 232 q 474 194 363 208 q 496 262 488 225 q 504 338 504 299 m 353 1264 l 458 1147 q 451 1126 463 1143 q 420 1088 440 1110 q 378 1046 400 1065 q 341 1015 357 1026 q 321 1008 325 1004 l 214 1125 q 222 1146 210 1129 q 253 1184 233 1163 q 295 1226 274 1206 q 333 1257 317 1246 q 353 1264 349 1268 z "},"Ḍ":{"ha":697,"x_min":7,"x_max":636,"o":"m 376 -21 q 221 -7 283 -11 q 118 -3 158 -3 q 47 -8 67 -3 q 18 -19 26 -12 q 11 -22 15 -22 q 7 -11 7 -22 q 17 40 7 6 q 41 113 26 75 q 69 179 56 151 q 83 407 75 299 q 99 602 92 515 q 113 744 107 689 q 71 757 92 751 q 65 771 65 758 q 76 828 65 790 q 103 905 88 865 q 133 972 118 944 q 157 996 149 999 q 423 874 317 951 q 583 694 529 796 q 636 478 636 593 q 540 161 636 321 q 513 109 533 140 q 465 47 492 78 q 415 -3 439 17 q 376 -21 390 -22 m 504 338 q 477 467 504 400 q 387 595 450 533 q 214 706 324 657 q 201 482 210 608 q 183 235 192 356 q 294 220 226 232 q 474 194 363 208 q 496 262 488 225 q 504 338 504 299 m 250 -74 l 346 -178 q 333 -205 350 -183 q 292 -251 317 -226 q 246 -292 267 -275 q 221 -303 225 -308 l 125 -197 q 137 -171 121 -192 q 178 -125 153 -150 q 224 -84 203 -100 q 250 -74 246 -68 z "},"Ɗ":{"ha":954,"x_min":28,"x_max":893,"o":"m 640 -21 q 488 -8 549 -11 q 389 -4 428 -4 q 317 -8 338 -4 q 290 -19 297 -12 q 279 -11 279 -29 q 289 40 279 6 q 313 111 299 74 q 340 176 326 149 q 356 417 347 303 q 372 620 364 532 q 385 757 381 708 q 363 758 374 757 q 294 763 324 761 q 242 765 265 765 q 172 756 192 765 q 167 719 167 738 q 186 673 167 688 q 229 658 206 658 q 283 674 260 658 q 301 681 294 681 q 310 671 310 681 q 298 631 310 657 q 268 576 286 606 q 229 523 250 547 q 192 488 208 499 q 161 473 176 478 q 132 468 146 468 q 58 505 89 468 q 28 597 28 542 q 40 665 28 632 q 40 667 40 665 q 61 700 40 678 q 203 856 140 799 q 313 943 265 914 q 397 981 361 972 q 457 990 432 990 l 488 989 q 671 938 594 981 q 797 826 747 894 q 869 674 846 758 q 893 501 893 590 q 870 318 893 408 q 803 158 847 228 q 774 106 796 136 q 727 45 753 75 q 677 -3 701 15 q 640 -21 653 -22 m 768 358 q 741 509 768 433 q 653 646 714 585 q 486 738 592 707 q 479 590 485 674 q 467 413 474 506 q 454 233 460 321 q 562 219 496 231 q 736 194 628 208 q 760 271 751 229 q 768 358 768 313 z "},"Ḏ":{"ha":697,"x_min":7,"x_max":636,"o":"m 376 -21 q 221 -7 283 -11 q 118 -3 158 -3 q 47 -8 67 -3 q 18 -19 26 -12 q 11 -22 15 -22 q 7 -11 7 -22 q 17 40 7 6 q 41 113 26 75 q 69 179 56 151 q 83 407 75 299 q 99 602 92 515 q 113 744 107 689 q 71 757 92 751 q 65 771 65 758 q 76 828 65 790 q 103 905 88 865 q 133 972 118 944 q 157 996 149 999 q 423 874 317 951 q 583 694 529 796 q 636 478 636 593 q 540 161 636 321 q 513 109 533 140 q 465 47 492 78 q 415 -3 439 17 q 376 -21 390 -22 m 504 338 q 477 467 504 400 q 387 595 450 533 q 214 706 324 657 q 201 482 210 608 q 183 235 192 356 q 294 220 226 232 q 474 194 363 208 q 496 262 488 225 q 504 338 504 299 m 99 -47 l 419 -50 q 428 -67 428 -50 q 421 -108 428 -82 q 403 -159 414 -133 q 381 -202 392 -185 q 361 -219 369 -219 l 40 -217 q 32 -201 32 -217 q 39 -159 32 -185 q 57 -108 46 -133 q 79 -65 68 -82 q 99 -47 90 -47 z "},"Ɖ":{"ha":729,"x_min":-28,"x_max":668,"o":"m 408 -21 q 253 -7 315 -11 q 150 -3 190 -3 q 78 -8 99 -3 q 50 -19 58 -12 q 43 -22 47 -22 q 39 -11 39 -22 q 49 40 39 6 q 73 113 58 75 q 101 179 88 151 q 115 407 107 299 q 131 602 124 515 q 144 744 139 689 q 103 757 124 751 q 97 771 97 758 q 108 828 97 790 q 135 905 119 865 q 165 972 150 944 q 189 996 181 999 q 455 874 349 951 q 615 694 561 796 q 668 478 668 593 q 572 161 668 321 q 544 109 565 140 q 497 47 524 78 q 447 -3 471 17 q 408 -21 422 -22 m 536 338 q 509 467 536 400 q 419 595 482 533 q 246 706 356 657 q 233 482 242 608 q 215 235 224 356 q 326 220 258 232 q 506 194 394 208 q 528 262 519 225 q 536 338 536 299 m 61 578 l 375 581 q 381 567 381 581 q 370 511 381 547 q 345 437 360 475 q 315 372 331 399 q 292 344 300 344 l -22 342 q -28 356 -28 342 q -17 411 -28 375 q 8 485 -7 447 q 37 551 22 524 q 61 578 51 578 z "},"Ð":{"ha":772,"x_min":14,"x_max":710,"o":"m 450 -21 q 294 -7 357 -11 q 192 -3 232 -3 q 120 -8 140 -3 q 92 -19 100 -12 q 85 -22 89 -22 q 81 -11 81 -22 q 90 40 81 6 q 115 113 100 75 q 143 179 129 151 q 157 407 149 299 q 173 602 165 515 q 186 744 181 689 q 144 757 165 751 q 139 771 139 758 q 150 828 139 790 q 176 905 161 865 q 207 972 192 944 q 231 996 222 999 q 497 874 390 951 q 656 694 603 796 q 710 478 710 593 q 614 161 710 321 q 586 109 607 140 q 539 47 565 78 q 488 -3 513 17 q 450 -21 464 -22 m 578 338 q 551 467 578 400 q 460 595 524 533 q 288 706 397 657 q 274 482 283 608 q 257 235 265 356 q 368 220 300 232 q 547 194 436 208 q 569 262 561 225 q 578 338 578 299 m 103 578 l 417 581 q 422 567 422 581 q 412 511 422 547 q 387 437 401 475 q 357 372 372 399 q 333 344 342 344 l 19 342 q 14 356 14 342 q 24 411 14 375 q 49 485 35 447 q 78 551 64 524 q 103 578 93 578 z "},"E":{"ha":701,"x_min":54,"x_max":674,"o":"m 604 736 q 564 721 590 725 q 506 717 538 717 q 385 724 451 717 q 257 733 318 731 q 252 671 254 701 q 249 608 250 640 l 596 610 q 601 596 601 610 q 591 540 601 576 q 566 466 581 504 q 536 401 551 428 q 513 374 521 374 l 233 372 q 227 286 231 329 q 219 200 224 243 q 270 215 246 210 q 319 221 294 221 q 358 217 339 221 q 396 206 376 214 q 452 190 418 197 q 522 182 486 182 q 551 183 538 182 q 579 189 565 185 q 587 176 593 193 q 562 129 581 158 q 519 69 543 100 q 472 17 494 39 q 438 -8 450 -6 q 368 -18 404 -18 q 301 -10 332 -18 q 249 6 269 -3 q 179 21 208 21 q 133 12 154 21 q 81 -10 111 3 q 76 -10 79 -10 q 69 -11 72 -11 q 59 -8 64 -11 q 56 8 54 -4 q 76 191 65 100 q 100 372 88 282 l 64 372 q 58 386 58 372 q 70 446 58 406 q 98 527 82 486 q 129 590 114 568 q 138 658 133 624 q 144 725 142 692 q 101 706 118 718 q 97 703 99 703 q 92 718 92 703 q 99 771 92 738 q 116 841 106 804 q 138 906 126 878 q 160 942 150 933 q 222 968 183 961 q 307 975 260 975 q 453 967 376 975 q 585 958 529 958 q 663 972 643 958 q 668 975 668 975 q 674 958 674 975 q 666 906 674 940 q 647 835 658 871 q 624 771 636 799 q 604 736 613 743 z "},"É":{"ha":701,"x_min":54,"x_max":686,"o":"m 604 736 q 564 721 590 725 q 506 717 538 717 q 385 724 451 717 q 257 733 318 731 q 252 671 254 701 q 249 608 250 640 l 596 610 q 601 596 601 610 q 591 540 601 576 q 566 466 581 504 q 536 401 551 428 q 513 374 521 374 l 233 372 q 227 286 231 329 q 219 200 224 243 q 270 215 246 210 q 319 221 294 221 q 358 217 339 221 q 396 206 376 214 q 452 190 418 197 q 522 182 486 182 q 551 183 538 182 q 579 189 565 185 q 587 176 593 193 q 562 129 581 158 q 519 69 543 100 q 472 17 494 39 q 438 -8 450 -6 q 368 -18 404 -18 q 301 -10 332 -18 q 249 6 269 -3 q 179 21 208 21 q 133 12 154 21 q 81 -10 111 3 q 76 -10 79 -10 q 69 -11 72 -11 q 59 -8 64 -11 q 56 8 54 -4 q 76 191 65 100 q 100 372 88 282 l 64 372 q 58 386 58 372 q 70 446 58 406 q 98 527 82 486 q 129 590 114 568 q 138 658 133 624 q 144 725 142 692 q 101 706 118 718 q 97 703 99 703 q 92 718 92 703 q 99 771 92 738 q 116 841 106 804 q 138 906 126 878 q 160 942 150 933 q 222 968 183 961 q 307 975 260 975 q 453 967 376 975 q 585 958 529 958 q 663 972 643 958 q 668 975 668 975 q 674 958 674 975 q 666 906 674 940 q 647 835 658 871 q 624 771 636 799 q 604 736 613 743 m 361 1058 q 381 1093 368 1068 q 406 1147 393 1118 q 429 1195 419 1175 q 439 1215 439 1215 q 492 1253 454 1236 q 574 1281 531 1271 q 647 1292 617 1292 q 686 1275 686 1292 q 681 1260 686 1267 q 661 1237 679 1257 q 617 1189 643 1217 q 567 1133 592 1161 q 525 1088 542 1106 q 508 1069 508 1069 q 463 1044 499 1054 q 399 1035 428 1035 q 365 1040 376 1035 q 361 1058 353 1046 z "},"Ě":{"ha":701,"x_min":54,"x_max":674,"o":"m 604 736 q 564 721 590 725 q 506 717 538 717 q 385 724 451 717 q 257 733 318 731 q 252 671 254 701 q 249 608 250 640 l 596 610 q 601 596 601 610 q 591 540 601 576 q 566 466 581 504 q 536 401 551 428 q 513 374 521 374 l 233 372 q 227 286 231 329 q 219 200 224 243 q 270 215 246 210 q 319 221 294 221 q 358 217 339 221 q 396 206 376 214 q 452 190 418 197 q 522 182 486 182 q 551 183 538 182 q 579 189 565 185 q 587 176 593 193 q 562 129 581 158 q 519 69 543 100 q 472 17 494 39 q 438 -8 450 -6 q 368 -18 404 -18 q 301 -10 332 -18 q 249 6 269 -3 q 179 21 208 21 q 133 12 154 21 q 81 -10 111 3 q 76 -10 79 -10 q 69 -11 72 -11 q 59 -8 64 -11 q 56 8 54 -4 q 76 191 65 100 q 100 372 88 282 l 64 372 q 58 386 58 372 q 70 446 58 406 q 98 527 82 486 q 129 590 114 568 q 138 658 133 624 q 144 725 142 692 q 101 706 118 718 q 97 703 99 703 q 92 718 92 703 q 99 771 92 738 q 116 841 106 804 q 138 906 126 878 q 160 942 150 933 q 222 968 183 961 q 307 975 260 975 q 453 967 376 975 q 585 958 529 958 q 663 972 643 958 q 668 975 668 975 q 674 958 674 975 q 666 906 674 940 q 647 835 658 871 q 624 771 636 799 q 604 736 613 743 m 406 1283 l 507 1175 l 564 1247 q 602 1278 579 1267 q 640 1289 625 1289 q 661 1275 661 1289 q 650 1250 661 1263 l 532 1100 q 514 1083 525 1090 q 460 1045 492 1061 q 407 1029 429 1029 q 386 1036 396 1029 l 253 1178 q 249 1192 249 1185 q 273 1233 249 1210 q 330 1273 297 1256 q 385 1290 363 1290 q 406 1283 396 1290 z "},"Ȩ":{"ha":701,"x_min":54,"x_max":674,"o":"m 604 736 q 564 721 590 725 q 506 717 538 717 q 385 724 451 717 q 257 733 318 731 q 252 671 254 701 q 249 608 250 640 l 596 610 q 601 596 601 610 q 591 540 601 576 q 566 466 581 504 q 536 401 551 428 q 513 374 521 374 l 233 372 q 227 286 231 329 q 219 200 224 243 q 270 215 246 210 q 319 221 294 221 q 358 217 339 221 q 396 206 376 214 q 452 190 418 197 q 522 182 486 182 q 551 183 538 182 q 579 189 565 185 q 587 176 593 193 q 562 129 581 158 q 519 69 543 100 q 472 17 494 39 q 438 -8 450 -6 q 368 -18 404 -18 q 301 -10 332 -18 q 249 6 269 -3 q 179 21 208 21 q 133 12 154 21 q 81 -10 111 3 q 76 -10 79 -10 q 69 -11 72 -11 q 59 -8 64 -11 q 56 8 54 -4 q 76 191 65 100 q 100 372 88 282 l 64 372 q 58 386 58 372 q 70 446 58 406 q 98 527 82 486 q 129 590 114 568 q 138 658 133 624 q 144 725 142 692 q 101 706 118 718 q 97 703 99 703 q 92 718 92 703 q 99 771 92 738 q 116 841 106 804 q 138 906 126 878 q 160 942 150 933 q 222 968 183 961 q 307 975 260 975 q 453 967 376 975 q 585 958 529 958 q 663 972 643 958 q 668 975 668 975 q 674 958 674 975 q 666 906 674 940 q 647 835 658 871 q 624 771 636 799 q 604 736 613 743 m 300 -32 q 285 -54 294 -40 q 374 -35 333 -35 q 433 -52 410 -35 q 456 -106 456 -69 q 439 -172 456 -135 q 413 -218 431 -193 q 396 -254 404 -237 q 301 -365 354 -331 q 186 -400 247 -400 q 68 -371 129 -400 q 69 -351 60 -367 q 98 -313 79 -335 q 139 -272 117 -292 q 179 -241 161 -253 q 204 -232 197 -229 q 240 -245 224 -242 q 269 -249 256 -249 q 332 -226 304 -249 q 300 -186 326 -199 q 242 -174 274 -174 q 199 -178 221 -174 q 163 -194 178 -183 q 126 -210 139 -210 q 118 -201 118 -210 q 133 -165 118 -187 q 192 -70 161 -122 q 258 38 222 -18 q 297 84 279 69 q 324 99 314 99 q 340 72 340 99 q 331 27 340 54 q 300 -32 321 0 z "},"Ê":{"ha":701,"x_min":54,"x_max":674,"o":"m 604 736 q 564 721 590 725 q 506 717 538 717 q 385 724 451 717 q 257 733 318 731 q 252 671 254 701 q 249 608 250 640 l 596 610 q 601 596 601 610 q 591 540 601 576 q 566 466 581 504 q 536 401 551 428 q 513 374 521 374 l 233 372 q 227 286 231 329 q 219 200 224 243 q 270 215 246 210 q 319 221 294 221 q 358 217 339 221 q 396 206 376 214 q 452 190 418 197 q 522 182 486 182 q 551 183 538 182 q 579 189 565 185 q 587 176 593 193 q 562 129 581 158 q 519 69 543 100 q 472 17 494 39 q 438 -8 450 -6 q 368 -18 404 -18 q 301 -10 332 -18 q 249 6 269 -3 q 179 21 208 21 q 133 12 154 21 q 81 -10 111 3 q 76 -10 79 -10 q 69 -11 72 -11 q 59 -8 64 -11 q 56 8 54 -4 q 76 191 65 100 q 100 372 88 282 l 64 372 q 58 386 58 372 q 70 446 58 406 q 98 527 82 486 q 129 590 114 568 q 138 658 133 624 q 144 725 142 692 q 101 706 118 718 q 97 703 99 703 q 92 718 92 703 q 99 771 92 738 q 116 841 106 804 q 138 906 126 878 q 160 942 150 933 q 222 968 183 961 q 307 975 260 975 q 453 967 376 975 q 585 958 529 958 q 663 972 643 958 q 668 975 668 975 q 674 958 674 975 q 666 906 674 940 q 647 835 658 871 q 624 771 636 799 q 604 736 613 743 m 508 1017 l 407 1125 l 350 1053 q 312 1022 335 1033 q 274 1011 289 1011 q 253 1025 253 1011 q 264 1050 253 1038 l 382 1200 q 400 1217 389 1210 q 453 1255 422 1239 q 507 1271 485 1271 q 528 1264 518 1271 l 661 1122 q 665 1108 665 1117 q 641 1067 665 1090 q 585 1027 617 1044 q 529 1010 553 1010 q 508 1017 518 1010 z "},"Ế":{"ha":701,"x_min":54,"x_max":674,"o":"m 604 736 q 564 721 590 725 q 506 717 538 717 q 385 724 451 717 q 257 733 318 731 q 252 671 254 701 q 249 608 250 640 l 596 610 q 601 596 601 610 q 591 540 601 576 q 566 466 581 504 q 536 401 551 428 q 513 374 521 374 l 233 372 q 227 286 231 329 q 219 200 224 243 q 270 215 246 210 q 319 221 294 221 q 358 217 339 221 q 396 206 376 214 q 452 190 418 197 q 522 182 486 182 q 551 183 538 182 q 579 189 565 185 q 587 176 593 193 q 562 129 581 158 q 519 69 543 100 q 472 17 494 39 q 438 -8 450 -6 q 368 -18 404 -18 q 301 -10 332 -18 q 249 6 269 -3 q 179 21 208 21 q 133 12 154 21 q 81 -10 111 3 q 76 -10 79 -10 q 69 -11 72 -11 q 59 -8 64 -11 q 56 8 54 -4 q 76 191 65 100 q 100 372 88 282 l 64 372 q 58 386 58 372 q 70 446 58 406 q 98 527 82 486 q 129 590 114 568 q 138 658 133 624 q 144 725 142 692 q 101 706 118 718 q 97 703 99 703 q 92 718 92 703 q 99 771 92 738 q 116 841 106 804 q 138 906 126 878 q 160 942 150 933 q 222 968 183 961 q 307 975 260 975 q 453 967 376 975 q 585 958 529 958 q 663 972 643 958 q 668 975 668 975 q 674 958 674 975 q 666 906 674 940 q 647 835 658 871 q 624 771 636 799 q 604 736 613 743 m 122 1113 q 140 1144 128 1121 q 164 1192 151 1167 q 185 1236 176 1218 q 193 1254 193 1254 q 241 1289 207 1274 q 314 1314 275 1304 q 381 1324 353 1324 q 415 1308 415 1324 q 410 1294 415 1300 q 392 1274 408 1292 q 353 1231 376 1256 q 308 1181 331 1206 q 271 1140 286 1157 q 256 1124 256 1124 q 215 1101 246 1110 q 157 1092 183 1092 q 126 1097 138 1092 q 122 1113 115 1103 m 511 1028 l 419 1124 l 369 1060 q 335 1032 356 1042 q 300 1022 315 1022 q 282 1035 282 1022 q 292 1057 282 1046 l 397 1190 q 451 1235 415 1214 q 511 1256 486 1256 q 521 1254 517 1256 q 529 1250 525 1253 l 649 1122 q 653 1110 653 1117 q 631 1073 653 1094 q 581 1036 610 1051 q 531 1021 551 1021 q 511 1028 521 1021 z "},"Ệ":{"ha":701,"x_min":54,"x_max":674,"o":"m 604 736 q 564 721 590 725 q 506 717 538 717 q 385 724 451 717 q 257 733 318 731 q 252 671 254 701 q 249 608 250 640 l 596 610 q 601 596 601 610 q 591 540 601 576 q 566 466 581 504 q 536 401 551 428 q 513 374 521 374 l 233 372 q 227 286 231 329 q 219 200 224 243 q 270 215 246 210 q 319 221 294 221 q 358 217 339 221 q 396 206 376 214 q 452 190 418 197 q 522 182 486 182 q 551 183 538 182 q 579 189 565 185 q 587 176 593 193 q 562 129 581 158 q 519 69 543 100 q 472 17 494 39 q 438 -8 450 -6 q 368 -18 404 -18 q 301 -10 332 -18 q 249 6 269 -3 q 179 21 208 21 q 133 12 154 21 q 81 -10 111 3 q 76 -10 79 -10 q 69 -11 72 -11 q 59 -8 64 -11 q 56 8 54 -4 q 76 191 65 100 q 100 372 88 282 l 64 372 q 58 386 58 372 q 70 446 58 406 q 98 527 82 486 q 129 590 114 568 q 138 658 133 624 q 144 725 142 692 q 101 706 118 718 q 97 703 99 703 q 92 718 92 703 q 99 771 92 738 q 116 841 106 804 q 138 906 126 878 q 160 942 150 933 q 222 968 183 961 q 307 975 260 975 q 453 967 376 975 q 585 958 529 958 q 663 972 643 958 q 668 975 668 975 q 674 958 674 975 q 666 906 674 940 q 647 835 658 871 q 624 771 636 799 q 604 736 613 743 m 278 -71 l 374 -175 q 361 -202 378 -181 q 319 -248 344 -224 q 274 -289 294 -272 q 249 -300 253 -306 l 153 -194 q 165 -168 149 -189 q 206 -122 181 -147 q 252 -81 231 -97 q 278 -71 274 -65 m 508 1017 l 407 1125 l 350 1053 q 312 1022 335 1033 q 274 1011 289 1011 q 253 1025 253 1011 q 264 1050 253 1038 l 382 1200 q 400 1217 389 1210 q 453 1255 422 1239 q 507 1271 485 1271 q 528 1264 518 1271 l 661 1122 q 665 1108 665 1117 q 641 1067 665 1090 q 585 1027 617 1044 q 529 1010 553 1010 q 508 1017 518 1010 z "},"Ề":{"ha":701,"x_min":54,"x_max":813,"o":"m 604 736 q 564 721 590 725 q 506 717 538 717 q 385 724 451 717 q 257 733 318 731 q 252 671 254 701 q 249 608 250 640 l 596 610 q 601 596 601 610 q 591 540 601 576 q 566 466 581 504 q 536 401 551 428 q 513 374 521 374 l 233 372 q 227 286 231 329 q 219 200 224 243 q 270 215 246 210 q 319 221 294 221 q 358 217 339 221 q 396 206 376 214 q 452 190 418 197 q 522 182 486 182 q 551 183 538 182 q 579 189 565 185 q 587 176 593 193 q 562 129 581 158 q 519 69 543 100 q 472 17 494 39 q 438 -8 450 -6 q 368 -18 404 -18 q 301 -10 332 -18 q 249 6 269 -3 q 179 21 208 21 q 133 12 154 21 q 81 -10 111 3 q 76 -10 79 -10 q 69 -11 72 -11 q 59 -8 64 -11 q 56 8 54 -4 q 76 191 65 100 q 100 372 88 282 l 64 372 q 58 386 58 372 q 70 446 58 406 q 98 527 82 486 q 129 590 114 568 q 138 658 133 624 q 144 725 142 692 q 101 706 118 718 q 97 703 99 703 q 92 718 92 703 q 99 771 92 738 q 116 841 106 804 q 138 906 126 878 q 160 942 150 933 q 222 968 183 961 q 307 975 260 975 q 453 967 376 975 q 585 958 529 958 q 663 972 643 958 q 668 975 668 975 q 674 958 674 975 q 666 906 674 940 q 647 835 658 871 q 624 771 636 799 q 604 736 613 743 m 806 1167 q 801 1151 813 1157 q 771 1146 790 1146 q 713 1155 744 1146 q 672 1178 682 1164 q 657 1194 672 1178 q 619 1235 642 1211 q 574 1285 597 1260 q 535 1328 551 1310 q 518 1349 519 1346 q 513 1363 513 1354 q 547 1378 513 1378 q 614 1368 575 1378 q 688 1343 653 1358 q 735 1308 722 1328 q 743 1290 735 1308 q 764 1247 751 1272 q 788 1198 776 1221 q 806 1167 800 1175 m 503 1028 l 411 1124 l 361 1060 q 327 1032 347 1042 q 292 1022 307 1022 q 274 1035 274 1022 q 283 1057 274 1046 l 389 1190 q 442 1235 407 1214 q 503 1256 478 1256 q 513 1254 508 1256 q 521 1250 517 1253 l 640 1122 q 644 1110 644 1117 q 623 1073 644 1094 q 572 1036 601 1051 q 522 1021 543 1021 q 503 1028 513 1021 z "},"Ể":{"ha":701,"x_min":54,"x_max":814,"o":"m 604 736 q 564 721 590 725 q 506 717 538 717 q 385 724 451 717 q 257 733 318 731 q 252 671 254 701 q 249 608 250 640 l 596 610 q 601 596 601 610 q 591 540 601 576 q 566 466 581 504 q 536 401 551 428 q 513 374 521 374 l 233 372 q 227 286 231 329 q 219 200 224 243 q 270 215 246 210 q 319 221 294 221 q 358 217 339 221 q 396 206 376 214 q 452 190 418 197 q 522 182 486 182 q 551 183 538 182 q 579 189 565 185 q 587 176 593 193 q 562 129 581 158 q 519 69 543 100 q 472 17 494 39 q 438 -8 450 -6 q 368 -18 404 -18 q 301 -10 332 -18 q 249 6 269 -3 q 179 21 208 21 q 133 12 154 21 q 81 -10 111 3 q 76 -10 79 -10 q 69 -11 72 -11 q 59 -8 64 -11 q 56 8 54 -4 q 76 191 65 100 q 100 372 88 282 l 64 372 q 58 386 58 372 q 70 446 58 406 q 98 527 82 486 q 129 590 114 568 q 138 658 133 624 q 144 725 142 692 q 101 706 118 718 q 97 703 99 703 q 92 718 92 703 q 99 771 92 738 q 116 841 106 804 q 138 906 126 878 q 160 942 150 933 q 222 968 183 961 q 307 975 260 975 q 453 967 376 975 q 585 958 529 958 q 663 972 643 958 q 668 975 668 975 q 674 958 674 975 q 666 906 674 940 q 647 835 658 871 q 624 771 636 799 q 604 736 613 743 m 656 1222 q 681 1264 681 1251 q 649 1281 681 1281 q 622 1278 636 1281 q 590 1274 607 1276 q 588 1273 589 1274 q 585 1272 586 1272 q 575 1286 575 1272 q 585 1326 575 1301 q 611 1377 596 1351 q 642 1422 626 1403 q 671 1443 658 1442 q 682 1445 676 1444 q 693 1446 688 1446 q 749 1434 721 1446 q 795 1400 776 1422 q 814 1346 814 1378 q 803 1301 814 1325 q 769 1250 793 1278 q 713 1210 747 1225 q 658 1194 678 1194 q 644 1203 644 1194 q 656 1222 644 1211 m 503 1028 l 411 1124 l 361 1060 q 327 1032 347 1042 q 292 1022 307 1022 q 274 1035 274 1022 q 283 1057 274 1046 l 389 1190 q 442 1235 407 1214 q 503 1256 478 1256 q 513 1254 508 1256 q 521 1250 517 1253 l 640 1122 q 644 1110 644 1117 q 623 1073 644 1094 q 572 1036 601 1051 q 522 1021 543 1021 q 503 1028 513 1021 z "},"Ễ":{"ha":701,"x_min":54,"x_max":674,"o":"m 604 736 q 564 721 590 725 q 506 717 538 717 q 385 724 451 717 q 257 733 318 731 q 252 671 254 701 q 249 608 250 640 l 596 610 q 601 596 601 610 q 591 540 601 576 q 566 466 581 504 q 536 401 551 428 q 513 374 521 374 l 233 372 q 227 286 231 329 q 219 200 224 243 q 270 215 246 210 q 319 221 294 221 q 358 217 339 221 q 396 206 376 214 q 452 190 418 197 q 522 182 486 182 q 551 183 538 182 q 579 189 565 185 q 587 176 593 193 q 562 129 581 158 q 519 69 543 100 q 472 17 494 39 q 438 -8 450 -6 q 368 -18 404 -18 q 301 -10 332 -18 q 249 6 269 -3 q 179 21 208 21 q 133 12 154 21 q 81 -10 111 3 q 76 -10 79 -10 q 69 -11 72 -11 q 59 -8 64 -11 q 56 8 54 -4 q 76 191 65 100 q 100 372 88 282 l 64 372 q 58 386 58 372 q 70 446 58 406 q 98 527 82 486 q 129 590 114 568 q 138 658 133 624 q 144 725 142 692 q 101 706 118 718 q 97 703 99 703 q 92 718 92 703 q 99 771 92 738 q 116 841 106 804 q 138 906 126 878 q 160 942 150 933 q 222 968 183 961 q 307 975 260 975 q 453 967 376 975 q 585 958 529 958 q 663 972 643 958 q 668 975 668 975 q 674 958 674 975 q 666 906 674 940 q 647 835 658 871 q 624 771 636 799 q 604 736 613 743 m 592 1353 q 514 1311 554 1311 q 492 1315 503 1311 q 464 1335 476 1321 q 441 1363 451 1349 q 419 1379 431 1376 q 408 1382 414 1382 q 389 1375 400 1382 q 358 1349 378 1368 q 342 1336 349 1336 q 336 1351 336 1336 q 348 1403 336 1369 q 378 1454 360 1436 q 427 1494 406 1485 q 464 1504 449 1504 q 482 1500 476 1504 q 510 1481 499 1494 q 533 1453 522 1467 q 554 1436 543 1440 l 567 1436 q 613 1461 590 1436 q 629 1471 621 1471 q 635 1457 635 1471 q 623 1405 635 1439 q 592 1353 611 1371 m 504 1051 l 413 1149 l 361 1085 q 327 1057 347 1067 q 293 1047 307 1047 q 274 1060 274 1047 q 283 1082 274 1071 l 390 1217 q 404 1231 396 1225 q 453 1265 425 1250 q 503 1281 482 1281 q 521 1275 513 1281 l 642 1147 q 644 1135 644 1143 q 623 1097 644 1118 q 572 1061 601 1076 q 522 1046 543 1046 q 504 1051 513 1046 z "},"Ȅ":{"ha":701,"x_min":54,"x_max":700,"o":"m 604 736 q 564 721 590 725 q 506 717 538 717 q 385 724 451 717 q 257 733 318 731 q 252 671 254 701 q 249 608 250 640 l 596 610 q 601 596 601 610 q 591 540 601 576 q 566 466 581 504 q 536 401 551 428 q 513 374 521 374 l 233 372 q 227 286 231 329 q 219 200 224 243 q 270 215 246 210 q 319 221 294 221 q 358 217 339 221 q 396 206 376 214 q 452 190 418 197 q 522 182 486 182 q 551 183 538 182 q 579 189 565 185 q 587 176 593 193 q 562 129 581 158 q 519 69 543 100 q 472 17 494 39 q 438 -8 450 -6 q 368 -18 404 -18 q 301 -10 332 -18 q 249 6 269 -3 q 179 21 208 21 q 133 12 154 21 q 81 -10 111 3 q 76 -10 79 -10 q 69 -11 72 -11 q 59 -8 64 -11 q 56 8 54 -4 q 76 191 65 100 q 100 372 88 282 l 64 372 q 58 386 58 372 q 70 446 58 406 q 98 527 82 486 q 129 590 114 568 q 138 658 133 624 q 144 725 142 692 q 101 706 118 718 q 97 703 99 703 q 92 718 92 703 q 99 771 92 738 q 116 841 106 804 q 138 906 126 878 q 160 942 150 933 q 222 968 183 961 q 307 975 260 975 q 453 967 376 975 q 585 958 529 958 q 663 972 643 958 q 668 975 668 975 q 674 958 674 975 q 666 906 674 940 q 647 835 658 871 q 624 771 636 799 q 604 736 613 743 m 444 1075 q 441 1057 453 1063 q 407 1051 429 1051 q 343 1061 378 1051 q 297 1086 308 1071 q 281 1104 297 1086 q 239 1150 264 1122 q 188 1206 214 1178 q 145 1253 163 1233 q 125 1276 128 1274 q 119 1292 119 1283 q 158 1308 119 1308 q 232 1298 189 1308 q 313 1270 275 1288 q 367 1232 351 1253 q 376 1212 367 1232 q 399 1163 386 1192 q 426 1110 413 1135 q 444 1075 439 1085 m 692 1074 q 688 1056 700 1061 q 654 1050 676 1050 q 590 1060 625 1050 q 544 1085 556 1069 q 528 1103 544 1085 q 486 1149 511 1121 q 435 1204 461 1176 q 392 1252 410 1232 q 372 1275 375 1272 q 367 1290 367 1282 q 406 1307 367 1307 q 479 1297 436 1307 q 560 1269 522 1286 q 614 1231 599 1251 q 624 1210 614 1231 q 647 1162 633 1190 q 673 1108 660 1133 q 692 1074 686 1083 z "},"Ë":{"ha":701,"x_min":54,"x_max":707,"o":"m 604 736 q 564 721 590 725 q 506 717 538 717 q 385 724 451 717 q 257 733 318 731 q 252 671 254 701 q 249 608 250 640 l 596 610 q 601 596 601 610 q 591 540 601 576 q 566 466 581 504 q 536 401 551 428 q 513 374 521 374 l 233 372 q 227 286 231 329 q 219 200 224 243 q 270 215 246 210 q 319 221 294 221 q 358 217 339 221 q 396 206 376 214 q 452 190 418 197 q 522 182 486 182 q 551 183 538 182 q 579 189 565 185 q 587 176 593 193 q 562 129 581 158 q 519 69 543 100 q 472 17 494 39 q 438 -8 450 -6 q 368 -18 404 -18 q 301 -10 332 -18 q 249 6 269 -3 q 179 21 208 21 q 133 12 154 21 q 81 -10 111 3 q 76 -10 79 -10 q 69 -11 72 -11 q 59 -8 64 -11 q 56 8 54 -4 q 76 191 65 100 q 100 372 88 282 l 64 372 q 58 386 58 372 q 70 446 58 406 q 98 527 82 486 q 129 590 114 568 q 138 658 133 624 q 144 725 142 692 q 101 706 118 718 q 97 703 99 703 q 92 718 92 703 q 99 771 92 738 q 116 841 106 804 q 138 906 126 878 q 160 942 150 933 q 222 968 183 961 q 307 975 260 975 q 453 967 376 975 q 585 958 529 958 q 663 972 643 958 q 668 975 668 975 q 674 958 674 975 q 666 906 674 940 q 647 835 658 871 q 624 771 636 799 q 604 736 613 743 m 597 1282 l 703 1165 q 696 1144 707 1161 q 665 1106 685 1128 q 623 1064 644 1083 q 585 1033 601 1044 q 565 1026 569 1022 l 458 1143 q 466 1164 454 1147 q 498 1202 478 1181 q 540 1244 518 1224 q 577 1275 561 1264 q 597 1282 593 1286 m 325 1279 l 431 1163 q 424 1142 435 1158 q 392 1103 413 1125 q 351 1061 372 1081 q 313 1031 329 1042 q 293 1024 297 1019 l 186 1140 q 194 1161 182 1144 q 226 1199 206 1178 q 267 1241 246 1221 q 305 1272 289 1261 q 325 1279 321 1283 z "},"Ė":{"ha":701,"x_min":54,"x_max":674,"o":"m 604 736 q 564 721 590 725 q 506 717 538 717 q 385 724 451 717 q 257 733 318 731 q 252 671 254 701 q 249 608 250 640 l 596 610 q 601 596 601 610 q 591 540 601 576 q 566 466 581 504 q 536 401 551 428 q 513 374 521 374 l 233 372 q 227 286 231 329 q 219 200 224 243 q 270 215 246 210 q 319 221 294 221 q 358 217 339 221 q 396 206 376 214 q 452 190 418 197 q 522 182 486 182 q 551 183 538 182 q 579 189 565 185 q 587 176 593 193 q 562 129 581 158 q 519 69 543 100 q 472 17 494 39 q 438 -8 450 -6 q 368 -18 404 -18 q 301 -10 332 -18 q 249 6 269 -3 q 179 21 208 21 q 133 12 154 21 q 81 -10 111 3 q 76 -10 79 -10 q 69 -11 72 -11 q 59 -8 64 -11 q 56 8 54 -4 q 76 191 65 100 q 100 372 88 282 l 64 372 q 58 386 58 372 q 70 446 58 406 q 98 527 82 486 q 129 590 114 568 q 138 658 133 624 q 144 725 142 692 q 101 706 118 718 q 97 703 99 703 q 92 718 92 703 q 99 771 92 738 q 116 841 106 804 q 138 906 126 878 q 160 942 150 933 q 222 968 183 961 q 307 975 260 975 q 453 967 376 975 q 585 958 529 958 q 663 972 643 958 q 668 975 668 975 q 674 958 674 975 q 666 906 674 940 q 647 835 658 871 q 624 771 636 799 q 604 736 613 743 m 458 1281 l 564 1164 q 557 1143 568 1160 q 526 1104 546 1126 q 484 1063 506 1082 q 447 1032 463 1043 q 426 1025 431 1021 l 319 1142 q 327 1163 315 1146 q 359 1201 339 1179 q 401 1242 379 1222 q 438 1274 422 1263 q 458 1281 454 1285 z "},"Ẹ":{"ha":701,"x_min":54,"x_max":674,"o":"m 604 736 q 564 721 590 725 q 506 717 538 717 q 385 724 451 717 q 257 733 318 731 q 252 671 254 701 q 249 608 250 640 l 596 610 q 601 596 601 610 q 591 540 601 576 q 566 466 581 504 q 536 401 551 428 q 513 374 521 374 l 233 372 q 227 286 231 329 q 219 200 224 243 q 270 215 246 210 q 319 221 294 221 q 358 217 339 221 q 396 206 376 214 q 452 190 418 197 q 522 182 486 182 q 551 183 538 182 q 579 189 565 185 q 587 176 593 193 q 562 129 581 158 q 519 69 543 100 q 472 17 494 39 q 438 -8 450 -6 q 368 -18 404 -18 q 301 -10 332 -18 q 249 6 269 -3 q 179 21 208 21 q 133 12 154 21 q 81 -10 111 3 q 76 -10 79 -10 q 69 -11 72 -11 q 59 -8 64 -11 q 56 8 54 -4 q 76 191 65 100 q 100 372 88 282 l 64 372 q 58 386 58 372 q 70 446 58 406 q 98 527 82 486 q 129 590 114 568 q 138 658 133 624 q 144 725 142 692 q 101 706 118 718 q 97 703 99 703 q 92 718 92 703 q 99 771 92 738 q 116 841 106 804 q 138 906 126 878 q 160 942 150 933 q 222 968 183 961 q 307 975 260 975 q 453 967 376 975 q 585 958 529 958 q 663 972 643 958 q 668 975 668 975 q 674 958 674 975 q 666 906 674 940 q 647 835 658 871 q 624 771 636 799 q 604 736 613 743 m 278 -71 l 374 -175 q 361 -202 378 -181 q 319 -248 344 -224 q 274 -289 294 -272 q 249 -300 253 -306 l 153 -194 q 165 -168 149 -189 q 206 -122 181 -147 q 252 -81 231 -97 q 278 -71 274 -65 z "},"È":{"ha":701,"x_min":54,"x_max":674,"o":"m 604 736 q 564 721 590 725 q 506 717 538 717 q 385 724 451 717 q 257 733 318 731 q 252 671 254 701 q 249 608 250 640 l 596 610 q 601 596 601 610 q 591 540 601 576 q 566 466 581 504 q 536 401 551 428 q 513 374 521 374 l 233 372 q 227 286 231 329 q 219 200 224 243 q 270 215 246 210 q 319 221 294 221 q 358 217 339 221 q 396 206 376 214 q 452 190 418 197 q 522 182 486 182 q 551 183 538 182 q 579 189 565 185 q 587 176 593 193 q 562 129 581 158 q 519 69 543 100 q 472 17 494 39 q 438 -8 450 -6 q 368 -18 404 -18 q 301 -10 332 -18 q 249 6 269 -3 q 179 21 208 21 q 133 12 154 21 q 81 -10 111 3 q 76 -10 79 -10 q 69 -11 72 -11 q 59 -8 64 -11 q 56 8 54 -4 q 76 191 65 100 q 100 372 88 282 l 64 372 q 58 386 58 372 q 70 446 58 406 q 98 527 82 486 q 129 590 114 568 q 138 658 133 624 q 144 725 142 692 q 101 706 118 718 q 97 703 99 703 q 92 718 92 703 q 99 771 92 738 q 116 841 106 804 q 138 906 126 878 q 160 942 150 933 q 222 968 183 961 q 307 975 260 975 q 453 967 376 975 q 585 958 529 958 q 663 972 643 958 q 668 975 668 975 q 674 958 674 975 q 666 906 674 940 q 647 835 658 871 q 624 771 636 799 q 604 736 613 743 m 458 1058 q 455 1040 467 1046 q 421 1035 443 1035 q 357 1044 392 1035 q 311 1069 322 1054 q 294 1088 311 1069 q 253 1133 278 1106 q 202 1189 228 1161 q 159 1237 176 1217 q 139 1260 142 1257 q 133 1275 133 1267 q 172 1292 133 1292 q 246 1281 203 1292 q 327 1253 289 1271 q 381 1215 365 1236 q 390 1195 381 1215 q 413 1147 400 1175 q 440 1093 426 1118 q 458 1058 453 1068 z "},"Ẻ":{"ha":701,"x_min":54,"x_max":674,"o":"m 604 736 q 564 721 590 725 q 506 717 538 717 q 385 724 451 717 q 257 733 318 731 q 252 671 254 701 q 249 608 250 640 l 596 610 q 601 596 601 610 q 591 540 601 576 q 566 466 581 504 q 536 401 551 428 q 513 374 521 374 l 233 372 q 227 286 231 329 q 219 200 224 243 q 270 215 246 210 q 319 221 294 221 q 358 217 339 221 q 396 206 376 214 q 452 190 418 197 q 522 182 486 182 q 551 183 538 182 q 579 189 565 185 q 587 176 593 193 q 562 129 581 158 q 519 69 543 100 q 472 17 494 39 q 438 -8 450 -6 q 368 -18 404 -18 q 301 -10 332 -18 q 249 6 269 -3 q 179 21 208 21 q 133 12 154 21 q 81 -10 111 3 q 76 -10 79 -10 q 69 -11 72 -11 q 59 -8 64 -11 q 56 8 54 -4 q 76 191 65 100 q 100 372 88 282 l 64 372 q 58 386 58 372 q 70 446 58 406 q 98 527 82 486 q 129 590 114 568 q 138 658 133 624 q 144 725 142 692 q 101 706 118 718 q 97 703 99 703 q 92 718 92 703 q 99 771 92 738 q 116 841 106 804 q 138 906 126 878 q 160 942 150 933 q 222 968 183 961 q 307 975 260 975 q 453 967 376 975 q 585 958 529 958 q 663 972 643 958 q 668 975 668 975 q 674 958 674 975 q 666 906 674 940 q 647 835 658 871 q 624 771 636 799 q 604 736 613 743 m 414 1050 q 439 1092 439 1079 q 407 1108 439 1108 q 380 1106 394 1108 q 349 1101 365 1104 q 346 1101 347 1101 q 343 1100 344 1100 q 333 1114 333 1100 q 344 1154 333 1129 q 369 1205 354 1179 q 401 1250 385 1231 q 429 1271 417 1269 q 440 1273 435 1272 q 451 1274 446 1274 q 507 1262 479 1274 q 553 1228 535 1250 q 572 1174 572 1206 q 562 1129 572 1153 q 528 1078 551 1106 q 471 1038 506 1053 q 417 1022 436 1022 q 403 1031 403 1022 q 414 1050 403 1039 z "},"Ē":{"ha":701,"x_min":54,"x_max":674,"o":"m 604 736 q 564 721 590 725 q 506 717 538 717 q 385 724 451 717 q 257 733 318 731 q 252 671 254 701 q 249 608 250 640 l 596 610 q 601 596 601 610 q 591 540 601 576 q 566 466 581 504 q 536 401 551 428 q 513 374 521 374 l 233 372 q 227 286 231 329 q 219 200 224 243 q 270 215 246 210 q 319 221 294 221 q 358 217 339 221 q 396 206 376 214 q 452 190 418 197 q 522 182 486 182 q 551 183 538 182 q 579 189 565 185 q 587 176 593 193 q 562 129 581 158 q 519 69 543 100 q 472 17 494 39 q 438 -8 450 -6 q 368 -18 404 -18 q 301 -10 332 -18 q 249 6 269 -3 q 179 21 208 21 q 133 12 154 21 q 81 -10 111 3 q 76 -10 79 -10 q 69 -11 72 -11 q 59 -8 64 -11 q 56 8 54 -4 q 76 191 65 100 q 100 372 88 282 l 64 372 q 58 386 58 372 q 70 446 58 406 q 98 527 82 486 q 129 590 114 568 q 138 658 133 624 q 144 725 142 692 q 101 706 118 718 q 97 703 99 703 q 92 718 92 703 q 99 771 92 738 q 116 841 106 804 q 138 906 126 878 q 160 942 150 933 q 222 968 183 961 q 307 975 260 975 q 453 967 376 975 q 585 958 529 958 q 663 972 643 958 q 668 975 668 975 q 674 958 674 975 q 666 906 674 940 q 647 835 658 871 q 624 771 636 799 q 604 736 613 743 m 335 1224 l 656 1221 q 664 1204 664 1221 q 657 1163 664 1189 q 639 1112 650 1138 q 617 1069 628 1086 q 597 1051 606 1051 l 276 1054 q 268 1069 268 1054 q 275 1112 268 1086 q 293 1163 282 1138 q 315 1206 304 1189 q 335 1224 326 1224 z "},"Ḗ":{"ha":701,"x_min":54,"x_max":740,"o":"m 604 736 q 564 721 590 725 q 506 717 538 717 q 385 724 451 717 q 257 733 318 731 q 252 671 254 701 q 249 608 250 640 l 596 610 q 601 596 601 610 q 591 540 601 576 q 566 466 581 504 q 536 401 551 428 q 513 374 521 374 l 233 372 q 227 286 231 329 q 219 200 224 243 q 270 215 246 210 q 319 221 294 221 q 358 217 339 221 q 396 206 376 214 q 452 190 418 197 q 522 182 486 182 q 551 183 538 182 q 579 189 565 185 q 587 176 593 193 q 562 129 581 158 q 519 69 543 100 q 472 17 494 39 q 438 -8 450 -6 q 368 -18 404 -18 q 301 -10 332 -18 q 249 6 269 -3 q 179 21 208 21 q 133 12 154 21 q 81 -10 111 3 q 76 -10 79 -10 q 69 -11 72 -11 q 59 -8 64 -11 q 56 8 54 -4 q 76 191 65 100 q 100 372 88 282 l 64 372 q 58 386 58 372 q 70 446 58 406 q 98 527 82 486 q 129 590 114 568 q 138 658 133 624 q 144 725 142 692 q 101 706 118 718 q 97 703 99 703 q 92 718 92 703 q 99 771 92 738 q 116 841 106 804 q 138 906 126 878 q 160 942 150 933 q 222 968 183 961 q 307 975 260 975 q 453 967 376 975 q 585 958 529 958 q 663 972 643 958 q 668 975 668 975 q 674 958 674 975 q 666 906 674 940 q 647 835 658 871 q 624 771 636 799 q 604 736 613 743 m 415 1293 q 435 1328 422 1303 q 460 1381 447 1353 q 483 1430 474 1410 q 493 1450 493 1450 q 547 1488 508 1471 q 628 1516 585 1506 q 701 1526 671 1526 q 740 1510 740 1526 q 735 1494 740 1501 q 715 1472 733 1492 q 672 1424 697 1451 q 621 1368 646 1396 q 579 1322 596 1340 q 563 1304 563 1304 q 517 1279 553 1289 q 453 1269 482 1269 q 419 1275 431 1269 q 415 1293 407 1281 m 335 1224 l 656 1221 q 664 1204 664 1221 q 657 1163 664 1189 q 639 1112 650 1138 q 617 1069 628 1086 q 597 1051 606 1051 l 276 1054 q 268 1069 268 1054 q 275 1112 268 1086 q 293 1163 282 1138 q 315 1206 304 1189 q 335 1224 326 1224 z "},"Ḕ":{"ha":701,"x_min":54,"x_max":674,"o":"m 604 736 q 564 721 590 725 q 506 717 538 717 q 385 724 451 717 q 257 733 318 731 q 252 671 254 701 q 249 608 250 640 l 596 610 q 601 596 601 610 q 591 540 601 576 q 566 466 581 504 q 536 401 551 428 q 513 374 521 374 l 233 372 q 227 286 231 329 q 219 200 224 243 q 270 215 246 210 q 319 221 294 221 q 358 217 339 221 q 396 206 376 214 q 452 190 418 197 q 522 182 486 182 q 551 183 538 182 q 579 189 565 185 q 587 176 593 193 q 562 129 581 158 q 519 69 543 100 q 472 17 494 39 q 438 -8 450 -6 q 368 -18 404 -18 q 301 -10 332 -18 q 249 6 269 -3 q 179 21 208 21 q 133 12 154 21 q 81 -10 111 3 q 76 -10 79 -10 q 69 -11 72 -11 q 59 -8 64 -11 q 56 8 54 -4 q 76 191 65 100 q 100 372 88 282 l 64 372 q 58 386 58 372 q 70 446 58 406 q 98 527 82 486 q 129 590 114 568 q 138 658 133 624 q 144 725 142 692 q 101 706 118 718 q 97 703 99 703 q 92 718 92 703 q 99 771 92 738 q 116 841 106 804 q 138 906 126 878 q 160 942 150 933 q 222 968 183 961 q 307 975 260 975 q 453 967 376 975 q 585 958 529 958 q 663 972 643 958 q 668 975 668 975 q 674 958 674 975 q 666 906 674 940 q 647 835 658 871 q 624 771 636 799 q 604 736 613 743 m 513 1279 q 509 1261 521 1267 q 475 1256 497 1256 q 411 1265 446 1256 q 365 1290 376 1275 q 349 1308 365 1290 q 307 1354 332 1326 q 256 1410 282 1382 q 213 1458 231 1438 q 193 1481 196 1478 q 188 1496 188 1488 q 226 1513 188 1513 q 300 1502 257 1513 q 381 1474 343 1492 q 435 1436 419 1457 q 444 1416 435 1436 q 467 1367 454 1396 q 494 1314 481 1339 q 513 1279 507 1289 m 335 1224 l 656 1221 q 664 1204 664 1221 q 657 1163 664 1189 q 639 1112 650 1138 q 617 1069 628 1086 q 597 1051 606 1051 l 276 1054 q 268 1069 268 1054 q 275 1112 268 1086 q 293 1163 282 1138 q 315 1206 304 1189 q 335 1224 326 1224 z "},"Ę":{"ha":701,"x_min":54,"x_max":674,"o":"m 604 736 q 564 721 590 725 q 506 717 538 717 q 385 724 451 717 q 257 733 318 731 q 252 671 254 701 q 249 608 250 640 l 596 610 q 601 596 601 610 q 591 540 601 576 q 566 466 581 504 q 536 401 551 428 q 513 374 521 374 l 233 372 q 227 286 231 329 q 219 200 224 243 q 270 215 246 210 q 319 221 294 221 q 358 217 339 221 q 396 206 376 214 q 452 190 418 197 q 522 182 486 182 q 551 183 538 182 q 579 189 565 185 q 587 176 593 193 q 562 129 581 158 q 519 69 543 100 q 472 17 494 39 q 438 -8 450 -6 q 368 -18 404 -18 q 301 -10 332 -18 q 249 6 269 -3 q 179 21 208 21 q 133 12 154 21 q 81 -10 111 3 q 76 -10 79 -10 q 69 -11 72 -11 q 59 -8 64 -11 q 56 8 54 -4 q 76 191 65 100 q 100 372 88 282 l 64 372 q 58 386 58 372 q 70 446 58 406 q 98 527 82 486 q 129 590 114 568 q 138 658 133 624 q 144 725 142 692 q 101 706 118 718 q 97 703 99 703 q 92 718 92 703 q 99 771 92 738 q 116 841 106 804 q 138 906 126 878 q 160 942 150 933 q 222 968 183 961 q 307 975 260 975 q 453 967 376 975 q 585 958 529 958 q 663 972 643 958 q 668 975 668 975 q 674 958 674 975 q 666 906 674 940 q 647 835 658 871 q 624 771 636 799 q 604 736 613 743 m 433 -360 q 303 -400 365 -400 q 227 -376 257 -400 q 197 -306 197 -353 q 248 -164 197 -251 q 422 46 299 -76 q 506 118 471 94 q 556 142 542 142 q 552 117 567 142 q 489 43 538 92 q 425 -47 444 -1 q 406 -128 406 -92 q 424 -194 406 -168 q 472 -219 442 -219 q 514 -207 492 -219 q 549 -193 536 -193 q 560 -206 560 -193 q 542 -251 560 -221 q 494 -311 524 -281 q 433 -360 465 -342 z "},"Ɛ":{"ha":638,"x_min":14,"x_max":596,"o":"m 400 171 q 418 190 403 172 q 433 239 433 207 q 421 289 433 261 q 372 351 408 317 q 381 379 367 358 q 421 428 396 400 q 474 481 446 456 q 523 520 501 506 q 550 529 544 535 q 583 479 569 508 q 596 414 596 450 q 568 306 596 367 q 474 175 540 246 q 294 24 408 104 q 274 10 282 15 q 251 -4 257 -3 q 208 -12 229 -10 q 168 -15 188 -15 q 53 25 92 -15 q 14 125 14 65 q 37 226 14 172 q 104 331 60 279 q 146 365 118 346 q 206 401 174 385 q 89 449 122 403 q 56 557 56 494 q 65 633 56 594 q 90 707 75 672 q 121 751 99 725 q 171 804 143 778 q 222 850 199 831 q 252 883 235 865 q 289 917 269 900 q 383 976 339 958 q 461 993 426 993 q 534 972 504 993 q 579 918 564 950 q 594 851 594 886 q 583 797 594 824 q 548 749 572 776 q 495 694 524 721 q 443 651 467 668 q 411 633 419 633 q 407 638 407 633 q 411 653 407 643 q 422 694 422 671 q 399 761 422 731 q 342 810 375 792 q 278 829 308 829 q 250 822 261 829 q 238 773 242 799 q 233 722 233 747 q 265 617 233 663 q 381 572 297 572 q 409 574 394 572 q 442 578 424 575 q 436 565 447 579 q 404 526 425 550 q 359 478 383 503 q 314 436 335 454 q 310 431 313 433 q 242 333 267 383 q 217 242 217 282 q 242 178 217 203 q 326 153 268 153 q 383 158 351 153 q 400 171 392 165 z "},"Ʃ":{"ha":636,"x_min":0,"x_max":636,"o":"m 565 739 q 525 728 551 731 q 465 725 499 725 q 388 727 429 725 q 306 732 347 729 q 383 638 344 685 q 458 544 422 590 q 467 524 467 536 q 459 499 467 514 q 431 460 451 483 q 332 353 385 411 q 226 236 279 296 q 316 235 269 236 q 406 233 363 233 q 507 238 463 233 q 571 251 551 242 q 575 253 572 253 q 581 236 581 253 q 573 181 581 217 q 554 109 565 146 q 531 44 543 72 q 510 13 518 17 q 458 -1 492 3 q 379 -4 424 -4 q 273 -1 329 -4 q 163 4 217 1 q 68 7 110 7 q 35 7 50 7 q 8 4 19 7 l 7 4 q 0 21 0 4 q 8 73 0 40 q 26 140 15 106 q 44 199 36 175 q 53 224 51 222 q 134 309 99 274 q 200 375 169 344 q 265 442 231 406 q 160 578 211 511 q 57 711 110 646 q 53 726 53 715 q 61 782 53 747 q 81 853 69 817 q 105 917 93 890 q 124 949 117 944 q 192 970 149 964 q 288 976 236 976 q 422 972 353 976 q 543 967 490 967 q 593 969 571 967 q 626 978 615 972 q 631 979 628 979 q 636 963 636 979 q 628 908 636 943 q 610 835 621 872 q 586 771 599 799 q 565 739 574 743 z "},"Ẽ":{"ha":701,"x_min":54,"x_max":674,"o":"m 604 736 q 564 721 590 725 q 506 717 538 717 q 385 724 451 717 q 257 733 318 731 q 252 671 254 701 q 249 608 250 640 l 596 610 q 601 596 601 610 q 591 540 601 576 q 566 466 581 504 q 536 401 551 428 q 513 374 521 374 l 233 372 q 227 286 231 329 q 219 200 224 243 q 270 215 246 210 q 319 221 294 221 q 358 217 339 221 q 396 206 376 214 q 452 190 418 197 q 522 182 486 182 q 551 183 538 182 q 579 189 565 185 q 587 176 593 193 q 562 129 581 158 q 519 69 543 100 q 472 17 494 39 q 438 -8 450 -6 q 368 -18 404 -18 q 301 -10 332 -18 q 249 6 269 -3 q 179 21 208 21 q 133 12 154 21 q 81 -10 111 3 q 76 -10 79 -10 q 69 -11 72 -11 q 59 -8 64 -11 q 56 8 54 -4 q 76 191 65 100 q 100 372 88 282 l 64 372 q 58 386 58 372 q 70 446 58 406 q 98 527 82 486 q 129 590 114 568 q 138 658 133 624 q 144 725 142 692 q 101 706 118 718 q 97 703 99 703 q 92 718 92 703 q 99 771 92 738 q 116 841 106 804 q 138 906 126 878 q 160 942 150 933 q 222 968 183 961 q 307 975 260 975 q 453 967 376 975 q 585 958 529 958 q 663 972 643 958 q 668 975 668 975 q 674 958 674 975 q 666 906 674 940 q 647 835 658 871 q 624 771 636 799 q 604 736 613 743 m 582 1081 q 533 1042 557 1054 q 485 1031 508 1031 q 458 1035 471 1031 q 424 1058 439 1042 q 396 1092 408 1075 q 369 1114 383 1110 q 356 1117 361 1117 q 332 1108 346 1117 q 294 1075 318 1099 q 274 1061 281 1061 q 265 1079 265 1061 q 280 1143 265 1103 q 317 1206 294 1183 q 379 1256 353 1243 q 424 1268 406 1268 q 447 1264 438 1268 q 481 1240 467 1257 q 509 1206 496 1222 q 536 1185 522 1189 q 551 1183 540 1183 q 581 1192 567 1183 q 607 1214 594 1200 q 626 1226 618 1226 q 635 1210 635 1226 q 619 1145 635 1186 q 582 1081 604 1104 z "},"Ḛ":{"ha":701,"x_min":43,"x_max":674,"o":"m 604 736 q 564 721 590 725 q 506 717 538 717 q 385 724 451 717 q 257 733 318 731 q 252 671 254 701 q 249 608 250 640 l 596 610 q 601 596 601 610 q 591 540 601 576 q 566 466 581 504 q 536 401 551 428 q 513 374 521 374 l 233 372 q 227 286 231 329 q 219 200 224 243 q 270 215 246 210 q 319 221 294 221 q 358 217 339 221 q 396 206 376 214 q 452 190 418 197 q 522 182 486 182 q 551 183 538 182 q 579 189 565 185 q 587 176 593 193 q 562 129 581 158 q 519 69 543 100 q 472 17 494 39 q 438 -8 450 -6 q 368 -18 404 -18 q 301 -10 332 -18 q 249 6 269 -3 q 179 21 208 21 q 133 12 154 21 q 81 -10 111 3 q 76 -10 79 -10 q 69 -11 72 -11 q 59 -8 64 -11 q 56 8 54 -4 q 76 191 65 100 q 100 372 88 282 l 64 372 q 58 386 58 372 q 70 446 58 406 q 98 527 82 486 q 129 590 114 568 q 138 658 133 624 q 144 725 142 692 q 101 706 118 718 q 97 703 99 703 q 92 718 92 703 q 99 771 92 738 q 116 841 106 804 q 138 906 126 878 q 160 942 150 933 q 222 968 183 961 q 307 975 260 975 q 453 967 376 975 q 585 958 529 958 q 663 972 643 958 q 668 975 668 975 q 674 958 674 975 q 666 906 674 940 q 647 835 658 871 q 624 771 636 799 q 604 736 613 743 m 360 -236 q 310 -274 335 -262 q 263 -286 286 -286 q 236 -282 249 -286 q 201 -258 217 -275 q 174 -224 186 -242 q 147 -203 161 -207 q 133 -200 139 -200 q 110 -209 124 -200 q 72 -242 96 -218 q 51 -256 58 -256 q 43 -237 43 -256 q 58 -174 43 -214 q 94 -111 72 -133 q 157 -61 131 -74 q 201 -49 183 -49 q 225 -53 215 -49 q 259 -77 244 -60 q 287 -111 274 -94 q 314 -132 300 -128 q 329 -133 318 -133 q 358 -125 344 -133 q 385 -103 372 -117 q 404 -90 396 -90 q 413 -107 413 -90 q 397 -172 413 -131 q 360 -236 382 -212 z "},"Ǝ":{"ha":708,"x_min":14,"x_max":660,"o":"m 399 -17 q 357 -33 376 -28 q 319 -37 338 -37 q 265 -27 292 -37 q 206 -1 238 -17 q 136 17 169 17 q 91 9 111 17 q 57 -10 71 1 q 24 -24 35 -24 q 14 -10 14 -24 q 31 44 14 8 q 76 115 49 79 q 132 171 104 151 q 208 213 175 200 q 267 225 240 225 q 312 217 290 225 q 356 199 333 210 q 392 181 374 189 q 428 169 411 174 q 438 248 433 208 q 449 326 443 288 l 122 325 q 117 339 117 325 q 127 394 117 358 q 152 469 138 431 q 181 534 167 507 q 206 561 196 561 l 482 563 q 488 613 485 588 q 496 665 492 639 q 451 659 475 661 q 400 657 426 657 q 262 663 333 657 q 136 669 190 669 q 89 667 110 669 q 57 657 68 664 q 53 656 56 656 q 47 672 47 656 q 54 726 47 692 q 72 797 61 760 q 96 862 83 833 q 118 896 108 890 q 157 908 132 906 q 213 911 182 911 q 342 905 271 911 q 476 899 414 899 q 550 903 517 899 q 601 921 583 908 q 607 924 607 924 q 610 922 608 924 q 624 925 618 925 q 632 915 633 925 q 616 738 622 826 q 604 563 610 650 l 654 563 q 660 549 660 563 q 648 488 660 528 q 619 408 636 449 q 589 344 603 367 q 584 292 586 318 q 579 240 582 267 q 568 203 578 224 q 544 163 558 183 q 519 118 538 146 q 477 62 500 90 q 433 12 454 33 q 399 -17 413 -10 z "},"Ə":{"ha":657,"x_min":7,"x_max":608,"o":"m 296 32 q 247 3 269 13 q 210 -8 222 -11 q 200 -7 204 -8 q 49 71 90 15 q 7 200 7 126 q 18 293 7 244 q 46 392 29 342 q 71 427 50 407 q 118 468 92 447 q 168 502 144 489 q 203 515 192 515 q 208 514 207 515 q 258 516 222 515 q 340 517 293 517 q 432 518 386 518 q 374 618 410 565 q 283 732 338 671 q 287 769 276 739 q 316 840 297 800 q 356 916 335 879 q 394 975 376 953 q 417 990 411 997 q 565 767 521 876 q 608 560 608 658 q 580 392 608 471 q 506 245 551 313 q 405 124 460 178 q 296 32 350 69 m 188 381 q 230 269 188 314 q 374 199 272 224 q 435 268 406 224 q 465 379 465 313 q 464 408 465 393 q 378 408 429 408 q 276 408 328 408 q 189 407 225 407 q 188 381 188 393 z "},"Ʒ":{"ha":664,"x_min":-28,"x_max":622,"o":"m 225 -22 q 152 -53 186 -43 q 90 -62 118 -62 q 1 -25 31 -62 q -28 67 -28 13 q -12 150 -28 104 q 16 193 -6 167 q 65 246 38 219 q 117 290 93 272 q 151 308 142 308 q 154 294 158 308 q 142 226 142 260 q 171 143 142 176 q 251 110 200 110 q 322 124 283 110 q 367 208 346 157 q 388 306 388 258 q 361 380 388 350 q 267 410 335 410 q 151 393 219 410 q 144 404 138 389 q 171 444 151 419 q 181 460 174 451 q 196 481 181 460 q 236 536 211 503 q 290 608 261 569 q 347 681 319 646 q 394 739 374 715 q 263 746 331 740 q 144 751 196 751 q 97 749 118 751 q 63 739 75 746 q 58 738 61 738 q 53 754 53 738 q 60 808 53 774 q 79 880 68 843 q 102 944 90 917 q 124 978 114 972 q 164 990 139 988 q 219 993 189 993 q 347 987 276 993 q 481 981 418 981 q 556 985 521 981 q 613 1004 590 990 q 617 1006 614 1006 q 622 988 622 1006 q 613 928 622 967 q 592 849 604 889 q 567 786 579 810 q 561 778 565 782 q 560 775 561 776 q 533 744 550 761 l 442 622 l 444 622 q 568 586 522 622 q 614 483 614 550 q 546 299 614 408 q 324 56 478 190 q 293 31 307 42 q 258 -1 275 13 q 225 -22 240 -15 z "},"Ǯ":{"ha":664,"x_min":-28,"x_max":622,"o":"m 225 -22 q 152 -53 186 -43 q 90 -62 118 -62 q 1 -25 31 -62 q -28 67 -28 13 q -12 150 -28 104 q 16 193 -6 167 q 65 246 38 219 q 117 290 93 272 q 151 308 142 308 q 154 294 158 308 q 142 226 142 260 q 171 143 142 176 q 251 110 200 110 q 322 124 283 110 q 367 208 346 157 q 388 306 388 258 q 361 380 388 350 q 267 410 335 410 q 151 393 219 410 q 144 404 138 389 q 171 444 151 419 q 181 460 174 451 q 196 481 181 460 q 236 536 211 503 q 290 608 261 569 q 347 681 319 646 q 394 739 374 715 q 263 746 331 740 q 144 751 196 751 q 97 749 118 751 q 63 739 75 746 q 58 738 61 738 q 53 754 53 738 q 60 808 53 774 q 79 880 68 843 q 102 944 90 917 q 124 978 114 972 q 164 990 139 988 q 219 993 189 993 q 347 987 276 993 q 481 981 418 981 q 556 985 521 981 q 613 1004 590 990 q 617 1006 614 1006 q 622 988 622 1006 q 613 928 622 967 q 592 849 604 889 q 567 786 579 810 q 561 778 565 782 q 560 775 561 776 q 533 744 550 761 l 442 622 l 444 622 q 568 586 522 622 q 614 483 614 550 q 546 299 614 408 q 324 56 478 190 q 293 31 307 42 q 258 -1 275 13 q 225 -22 240 -15 m 157 976 l 258 868 l 315 940 q 353 971 331 960 q 392 982 376 982 q 413 968 413 982 q 401 943 413 956 l 283 793 q 265 776 276 783 q 212 738 243 754 q 158 722 181 722 q 138 729 147 722 l 4 871 q 0 885 0 878 q 24 926 0 903 q 81 966 49 949 q 136 983 114 983 q 157 976 147 983 z "},"F":{"ha":614,"x_min":-14,"x_max":643,"o":"m 68 231 q 81 242 75 236 l 93 368 q 58 360 69 365 q 54 358 57 358 q 49 375 49 358 q 56 427 49 394 q 73 495 63 460 q 95 558 83 531 q 117 596 107 586 l 129 731 q 86 722 99 729 q 84 722 85 722 q 83 721 83 721 q 76 735 76 721 q 85 787 76 753 q 108 859 94 821 q 135 925 121 897 q 158 958 149 953 q 198 967 172 965 q 258 969 224 969 q 385 965 315 969 q 515 961 456 961 q 588 965 557 961 q 631 979 619 969 q 638 983 635 983 q 643 968 643 983 q 637 917 643 950 q 619 847 631 883 q 597 783 608 811 q 575 746 586 756 q 524 725 560 731 q 440 719 488 719 q 338 723 393 719 q 233 729 283 726 l 222 613 q 233 613 228 613 q 346 610 286 613 q 454 607 406 607 q 508 609 485 607 q 540 617 531 611 q 544 618 542 618 q 550 600 550 618 q 542 546 550 581 q 524 474 535 511 q 501 410 513 438 q 479 378 489 383 q 439 368 467 371 q 375 365 411 365 q 288 367 335 365 q 199 371 242 369 l 189 275 q 246 265 219 275 q 289 233 272 254 q 292 221 292 228 q 281 161 292 200 q 253 81 269 122 q 222 16 238 40 q 200 0 207 -8 q 159 29 185 19 q 106 39 133 39 q 47 29 75 39 q -1 3 18 19 q -8 -1 -6 -1 q -14 11 -14 -1 q -5 60 -14 28 q 17 128 4 92 q 44 192 29 164 q 68 231 58 221 z "},"Ƒ":{"ha":626,"x_min":-194,"x_max":656,"o":"m 1 -329 q -82 -353 -44 -353 q -146 -331 -121 -353 q -183 -276 -171 -308 q -194 -212 -194 -243 q -193 -188 -194 -200 q -187 -167 -192 -176 q -156 -122 -181 -146 q -102 -74 -132 -97 q -44 -37 -72 -51 q -1 -22 -17 -22 q 8 -43 15 -22 q 3 -74 3 -56 q 16 -129 3 -101 q 53 -171 29 -157 l 106 368 q 71 360 82 365 q 61 375 61 354 q 68 427 61 394 q 85 495 75 460 q 108 558 96 531 q 129 596 119 586 l 142 731 q 99 722 111 729 q 89 735 89 718 q 98 787 89 753 q 120 859 107 821 q 147 925 133 897 q 171 958 161 953 q 210 967 185 965 q 271 969 236 969 q 398 965 328 969 q 528 961 468 961 q 601 965 569 961 q 643 979 632 969 q 656 967 656 992 q 649 915 656 949 q 632 847 643 882 q 610 783 621 811 q 588 746 599 756 q 536 725 572 731 q 453 719 500 719 q 351 723 406 719 q 246 729 296 726 l 235 613 q 246 613 240 613 q 358 610 299 613 q 467 607 418 607 q 520 609 497 607 q 553 617 543 611 q 563 600 563 622 q 555 546 563 581 q 536 474 547 511 q 513 410 525 438 q 492 378 501 383 q 451 368 479 371 q 388 365 424 365 q 301 367 347 365 q 211 371 254 369 l 157 -169 q 132 -212 156 -185 q 72 -278 110 -243 q 1 -329 35 -312 z "},"G":{"ha":701,"x_min":7,"x_max":646,"o":"m 413 543 q 500 575 454 575 q 567 555 538 575 q 615 501 597 535 q 632 428 633 468 q 620 293 628 361 q 606 158 613 225 l 601 94 q 632 39 601 35 q 636 24 646 42 q 603 -19 626 7 q 553 -73 581 -46 q 501 -119 525 -100 q 465 -139 476 -137 q 421 -113 435 -143 q 407 -35 407 -83 q 407 -13 407 -24 q 408 8 407 -3 q 415 63 411 36 q 421 117 418 89 q 345 49 382 81 q 284 -2 308 18 q 256 -22 260 -22 q 219 -22 246 -22 q 160 -15 192 -22 q 101 13 128 -8 q 32 103 57 50 q 7 221 7 156 q 73 454 7 324 q 288 735 139 585 q 238 761 256 744 q 235 775 235 764 q 246 835 235 796 q 273 913 257 874 q 304 976 289 951 q 326 994 319 1001 q 383 967 346 976 q 458 958 419 958 q 534 967 499 958 q 582 988 569 975 q 592 994 589 994 q 596 983 596 994 q 588 935 596 967 q 567 868 579 904 q 540 803 554 832 q 515 763 526 774 q 459 733 497 743 q 382 722 421 722 q 238 526 283 615 q 192 364 192 436 q 214 268 192 311 q 276 190 236 225 q 333 165 304 168 q 367 161 363 161 q 385 177 367 161 q 431 215 404 193 q 435 278 433 249 q 410 363 438 340 q 353 385 383 385 q 307 371 324 385 q 282 357 289 357 q 284 378 274 357 q 317 432 294 400 q 365 494 339 464 q 413 543 390 525 z "},"Ğ":{"ha":701,"x_min":7,"x_max":747,"o":"m 413 543 q 500 575 454 575 q 567 555 538 575 q 615 501 597 535 q 632 428 633 468 q 620 293 628 361 q 606 158 613 225 l 601 94 q 632 39 601 35 q 636 24 646 42 q 603 -19 626 7 q 553 -73 581 -46 q 501 -119 525 -100 q 465 -139 476 -137 q 421 -113 435 -143 q 407 -35 407 -83 q 407 -13 407 -24 q 408 8 407 -3 q 415 63 411 36 q 421 117 418 89 q 345 49 382 81 q 284 -2 308 18 q 256 -22 260 -22 q 219 -22 246 -22 q 160 -15 192 -22 q 101 13 128 -8 q 32 103 57 50 q 7 221 7 156 q 73 454 7 324 q 288 735 139 585 q 238 761 256 744 q 235 775 235 764 q 246 835 235 796 q 273 913 257 874 q 304 976 289 951 q 326 994 319 1001 q 383 967 346 976 q 458 958 419 958 q 534 967 499 958 q 582 988 569 975 q 592 994 589 994 q 596 983 596 994 q 588 935 596 967 q 567 868 579 904 q 540 803 554 832 q 515 763 526 774 q 459 733 497 743 q 382 722 421 722 q 238 526 283 615 q 192 364 192 436 q 214 268 192 311 q 276 190 236 225 q 333 165 304 168 q 367 161 363 161 q 385 177 367 161 q 431 215 404 193 q 435 278 433 249 q 410 363 438 340 q 353 385 383 385 q 307 371 324 385 q 282 357 289 357 q 284 378 274 357 q 317 432 294 400 q 365 494 339 464 q 413 543 390 525 m 510 1288 q 535 1222 517 1240 q 576 1204 554 1204 q 636 1224 607 1204 q 678 1260 665 1244 q 728 1296 710 1296 q 747 1264 747 1296 q 737 1214 747 1243 q 703 1157 726 1185 q 600 1069 654 1099 q 497 1039 546 1039 q 415 1069 450 1039 q 371 1160 379 1100 q 383 1200 369 1176 q 417 1247 396 1224 q 459 1287 438 1271 q 494 1303 481 1303 q 510 1288 508 1303 z "},"Ǧ":{"ha":701,"x_min":7,"x_max":714,"o":"m 413 543 q 500 575 454 575 q 567 555 538 575 q 615 501 597 535 q 632 428 633 468 q 620 293 628 361 q 606 158 613 225 l 601 94 q 632 39 601 35 q 636 24 646 42 q 603 -19 626 7 q 553 -73 581 -46 q 501 -119 525 -100 q 465 -139 476 -137 q 421 -113 435 -143 q 407 -35 407 -83 q 407 -13 407 -24 q 408 8 407 -3 q 415 63 411 36 q 421 117 418 89 q 345 49 382 81 q 284 -2 308 18 q 256 -22 260 -22 q 219 -22 246 -22 q 160 -15 192 -22 q 101 13 128 -8 q 32 103 57 50 q 7 221 7 156 q 73 454 7 324 q 288 735 139 585 q 238 761 256 744 q 235 775 235 764 q 246 835 235 796 q 273 913 257 874 q 304 976 289 951 q 326 994 319 1001 q 383 967 346 976 q 458 958 419 958 q 534 967 499 958 q 582 988 569 975 q 592 994 589 994 q 596 983 596 994 q 588 935 596 967 q 567 868 579 904 q 540 803 554 832 q 515 763 526 774 q 459 733 497 743 q 382 722 421 722 q 238 526 283 615 q 192 364 192 436 q 214 268 192 311 q 276 190 236 225 q 333 165 304 168 q 367 161 363 161 q 385 177 367 161 q 431 215 404 193 q 435 278 433 249 q 410 363 438 340 q 353 385 383 385 q 307 371 324 385 q 282 357 289 357 q 284 378 274 357 q 317 432 294 400 q 365 494 339 464 q 413 543 390 525 m 458 1303 l 560 1194 l 617 1267 q 655 1297 632 1286 q 693 1308 678 1308 q 714 1294 714 1308 q 703 1269 714 1282 l 585 1119 q 567 1103 578 1110 q 513 1065 544 1081 q 460 1049 482 1049 q 439 1056 449 1049 l 306 1197 q 301 1211 301 1204 q 326 1252 301 1229 q 383 1292 350 1275 q 438 1310 415 1310 q 458 1303 449 1310 z "},"Ĝ":{"ha":701,"x_min":7,"x_max":718,"o":"m 413 543 q 500 575 454 575 q 567 555 538 575 q 615 501 597 535 q 632 428 633 468 q 620 293 628 361 q 606 158 613 225 l 601 94 q 632 39 601 35 q 636 24 646 42 q 603 -19 626 7 q 553 -73 581 -46 q 501 -119 525 -100 q 465 -139 476 -137 q 421 -113 435 -143 q 407 -35 407 -83 q 407 -13 407 -24 q 408 8 407 -3 q 415 63 411 36 q 421 117 418 89 q 345 49 382 81 q 284 -2 308 18 q 256 -22 260 -22 q 219 -22 246 -22 q 160 -15 192 -22 q 101 13 128 -8 q 32 103 57 50 q 7 221 7 156 q 73 454 7 324 q 288 735 139 585 q 238 761 256 744 q 235 775 235 764 q 246 835 235 796 q 273 913 257 874 q 304 976 289 951 q 326 994 319 1001 q 383 967 346 976 q 458 958 419 958 q 534 967 499 958 q 582 988 569 975 q 592 994 589 994 q 596 983 596 994 q 588 935 596 967 q 567 868 579 904 q 540 803 554 832 q 515 763 526 774 q 459 733 497 743 q 382 722 421 722 q 238 526 283 615 q 192 364 192 436 q 214 268 192 311 q 276 190 236 225 q 333 165 304 168 q 367 161 363 161 q 385 177 367 161 q 431 215 404 193 q 435 278 433 249 q 410 363 438 340 q 353 385 383 385 q 307 371 324 385 q 282 357 289 357 q 284 378 274 357 q 317 432 294 400 q 365 494 339 464 q 413 543 390 525 m 561 1036 l 460 1144 l 403 1072 q 365 1042 388 1053 q 326 1031 342 1031 q 306 1044 306 1031 q 317 1069 306 1057 l 435 1219 q 453 1236 442 1229 q 506 1274 475 1258 q 560 1290 538 1290 q 581 1283 571 1290 l 714 1142 q 718 1128 718 1136 q 694 1087 718 1110 q 638 1047 669 1064 q 582 1029 606 1029 q 561 1036 571 1029 z "},"Ģ":{"ha":701,"x_min":7,"x_max":646,"o":"m 413 543 q 500 575 454 575 q 567 555 538 575 q 615 501 597 535 q 632 428 633 468 q 620 293 628 361 q 606 158 613 225 l 601 94 q 632 39 601 35 q 636 24 646 42 q 603 -19 626 7 q 553 -73 581 -46 q 501 -119 525 -100 q 465 -139 476 -137 q 421 -113 435 -143 q 407 -35 407 -83 q 407 -13 407 -24 q 408 8 407 -3 q 415 63 411 36 q 421 117 418 89 q 345 49 382 81 q 284 -2 308 18 q 256 -22 260 -22 q 219 -22 246 -22 q 160 -15 192 -22 q 101 13 128 -8 q 32 103 57 50 q 7 221 7 156 q 73 454 7 324 q 288 735 139 585 q 238 761 256 744 q 235 775 235 764 q 246 835 235 796 q 273 913 257 874 q 304 976 289 951 q 326 994 319 1001 q 383 967 346 976 q 458 958 419 958 q 534 967 499 958 q 582 988 569 975 q 592 994 589 994 q 596 983 596 994 q 588 935 596 967 q 567 868 579 904 q 540 803 554 832 q 515 763 526 774 q 459 733 497 743 q 382 722 421 722 q 238 526 283 615 q 192 364 192 436 q 214 268 192 311 q 276 190 236 225 q 333 165 304 168 q 367 161 363 161 q 385 177 367 161 q 431 215 404 193 q 435 278 433 249 q 410 363 438 340 q 353 385 383 385 q 307 371 324 385 q 282 357 289 357 q 284 378 274 357 q 317 432 294 400 q 365 494 339 464 q 413 543 390 525 m 325 -64 q 384 -120 361 -93 q 407 -178 407 -147 q 376 -246 407 -210 q 315 -299 354 -272 q 233 -346 276 -326 q 228 -349 231 -347 q 222 -350 225 -350 q 199 -342 210 -350 q 196 -328 188 -335 q 258 -268 228 -306 q 268 -246 268 -258 q 254 -209 268 -231 q 201 -157 240 -187 q 199 -149 199 -154 q 215 -121 199 -137 q 255 -89 232 -104 q 298 -65 278 -74 q 325 -64 318 -57 z "},"Ġ":{"ha":701,"x_min":7,"x_max":646,"o":"m 413 543 q 500 575 454 575 q 567 555 538 575 q 615 501 597 535 q 632 428 633 468 q 620 293 628 361 q 606 158 613 225 l 601 94 q 632 39 601 35 q 636 24 646 42 q 603 -19 626 7 q 553 -73 581 -46 q 501 -119 525 -100 q 465 -139 476 -137 q 421 -113 435 -143 q 407 -35 407 -83 q 407 -13 407 -24 q 408 8 407 -3 q 415 63 411 36 q 421 117 418 89 q 345 49 382 81 q 284 -2 308 18 q 256 -22 260 -22 q 219 -22 246 -22 q 160 -15 192 -22 q 101 13 128 -8 q 32 103 57 50 q 7 221 7 156 q 73 454 7 324 q 288 735 139 585 q 238 761 256 744 q 235 775 235 764 q 246 835 235 796 q 273 913 257 874 q 304 976 289 951 q 326 994 319 1001 q 383 967 346 976 q 458 958 419 958 q 534 967 499 958 q 582 988 569 975 q 592 994 589 994 q 596 983 596 994 q 588 935 596 967 q 567 868 579 904 q 540 803 554 832 q 515 763 526 774 q 459 733 497 743 q 382 722 421 722 q 238 526 283 615 q 192 364 192 436 q 214 268 192 311 q 276 190 236 225 q 333 165 304 168 q 367 161 363 161 q 385 177 367 161 q 431 215 404 193 q 435 278 433 249 q 410 363 438 340 q 353 385 383 385 q 307 371 324 385 q 282 357 289 357 q 284 378 274 357 q 317 432 294 400 q 365 494 339 464 q 413 543 390 525 m 511 1300 l 617 1183 q 610 1163 621 1179 q 578 1124 599 1146 q 537 1082 558 1101 q 499 1051 515 1063 q 479 1044 483 1040 l 372 1161 q 380 1182 368 1165 q 412 1220 392 1199 q 453 1262 432 1242 q 491 1293 475 1282 q 511 1300 507 1304 z "},"Ɠ":{"ha":697,"x_min":14,"x_max":910,"o":"m 419 543 q 507 575 461 575 q 574 555 544 575 q 622 501 604 535 q 639 428 640 468 q 627 293 635 361 q 613 158 619 225 q 608 94 608 121 q 639 39 608 35 q 643 24 653 42 q 610 -19 633 7 q 560 -73 588 -46 q 508 -119 532 -100 q 472 -139 483 -137 q 428 -113 442 -143 q 414 -35 414 -83 q 414 -13 414 -24 q 415 8 414 -3 q 422 63 418 36 q 428 117 425 89 q 352 49 389 81 q 291 -2 315 18 q 263 -22 267 -22 q 226 -22 253 -22 q 167 -15 199 -22 q 108 13 135 -8 q 39 103 64 50 q 14 222 14 156 q 81 457 14 325 q 299 742 147 589 q 242 763 265 749 q 236 776 236 765 q 247 835 236 797 q 274 911 258 872 q 305 975 290 950 q 328 996 319 1000 q 394 975 354 982 q 408 1014 399 993 q 433 1057 417 1035 q 475 1113 449 1082 q 535 1171 501 1143 q 650 1249 593 1219 q 758 1278 707 1278 q 838 1253 801 1278 q 904 1176 875 1229 q 891 1140 910 1167 q 841 1080 872 1113 q 776 1019 810 1047 q 716 977 742 992 q 685 974 690 963 q 623 1047 654 1028 q 564 1065 592 1065 q 517 1055 538 1065 q 490 1040 497 1044 q 478 1009 483 1026 q 472 969 474 992 q 590 993 546 972 q 600 981 600 999 q 590 928 600 963 q 567 857 581 894 q 538 792 553 819 q 513 760 524 764 q 461 742 492 749 q 397 733 431 736 q 246 533 293 625 q 199 365 199 440 q 221 269 199 313 q 283 190 243 225 q 340 165 311 168 q 374 161 369 161 q 392 177 374 161 q 438 215 411 193 q 442 278 440 249 q 417 363 444 340 q 360 385 390 385 q 314 371 331 385 q 289 357 296 357 q 291 378 281 357 q 324 432 301 400 q 372 494 346 464 q 419 543 397 525 z "},"Ɂ":{"ha":517,"x_min":0,"x_max":517,"o":"m 228 89 q 203 49 226 72 q 154 8 181 25 q 113 -10 128 -10 q 103 3 101 -10 l 88 100 q 116 153 92 119 q 173 222 140 188 q 233 281 206 257 q 288 365 272 329 q 304 424 304 400 q 288 460 304 449 q 247 472 272 472 q 163 449 210 472 q 82 381 115 425 q 41 335 58 350 q 13 321 24 321 q 0 339 0 321 q 16 392 0 358 q 63 467 32 426 q 194 602 125 547 q 326 685 263 657 q 436 713 390 713 q 495 694 474 713 q 517 639 517 676 q 467 499 517 588 q 299 283 418 411 q 271 254 285 268 l 228 89 z "},"Ḡ":{"ha":701,"x_min":7,"x_max":717,"o":"m 413 543 q 500 575 454 575 q 567 555 538 575 q 615 501 597 535 q 632 428 633 468 q 620 293 628 361 q 606 158 613 225 l 601 94 q 632 39 601 35 q 636 24 646 42 q 603 -19 626 7 q 553 -73 581 -46 q 501 -119 525 -100 q 465 -139 476 -137 q 421 -113 435 -143 q 407 -35 407 -83 q 407 -13 407 -24 q 408 8 407 -3 q 415 63 411 36 q 421 117 418 89 q 345 49 382 81 q 284 -2 308 18 q 256 -22 260 -22 q 219 -22 246 -22 q 160 -15 192 -22 q 101 13 128 -8 q 32 103 57 50 q 7 221 7 156 q 73 454 7 324 q 288 735 139 585 q 238 761 256 744 q 235 775 235 764 q 246 835 235 796 q 273 913 257 874 q 304 976 289 951 q 326 994 319 1001 q 383 967 346 976 q 458 958 419 958 q 534 967 499 958 q 582 988 569 975 q 592 994 589 994 q 596 983 596 994 q 588 935 596 967 q 567 868 579 904 q 540 803 554 832 q 515 763 526 774 q 459 733 497 743 q 382 722 421 722 q 238 526 283 615 q 192 364 192 436 q 214 268 192 311 q 276 190 236 225 q 333 165 304 168 q 367 161 363 161 q 385 177 367 161 q 431 215 404 193 q 435 278 433 249 q 410 363 438 340 q 353 385 383 385 q 307 371 324 385 q 282 357 289 357 q 284 378 274 357 q 317 432 294 400 q 365 494 339 464 q 413 543 390 525 m 388 1243 l 708 1240 q 717 1224 717 1240 q 710 1183 717 1208 q 692 1131 703 1157 q 669 1088 681 1106 q 650 1071 658 1071 l 329 1074 q 321 1089 321 1074 q 328 1131 321 1106 q 346 1183 335 1157 q 368 1226 357 1208 q 388 1243 379 1243 z "},"Ǥ":{"ha":843,"x_min":7,"x_max":788,"o":"m 413 543 q 500 575 454 575 q 591 535 553 575 q 632 440 629 496 l 782 442 q 788 428 788 442 q 777 372 788 408 q 752 298 767 336 q 722 233 738 260 q 699 206 707 206 l 610 204 q 606 158 607 179 l 601 94 q 632 39 601 35 q 636 24 646 42 q 603 -19 626 7 q 553 -73 581 -46 q 501 -119 525 -100 q 465 -139 476 -137 q 421 -113 435 -143 q 407 -35 407 -83 q 407 -13 407 -24 q 408 8 407 -3 q 415 63 411 36 q 421 117 418 89 q 345 49 382 81 q 284 -2 308 18 q 256 -22 260 -22 q 219 -22 246 -22 q 160 -15 192 -22 q 101 13 128 -8 q 32 103 57 50 q 7 221 7 156 q 73 454 7 324 q 288 735 139 585 q 238 761 256 744 q 235 775 235 764 q 246 835 235 796 q 273 913 257 874 q 304 976 289 951 q 326 994 319 1001 q 383 967 346 976 q 458 958 419 958 q 534 967 499 958 q 582 988 569 975 q 592 994 589 994 q 596 983 596 994 q 588 935 596 967 q 567 868 579 904 q 540 803 554 832 q 515 763 526 774 q 459 733 497 743 q 382 722 421 722 q 238 526 283 615 q 192 364 192 436 q 214 268 192 311 q 276 190 236 225 q 333 165 304 168 q 367 161 363 161 q 385 177 367 161 q 431 215 404 193 q 435 278 433 249 q 410 363 438 340 q 353 385 383 385 q 307 371 324 385 q 282 357 289 357 q 284 378 274 357 q 317 432 294 400 q 365 494 339 464 q 413 543 390 525 z "},"H":{"ha":807,"x_min":56,"x_max":751,"o":"m 276 992 q 317 961 304 999 q 329 871 329 924 q 329 852 329 861 q 328 833 329 843 l 311 608 l 496 610 l 501 678 l 503 731 q 495 796 503 778 q 481 811 488 814 q 472 824 464 807 q 504 866 481 840 q 556 919 528 892 q 611 968 585 947 q 650 992 638 989 q 690 961 678 999 q 703 871 703 924 q 703 852 703 861 q 701 833 703 843 l 685 610 l 746 610 q 751 596 751 610 q 742 544 751 578 q 719 474 733 511 q 691 410 706 438 q 667 375 676 382 l 661 303 q 657 250 660 272 q 654 213 654 228 q 661 188 654 194 q 688 183 668 181 q 694 169 703 186 q 661 124 685 151 q 609 69 638 97 q 556 22 581 42 q 518 0 531 3 q 475 37 494 -4 q 461 147 456 78 l 478 374 l 293 372 l 288 303 q 283 250 286 272 q 281 213 281 228 q 288 188 281 194 q 314 183 294 181 q 320 169 329 186 q 288 124 311 151 q 235 69 264 97 q 182 22 207 42 q 144 0 157 3 q 101 37 121 -4 q 88 147 82 78 l 104 372 l 61 372 q 56 386 56 372 q 66 440 56 404 q 91 515 76 476 q 121 581 106 554 l 128 678 l 129 731 q 122 796 129 778 q 107 811 114 814 q 99 824 90 807 q 131 866 107 840 q 183 919 154 892 q 238 968 211 947 q 276 992 264 989 z "},"Ħ":{"ha":890,"x_min":38,"x_max":844,"o":"m 128 538 l 158 538 l 167 633 l 44 633 q 38 643 38 633 q 52 688 38 660 q 88 740 67 717 q 132 763 110 763 l 169 763 q 149 811 164 815 q 140 824 132 807 q 172 866 149 840 q 224 919 196 892 q 279 968 253 947 q 318 992 306 989 q 358 961 346 999 q 371 871 371 924 q 371 852 371 861 q 369 833 371 843 l 364 763 l 543 764 q 522 811 538 815 q 514 824 506 807 q 546 866 522 840 q 598 919 569 892 q 653 968 626 947 q 692 992 679 989 q 732 961 719 999 q 744 871 744 924 q 744 852 744 861 q 743 833 744 843 l 738 764 l 838 764 q 844 754 844 764 q 831 710 844 739 q 799 658 817 682 q 769 635 781 635 l 728 635 l 721 539 l 775 539 q 781 525 781 539 q 771 465 781 500 q 748 401 761 429 q 722 374 735 374 l 708 374 l 703 303 q 699 250 701 272 q 696 213 696 228 q 703 188 696 194 q 729 183 710 181 q 735 169 744 186 q 703 124 726 151 q 651 69 679 97 q 597 22 622 42 q 560 0 572 3 q 517 37 536 -4 q 503 147 497 78 l 519 374 l 335 372 l 329 303 q 325 250 328 272 q 322 213 322 228 q 329 188 322 194 q 356 183 336 181 q 362 169 371 186 q 329 124 353 151 q 277 69 306 97 q 224 22 249 42 q 186 0 199 3 q 143 37 163 -4 q 129 147 124 78 l 146 372 l 75 372 q 69 386 69 372 q 79 447 69 411 q 103 510 89 482 q 128 538 117 538 m 354 633 l 347 538 l 532 539 l 540 635 l 354 633 z "},"Ĥ":{"ha":807,"x_min":56,"x_max":751,"o":"m 276 992 q 317 961 304 999 q 329 871 329 924 q 329 852 329 861 q 328 833 329 843 l 311 608 l 496 610 l 501 678 l 503 731 q 495 796 503 778 q 481 811 488 814 q 472 824 464 807 q 504 866 481 840 q 556 919 528 892 q 611 968 585 947 q 650 992 638 989 q 690 961 678 999 q 703 871 703 924 q 703 852 703 861 q 701 833 703 843 l 685 610 l 746 610 q 751 596 751 610 q 742 544 751 578 q 719 474 733 511 q 691 410 706 438 q 667 375 676 382 l 661 303 q 657 250 660 272 q 654 213 654 228 q 661 188 654 194 q 688 183 668 181 q 694 169 703 186 q 661 124 685 151 q 609 69 638 97 q 556 22 581 42 q 518 0 531 3 q 475 37 494 -4 q 461 147 456 78 l 478 374 l 293 372 l 288 303 q 283 250 286 272 q 281 213 281 228 q 288 188 281 194 q 314 183 294 181 q 320 169 329 186 q 288 124 311 151 q 235 69 264 97 q 182 22 207 42 q 144 0 157 3 q 101 37 121 -4 q 88 147 82 78 l 104 372 l 61 372 q 56 386 56 372 q 66 440 56 404 q 91 515 76 476 q 121 581 106 554 l 128 678 l 129 731 q 122 796 129 778 q 107 811 114 814 q 99 824 90 807 q 131 866 107 840 q 183 919 154 892 q 238 968 211 947 q 276 992 264 989 m 553 1035 l 451 1143 l 394 1071 q 356 1040 379 1051 q 318 1029 333 1029 q 297 1043 297 1029 q 308 1068 297 1056 l 426 1218 q 444 1235 433 1228 q 498 1273 467 1257 q 551 1289 529 1289 q 572 1282 563 1289 l 706 1140 q 710 1126 710 1135 q 685 1085 710 1108 q 629 1045 661 1063 q 574 1028 597 1028 q 553 1035 563 1028 z "},"Ḣ":{"ha":807,"x_min":56,"x_max":751,"o":"m 276 992 q 317 961 304 999 q 329 871 329 924 q 329 852 329 861 q 328 833 329 843 l 311 608 l 496 610 l 501 678 l 503 731 q 495 796 503 778 q 481 811 488 814 q 472 824 464 807 q 504 866 481 840 q 556 919 528 892 q 611 968 585 947 q 650 992 638 989 q 690 961 678 999 q 703 871 703 924 q 703 852 703 861 q 701 833 703 843 l 685 610 l 746 610 q 751 596 751 610 q 742 544 751 578 q 719 474 733 511 q 691 410 706 438 q 667 375 676 382 l 661 303 q 657 250 660 272 q 654 213 654 228 q 661 188 654 194 q 688 183 668 181 q 694 169 703 186 q 661 124 685 151 q 609 69 638 97 q 556 22 581 42 q 518 0 531 3 q 475 37 494 -4 q 461 147 456 78 l 478 374 l 293 372 l 288 303 q 283 250 286 272 q 281 213 281 228 q 288 188 281 194 q 314 183 294 181 q 320 169 329 186 q 288 124 311 151 q 235 69 264 97 q 182 22 207 42 q 144 0 157 3 q 101 37 121 -4 q 88 147 82 78 l 104 372 l 61 372 q 56 386 56 372 q 66 440 56 404 q 91 515 76 476 q 121 581 106 554 l 128 678 l 129 731 q 122 796 129 778 q 107 811 114 814 q 99 824 90 807 q 131 866 107 840 q 183 919 154 892 q 238 968 211 947 q 276 992 264 989 m 503 1299 l 608 1182 q 601 1161 613 1178 q 570 1122 590 1144 q 528 1081 550 1100 q 491 1050 507 1061 q 471 1043 475 1039 l 364 1160 q 372 1181 360 1164 q 403 1219 383 1197 q 445 1260 424 1240 q 483 1292 467 1281 q 503 1299 499 1303 z "},"Ḥ":{"ha":807,"x_min":56,"x_max":751,"o":"m 276 992 q 317 961 304 999 q 329 871 329 924 q 329 852 329 861 q 328 833 329 843 l 311 608 l 496 610 l 501 678 l 503 731 q 495 796 503 778 q 481 811 488 814 q 472 824 464 807 q 504 866 481 840 q 556 919 528 892 q 611 968 585 947 q 650 992 638 989 q 690 961 678 999 q 703 871 703 924 q 703 852 703 861 q 701 833 703 843 l 685 610 l 746 610 q 751 596 751 610 q 742 544 751 578 q 719 474 733 511 q 691 410 706 438 q 667 375 676 382 l 661 303 q 657 250 660 272 q 654 213 654 228 q 661 188 654 194 q 688 183 668 181 q 694 169 703 186 q 661 124 685 151 q 609 69 638 97 q 556 22 581 42 q 518 0 531 3 q 475 37 494 -4 q 461 147 456 78 l 478 374 l 293 372 l 288 303 q 283 250 286 272 q 281 213 281 228 q 288 188 281 194 q 314 183 294 181 q 320 169 329 186 q 288 124 311 151 q 235 69 264 97 q 182 22 207 42 q 144 0 157 3 q 101 37 121 -4 q 88 147 82 78 l 104 372 l 61 372 q 56 386 56 372 q 66 440 56 404 q 91 515 76 476 q 121 581 106 554 l 128 678 l 129 731 q 122 796 129 778 q 107 811 114 814 q 99 824 90 807 q 131 866 107 840 q 183 919 154 892 q 238 968 211 947 q 276 992 264 989 m 407 -74 l 503 -178 q 490 -205 507 -183 q 449 -251 474 -226 q 403 -292 424 -275 q 378 -303 382 -308 l 282 -197 q 294 -171 278 -192 q 335 -125 310 -150 q 381 -84 360 -100 q 407 -74 403 -68 z "},"Ɦ":{"ha":1029,"x_min":14,"x_max":974,"o":"m 367 0 q 320 29 333 -6 q 307 111 307 64 q 308 129 307 121 q 310 147 308 138 l 326 372 l 283 372 q 278 386 278 372 q 288 440 278 404 q 313 515 299 476 q 343 581 328 554 l 350 678 q 355 744 353 717 q 357 788 357 771 q 347 817 357 817 l 289 818 q 216 813 242 818 q 178 799 190 808 q 156 775 165 789 q 153 749 153 761 q 172 702 153 717 q 215 688 192 688 q 269 703 246 688 q 288 710 281 710 q 296 700 296 710 q 284 660 296 686 q 254 606 272 635 q 215 552 236 576 q 178 517 194 528 q 147 502 163 507 q 118 497 132 497 q 44 534 75 497 q 14 626 14 571 q 28 697 14 661 q 43 720 32 707 q 68 747 54 733 q 219 907 150 856 q 348 974 289 958 q 460 990 407 990 l 511 989 q 542 957 531 988 q 553 874 553 926 q 552 854 553 864 q 550 833 551 844 l 533 608 l 718 610 l 724 678 l 725 729 q 717 792 725 776 q 703 806 710 808 q 694 818 686 801 q 726 860 703 835 q 778 914 750 886 q 833 963 807 942 q 872 986 860 983 q 906 970 894 992 q 923 912 918 949 q 924 833 928 875 l 907 610 l 968 610 q 974 596 974 610 q 965 544 974 578 q 942 474 956 511 q 913 410 928 438 q 889 375 899 382 l 883 303 q 879 250 882 272 q 876 213 876 228 q 883 188 876 194 q 910 183 890 181 q 916 169 925 186 q 883 124 907 151 q 831 69 860 97 q 778 22 803 42 q 740 0 753 3 q 697 37 717 -4 q 683 147 678 78 l 700 374 l 515 372 l 510 303 l 507 238 q 514 192 507 203 q 536 183 521 182 q 542 169 551 186 q 510 124 533 151 q 458 69 486 97 q 404 22 429 42 q 367 0 379 3 z "},"Ɥ":{"ha":717,"x_min":49,"x_max":661,"o":"m 235 986 q 269 970 257 992 q 285 912 281 949 q 288 833 290 875 l 275 646 q 329 651 303 651 q 400 643 363 651 q 431 634 417 639 q 456 625 444 629 l 460 678 l 461 729 q 453 792 461 776 q 439 806 446 808 q 431 818 422 801 q 463 860 439 835 q 515 914 486 886 q 569 963 543 942 q 608 986 596 983 q 649 958 636 993 q 661 871 661 922 q 661 852 661 861 q 660 833 661 843 l 619 303 q 615 250 618 272 q 613 213 613 228 q 619 188 613 194 q 646 183 626 181 q 652 169 661 186 q 619 124 643 151 q 567 69 596 97 q 514 22 539 42 q 476 0 489 3 q 433 37 453 -4 q 419 147 414 78 l 436 367 q 383 384 408 372 q 314 407 358 396 q 244 417 281 417 q 167 407 203 417 q 106 385 132 397 q 77 372 88 375 q 67 378 67 369 l 85 678 l 88 726 q 81 792 88 775 q 65 806 74 808 q 57 818 49 801 q 89 860 65 835 q 141 914 113 886 q 196 963 169 942 q 235 986 222 983 z "},"I":{"ha":382,"x_min":65,"x_max":313,"o":"m 260 986 q 300 958 288 993 q 313 871 313 924 q 313 853 313 863 q 311 833 313 843 l 271 303 q 267 250 269 272 q 264 213 264 228 q 271 188 264 194 q 297 183 278 181 q 303 169 313 186 q 271 124 294 151 q 219 69 247 97 q 165 22 190 42 q 128 0 140 3 q 85 37 104 -4 q 71 147 65 78 l 111 678 l 113 731 q 105 793 113 778 q 90 806 97 808 q 82 818 74 801 q 114 860 90 835 q 166 914 138 886 q 221 963 194 942 q 260 986 247 983 z "},"Ĳ":{"ha":975,"x_min":65,"x_max":926,"o":"m 260 986 q 300 958 288 993 q 313 871 313 924 q 313 853 313 863 q 311 833 313 843 l 271 303 q 267 250 269 272 q 264 213 264 228 q 271 188 264 194 q 297 183 278 181 q 303 169 313 186 q 271 124 294 151 q 219 69 247 97 q 165 22 190 42 q 128 0 140 3 q 85 37 104 -4 q 71 147 65 78 l 111 678 l 113 731 q 105 793 113 778 q 90 806 97 808 q 82 818 74 801 q 114 860 90 835 q 166 914 138 886 q 221 963 194 942 q 260 986 247 983 m 531 -17 q 506 35 526 4 q 458 93 486 65 q 403 137 431 121 q 357 146 376 153 q 347 150 347 142 q 365 192 347 163 q 409 254 383 221 q 459 313 435 288 q 496 343 483 339 q 514 346 507 346 q 573 324 542 346 q 631 272 604 303 q 674 211 658 240 q 678 251 675 228 q 683 304 681 274 l 724 678 l 726 736 q 718 798 726 781 q 703 813 710 815 q 694 825 686 808 q 726 867 703 842 q 778 921 750 893 q 833 969 807 949 q 872 993 860 990 q 913 963 900 1000 q 926 875 926 926 q 926 855 926 865 q 924 833 926 844 l 883 460 q 881 408 882 438 q 869 342 879 379 q 829 256 858 304 q 741 147 800 208 q 583 8 682 85 q 553 -12 565 -6 q 531 -17 533 -28 z "},"Í":{"ha":386,"x_min":65,"x_max":510,"o":"m 260 986 q 300 958 288 993 q 313 871 313 924 q 313 853 313 863 q 311 833 313 843 l 271 303 q 267 250 269 272 q 264 213 264 228 q 271 188 264 194 q 297 183 278 181 q 303 169 313 186 q 271 124 294 151 q 219 69 247 97 q 165 22 190 42 q 128 0 140 3 q 85 37 104 -4 q 71 147 65 78 l 111 678 l 113 731 q 105 793 113 778 q 90 806 97 808 q 82 818 74 801 q 114 860 90 835 q 166 914 138 886 q 221 963 194 942 q 260 986 247 983 m 185 1092 q 204 1126 192 1101 q 230 1180 217 1151 q 253 1228 243 1208 q 263 1249 263 1249 q 316 1287 278 1269 q 397 1315 354 1304 q 471 1325 440 1325 q 510 1308 510 1325 q 504 1293 510 1300 q 485 1270 503 1290 q 441 1222 467 1250 q 390 1167 415 1194 q 349 1121 365 1139 q 332 1103 332 1103 q 287 1078 322 1088 q 222 1068 251 1068 q 188 1074 200 1068 q 185 1092 176 1079 z "},"Ǐ":{"ha":382,"x_min":65,"x_max":485,"o":"m 260 986 q 300 958 288 993 q 313 871 313 924 q 313 853 313 863 q 311 833 313 843 l 271 303 q 267 250 269 272 q 264 213 264 228 q 271 188 264 194 q 297 183 278 181 q 303 169 313 186 q 271 124 294 151 q 219 69 247 97 q 165 22 190 42 q 128 0 140 3 q 85 37 104 -4 q 71 147 65 78 l 111 678 l 113 731 q 105 793 113 778 q 90 806 97 808 q 82 818 74 801 q 114 860 90 835 q 166 914 138 886 q 221 963 194 942 q 260 986 247 983 m 229 1317 l 331 1208 l 388 1281 q 426 1311 403 1300 q 464 1322 449 1322 q 485 1308 485 1322 q 474 1283 485 1296 l 356 1133 q 338 1117 349 1124 q 284 1078 315 1094 q 231 1063 253 1063 q 210 1069 219 1063 l 76 1211 q 72 1225 72 1218 q 97 1266 72 1243 q 153 1306 121 1289 q 208 1324 186 1324 q 229 1317 219 1324 z "},"Î":{"ha":382,"x_min":65,"x_max":489,"o":"m 260 986 q 300 958 288 993 q 313 871 313 924 q 313 853 313 863 q 311 833 313 843 l 271 303 q 267 250 269 272 q 264 213 264 228 q 271 188 264 194 q 297 183 278 181 q 303 169 313 186 q 271 124 294 151 q 219 69 247 97 q 165 22 190 42 q 128 0 140 3 q 85 37 104 -4 q 71 147 65 78 l 111 678 l 113 731 q 105 793 113 778 q 90 806 97 808 q 82 818 74 801 q 114 860 90 835 q 166 914 138 886 q 221 963 194 942 q 260 986 247 983 m 332 1050 l 231 1158 l 174 1086 q 135 1056 158 1067 q 97 1044 113 1044 q 76 1058 76 1044 q 88 1083 76 1071 l 206 1233 q 224 1250 213 1243 q 277 1288 246 1272 q 331 1304 308 1304 q 351 1297 342 1304 l 485 1156 q 489 1142 489 1150 q 465 1101 489 1124 q 408 1060 440 1078 q 353 1043 376 1043 q 332 1050 342 1043 z "},"Ȉ":{"ha":382,"x_min":-57,"x_max":524,"o":"m 260 986 q 300 958 288 993 q 313 871 313 924 q 313 853 313 863 q 311 833 313 843 l 271 303 q 267 250 269 272 q 264 213 264 228 q 271 188 264 194 q 297 183 278 181 q 303 169 313 186 q 271 124 294 151 q 219 69 247 97 q 165 22 190 42 q 128 0 140 3 q 85 37 104 -4 q 71 147 65 78 l 111 678 l 113 731 q 105 793 113 778 q 90 806 97 808 q 82 818 74 801 q 114 860 90 835 q 166 914 138 886 q 221 963 194 942 q 260 986 247 983 m 268 1108 q 265 1090 276 1096 q 231 1085 253 1085 q 167 1094 201 1085 q 121 1119 132 1104 q 104 1138 121 1119 q 63 1183 88 1156 q 12 1239 38 1211 q -31 1287 -14 1267 q -51 1310 -49 1307 q -57 1325 -57 1317 q -18 1342 -57 1342 q 56 1331 13 1342 q 137 1303 99 1321 q 190 1265 175 1286 q 200 1245 190 1265 q 223 1197 210 1225 q 249 1143 236 1168 q 268 1108 263 1118 m 515 1107 q 512 1089 524 1094 q 478 1083 500 1083 q 414 1093 449 1083 q 368 1118 379 1103 q 351 1136 368 1118 q 310 1182 335 1154 q 259 1238 285 1210 q 216 1285 233 1265 q 196 1308 199 1306 q 190 1324 190 1315 q 229 1340 190 1340 q 303 1330 260 1340 q 384 1302 346 1319 q 438 1264 422 1285 q 447 1244 438 1264 q 470 1195 457 1224 q 497 1142 483 1167 q 515 1107 510 1117 z "},"Ï":{"ha":382,"x_min":6,"x_max":531,"o":"m 260 986 q 300 958 288 993 q 313 871 313 924 q 313 853 313 863 q 311 833 313 843 l 271 303 q 267 250 269 272 q 264 213 264 228 q 271 188 264 194 q 297 183 278 181 q 303 169 313 186 q 271 124 294 151 q 219 69 247 97 q 165 22 190 42 q 128 0 140 3 q 85 37 104 -4 q 71 147 65 78 l 111 678 l 113 731 q 105 793 113 778 q 90 806 97 808 q 82 818 74 801 q 114 860 90 835 q 166 914 138 886 q 221 963 194 942 q 260 986 247 983 m 421 1315 l 526 1199 q 519 1178 531 1194 q 488 1139 508 1161 q 447 1097 468 1117 q 409 1067 425 1078 q 389 1060 393 1056 l 282 1176 q 290 1197 278 1181 q 322 1235 301 1214 q 363 1277 342 1257 q 401 1308 385 1297 q 421 1315 417 1319 m 149 1313 l 254 1196 q 247 1175 258 1192 q 216 1136 236 1158 q 174 1094 196 1114 q 137 1064 153 1075 q 117 1057 121 1053 l 10 1174 q 17 1194 6 1178 q 49 1233 29 1211 q 91 1274 69 1254 q 128 1306 113 1294 q 149 1313 144 1317 z "},"Ḯ":{"ha":382,"x_min":6,"x_max":531,"o":"m 260 986 q 300 958 288 993 q 313 871 313 924 q 313 853 313 863 q 311 833 313 843 l 271 303 q 267 250 269 272 q 264 213 264 228 q 271 188 264 194 q 297 183 278 181 q 303 169 313 186 q 271 124 294 151 q 219 69 247 97 q 165 22 190 42 q 128 0 140 3 q 85 37 104 -4 q 71 147 65 78 l 111 678 l 113 731 q 105 793 113 778 q 90 806 97 808 q 82 818 74 801 q 114 860 90 835 q 166 914 138 886 q 221 963 194 942 q 260 986 247 983 m 421 1315 l 526 1199 q 519 1178 531 1194 q 488 1139 508 1161 q 447 1097 468 1117 q 409 1067 425 1078 q 389 1060 393 1056 l 282 1176 q 290 1197 278 1181 q 322 1235 301 1214 q 363 1277 342 1257 q 401 1308 385 1297 q 421 1315 417 1319 m 149 1313 l 254 1196 q 247 1175 258 1192 q 216 1136 236 1158 q 174 1094 196 1114 q 137 1064 153 1075 q 117 1057 121 1053 l 10 1174 q 17 1194 6 1178 q 49 1233 29 1211 q 91 1274 69 1254 q 128 1306 113 1294 q 149 1313 144 1317 m 199 1369 q 218 1404 206 1379 q 244 1458 231 1429 q 267 1506 257 1486 q 276 1526 276 1526 q 330 1565 292 1547 q 411 1592 368 1582 q 485 1603 454 1603 q 524 1586 524 1603 q 518 1571 524 1578 q 499 1548 517 1568 q 455 1500 481 1528 q 404 1444 429 1472 q 363 1399 379 1417 q 346 1381 346 1381 q 301 1356 336 1365 q 236 1346 265 1346 q 202 1351 214 1346 q 199 1369 190 1357 z "},"İ":{"ha":432,"x_min":65,"x_max":392,"o":"m 260 986 q 300 958 288 993 q 313 871 313 924 q 313 853 313 863 q 311 833 313 843 l 271 303 q 267 250 269 272 q 264 213 264 228 q 271 188 264 194 q 297 183 278 181 q 303 169 313 186 q 271 124 294 151 q 219 69 247 97 q 165 22 190 42 q 128 0 140 3 q 85 37 104 -4 q 71 147 65 78 l 111 678 l 113 731 q 105 793 113 778 q 90 806 97 808 q 82 818 74 801 q 114 860 90 835 q 166 914 138 886 q 221 963 194 942 q 260 986 247 983 m 282 1314 l 388 1197 q 381 1176 392 1193 q 349 1138 369 1160 q 308 1096 329 1115 q 270 1065 286 1076 q 250 1058 254 1054 l 143 1175 q 151 1196 139 1179 q 183 1234 163 1213 q 224 1276 203 1256 q 262 1307 246 1296 q 282 1314 278 1318 z "},"Ị":{"ha":382,"x_min":63,"x_max":313,"o":"m 260 986 q 300 958 288 993 q 313 871 313 924 q 313 853 313 863 q 311 833 313 843 l 271 303 q 267 250 269 272 q 264 213 264 228 q 271 188 264 194 q 297 183 278 181 q 303 169 313 186 q 271 124 294 151 q 219 69 247 97 q 165 22 190 42 q 128 0 140 3 q 85 37 104 -4 q 71 147 65 78 l 111 678 l 113 731 q 105 793 113 778 q 90 806 97 808 q 82 818 74 801 q 114 860 90 835 q 166 914 138 886 q 221 963 194 942 q 260 986 247 983 m 192 -71 l 288 -175 q 275 -202 292 -181 q 233 -248 258 -224 q 188 -289 208 -272 q 163 -300 167 -306 l 67 -194 q 78 -168 63 -189 q 119 -122 94 -147 q 166 -81 144 -97 q 192 -71 188 -65 z "},"Ì":{"ha":382,"x_min":-43,"x_max":313,"o":"m 260 986 q 300 958 288 993 q 313 871 313 924 q 313 853 313 863 q 311 833 313 843 l 271 303 q 267 250 269 272 q 264 213 264 228 q 271 188 264 194 q 297 183 278 181 q 303 169 313 186 q 271 124 294 151 q 219 69 247 97 q 165 22 190 42 q 128 0 140 3 q 85 37 104 -4 q 71 147 65 78 l 111 678 l 113 731 q 105 793 113 778 q 90 806 97 808 q 82 818 74 801 q 114 860 90 835 q 166 914 138 886 q 221 963 194 942 q 260 986 247 983 m 282 1092 q 278 1074 290 1079 q 244 1068 267 1068 q 181 1078 215 1068 q 135 1103 146 1088 q 118 1121 135 1103 q 76 1167 101 1139 q 26 1222 51 1194 q -17 1270 0 1250 q -37 1293 -35 1290 q -43 1308 -43 1300 q -4 1325 -43 1325 q 69 1315 26 1325 q 151 1287 113 1304 q 204 1249 189 1269 q 214 1228 204 1249 q 237 1180 224 1208 q 263 1126 250 1151 q 282 1092 276 1101 z "},"Ỉ":{"ha":382,"x_min":65,"x_max":396,"o":"m 260 986 q 300 958 288 993 q 313 871 313 924 q 313 853 313 863 q 311 833 313 843 l 271 303 q 267 250 269 272 q 264 213 264 228 q 271 188 264 194 q 297 183 278 181 q 303 169 313 186 q 271 124 294 151 q 219 69 247 97 q 165 22 190 42 q 128 0 140 3 q 85 37 104 -4 q 71 147 65 78 l 111 678 l 113 731 q 105 793 113 778 q 90 806 97 808 q 82 818 74 801 q 114 860 90 835 q 166 914 138 886 q 221 963 194 942 q 260 986 247 983 m 238 1083 q 263 1125 263 1113 q 231 1142 263 1142 q 203 1140 218 1142 q 172 1135 189 1138 q 169 1134 171 1135 q 167 1133 168 1133 q 157 1147 157 1133 q 167 1188 157 1163 q 193 1238 178 1213 q 224 1283 208 1264 q 253 1304 240 1303 q 264 1306 258 1306 q 275 1307 269 1307 q 331 1295 303 1307 q 377 1261 358 1283 q 396 1207 396 1239 q 385 1163 396 1186 q 351 1111 375 1139 q 294 1071 329 1086 q 240 1056 260 1056 q 226 1064 226 1056 q 238 1083 226 1072 z "},"Ī":{"ha":382,"x_min":65,"x_max":488,"o":"m 260 986 q 300 958 288 993 q 313 871 313 924 q 313 853 313 863 q 311 833 313 843 l 271 303 q 267 250 269 272 q 264 213 264 228 q 271 188 264 194 q 297 183 278 181 q 303 169 313 186 q 271 124 294 151 q 219 69 247 97 q 165 22 190 42 q 128 0 140 3 q 85 37 104 -4 q 71 147 65 78 l 111 678 l 113 731 q 105 793 113 778 q 90 806 97 808 q 82 818 74 801 q 114 860 90 835 q 166 914 138 886 q 221 963 194 942 q 260 986 247 983 m 158 1257 l 479 1254 q 488 1238 488 1254 q 481 1197 488 1222 q 463 1145 474 1171 q 440 1102 451 1119 q 421 1085 429 1085 l 100 1088 q 92 1103 92 1088 q 99 1145 92 1119 q 117 1197 106 1171 q 139 1240 128 1222 q 158 1257 150 1257 z "},"Į":{"ha":415,"x_min":-69,"x_max":346,"o":"m 293 986 q 333 958 321 993 q 346 871 346 924 q 346 853 346 863 q 344 833 346 843 l 304 303 q 300 250 303 272 q 297 213 297 228 q 304 188 297 194 q 331 183 311 181 q 337 169 346 186 q 304 124 328 151 q 252 69 281 97 q 199 22 224 42 q 161 0 174 3 q 118 37 138 -4 q 104 147 99 78 l 144 678 l 146 731 q 138 793 146 778 q 124 806 131 808 q 115 818 107 801 q 147 860 124 835 q 199 914 171 886 q 254 963 228 942 q 293 986 281 983 m 167 -360 q 36 -400 99 -400 q -40 -376 -10 -400 q -69 -306 -69 -353 q -19 -164 -69 -251 q 156 46 32 -76 q 240 118 204 94 q 289 142 275 142 q 285 117 300 142 q 222 43 271 92 q 158 -47 178 -1 q 139 -128 139 -92 q 157 -194 139 -168 q 206 -219 175 -219 q 247 -207 225 -219 q 282 -193 269 -193 q 293 -206 293 -193 q 275 -251 293 -221 q 228 -311 257 -281 q 167 -360 199 -342 z "},"Ɩ":{"ha":407,"x_min":0,"x_max":365,"o":"m 199 -14 q 110 -6 143 -8 q 58 -3 78 -3 q 26 -7 33 -3 q 11 -18 19 -11 q 4 -21 8 -21 q 0 -10 0 -21 q 12 51 0 10 q 39 131 24 92 q 40 147 39 139 l 81 678 l 82 731 q 74 793 82 778 q 60 806 67 808 q 51 818 43 801 q 83 860 60 835 q 135 914 107 886 q 190 963 164 942 q 229 986 217 983 q 269 958 257 993 q 282 871 282 924 q 282 853 282 863 q 281 833 282 843 l 240 303 q 236 250 239 272 q 233 213 233 228 l 233 211 q 288 203 258 207 q 354 194 318 199 q 365 182 365 194 q 345 131 365 164 q 297 65 325 99 q 241 8 268 31 q 199 -14 214 -15 z "},"Ɨ":{"ha":382,"x_min":-22,"x_max":386,"o":"m 260 986 q 300 958 288 993 q 313 871 313 924 q 313 853 313 863 q 311 833 313 843 l 271 303 q 267 250 269 272 q 264 213 264 228 q 271 188 264 194 q 297 183 278 181 q 303 169 313 186 q 271 124 294 151 q 219 69 247 97 q 165 22 190 42 q 128 0 140 3 q 85 37 104 -4 q 71 147 65 78 l 111 678 l 113 731 q 105 793 113 778 q 90 806 97 808 q 82 818 74 801 q 114 860 90 835 q 166 914 138 886 q 221 963 194 942 q 260 986 247 983 m 67 614 l 381 617 q 386 603 386 617 q 376 547 386 583 q 351 473 365 511 q 321 408 336 435 q 297 381 306 381 l -17 378 q -22 392 -22 378 q -12 447 -22 411 q 13 522 -1 483 q 42 587 28 560 q 67 614 57 614 z "},"Ĩ":{"ha":382,"x_min":65,"x_max":458,"o":"m 260 986 q 300 958 288 993 q 313 871 313 924 q 313 853 313 863 q 311 833 313 843 l 271 303 q 267 250 269 272 q 264 213 264 228 q 271 188 264 194 q 297 183 278 181 q 303 169 313 186 q 271 124 294 151 q 219 69 247 97 q 165 22 190 42 q 128 0 140 3 q 85 37 104 -4 q 71 147 65 78 l 111 678 l 113 731 q 105 793 113 778 q 90 806 97 808 q 82 818 74 801 q 114 860 90 835 q 166 914 138 886 q 221 963 194 942 q 260 986 247 983 m 406 1114 q 356 1076 381 1088 q 308 1064 332 1064 q 282 1068 294 1064 q 247 1092 263 1075 q 219 1126 232 1108 q 193 1147 207 1143 q 179 1150 185 1150 q 156 1141 169 1150 q 118 1108 142 1132 q 97 1094 104 1094 q 89 1113 89 1094 q 103 1176 89 1136 q 140 1239 118 1217 q 203 1289 176 1276 q 247 1301 229 1301 q 271 1297 261 1301 q 305 1273 290 1290 q 333 1239 319 1256 q 360 1218 346 1222 q 375 1217 364 1217 q 404 1225 390 1217 q 431 1247 418 1233 q 450 1260 442 1260 q 458 1243 458 1260 q 443 1178 458 1219 q 406 1114 428 1138 z "},"Ḭ":{"ha":382,"x_min":-43,"x_max":326,"o":"m 260 986 q 300 958 288 993 q 313 871 313 924 q 313 853 313 863 q 311 833 313 843 l 271 303 q 267 250 269 272 q 264 213 264 228 q 271 188 264 194 q 297 183 278 181 q 303 169 313 186 q 271 124 294 151 q 219 69 247 97 q 165 22 190 42 q 128 0 140 3 q 85 37 104 -4 q 71 147 65 78 l 111 678 l 113 731 q 105 793 113 778 q 90 806 97 808 q 82 818 74 801 q 114 860 90 835 q 166 914 138 886 q 221 963 194 942 q 260 986 247 983 m 274 -236 q 224 -274 249 -262 q 176 -286 200 -286 q 150 -282 163 -286 q 115 -258 131 -275 q 88 -224 100 -242 q 61 -203 75 -207 q 47 -200 53 -200 q 24 -209 38 -200 q -14 -242 10 -218 q -35 -256 -28 -256 q -43 -237 -43 -256 q -28 -174 -43 -214 q 8 -111 -14 -133 q 71 -61 44 -74 q 115 -49 97 -49 q 139 -53 129 -49 q 173 -77 158 -60 q 201 -111 188 -94 q 228 -132 214 -128 q 243 -133 232 -133 q 272 -125 258 -133 q 299 -103 286 -117 q 318 -90 310 -90 q 326 -107 326 -90 q 311 -172 326 -131 q 274 -236 296 -212 z "},"J":{"ha":593,"x_min":-35,"x_max":544,"o":"m 149 -17 q 124 35 144 4 q 76 93 104 65 q 22 137 49 121 q -25 146 -6 153 q -35 150 -35 142 q -17 192 -35 163 q 27 254 1 221 q 77 313 53 288 q 114 343 101 339 q 132 346 125 346 q 191 324 160 346 q 249 272 222 303 q 292 211 276 240 q 296 251 293 228 q 301 304 299 274 l 342 678 l 344 736 q 336 798 344 781 q 321 813 328 815 q 313 825 304 808 q 344 867 321 842 q 397 921 368 893 q 451 969 425 949 q 490 993 478 990 q 531 963 518 1000 q 544 875 544 926 q 544 855 544 865 q 542 833 544 844 l 501 460 q 499 408 500 438 q 487 342 497 379 q 447 256 476 304 q 359 147 418 208 q 201 8 300 85 q 171 -12 183 -6 q 149 -17 151 -28 z "},"Ĵ":{"ha":593,"x_min":-35,"x_max":661,"o":"m 149 -17 q 124 35 144 4 q 76 93 104 65 q 22 137 49 121 q -25 146 -6 153 q -35 150 -35 142 q -17 192 -35 163 q 27 254 1 221 q 77 313 53 288 q 114 343 101 339 q 132 346 125 346 q 191 324 160 346 q 249 272 222 303 q 292 211 276 240 q 296 251 293 228 q 301 304 299 274 l 342 678 l 344 736 q 336 798 344 781 q 321 813 328 815 q 313 825 304 808 q 344 867 321 842 q 397 921 368 893 q 451 969 425 949 q 490 993 478 990 q 531 963 518 1000 q 544 875 544 926 q 544 855 544 865 q 542 833 544 844 l 501 460 q 499 408 500 438 q 487 342 497 379 q 447 256 476 304 q 359 147 418 208 q 201 8 300 85 q 171 -12 183 -6 q 149 -17 151 -28 m 504 1000 l 403 1108 l 346 1036 q 308 1006 331 1017 q 269 994 285 994 q 249 1008 249 994 q 260 1033 249 1021 l 378 1183 q 396 1200 385 1193 q 449 1238 418 1222 q 503 1254 481 1254 q 524 1247 514 1254 l 657 1106 q 661 1092 661 1100 q 637 1051 661 1074 q 581 1010 613 1028 q 525 993 549 993 q 504 1000 514 993 z "},"K":{"ha":778,"x_min":49,"x_max":743,"o":"m 661 760 q 597 724 635 735 l 460 576 q 496 495 475 543 q 541 396 517 447 q 592 299 565 344 q 649 224 619 253 q 707 192 678 194 q 707 170 717 190 q 675 122 697 150 q 627 65 653 93 q 580 17 601 36 q 549 0 558 -1 q 485 34 517 3 q 425 113 454 65 q 371 213 396 160 q 326 315 346 267 q 290 394 306 363 l 256 357 l 253 319 l 250 260 q 257 221 250 231 q 281 211 264 211 q 284 190 294 211 q 250 137 274 168 q 197 74 226 106 q 144 22 168 43 q 108 0 119 0 q 61 28 74 0 q 49 100 49 57 q 53 164 49 131 l 93 689 l 94 747 q 90 795 94 783 q 76 804 85 807 q 64 807 64 799 q 85 842 64 817 q 135 899 106 868 q 192 955 164 931 q 238 985 221 979 q 251 988 243 988 q 285 956 275 988 q 294 883 294 925 q 294 864 294 874 q 293 844 294 854 l 269 540 q 368 645 318 592 q 457 740 418 699 q 440 757 447 749 q 438 771 438 760 q 449 831 438 792 q 476 910 460 871 q 508 974 493 950 q 529 990 522 999 q 570 961 544 971 q 624 951 596 951 q 683 961 654 951 q 731 988 713 971 q 739 992 738 992 q 743 981 743 992 q 735 932 743 964 q 713 864 726 900 q 686 799 700 828 q 661 760 672 771 z "},"Ḱ":{"ha":778,"x_min":49,"x_max":743,"o":"m 661 760 q 597 724 635 735 l 460 576 q 496 495 475 543 q 541 396 517 447 q 592 299 565 344 q 649 224 619 253 q 707 192 678 194 q 707 170 717 190 q 675 122 697 150 q 627 65 653 93 q 580 17 601 36 q 549 0 558 -1 q 485 34 517 3 q 425 113 454 65 q 371 213 396 160 q 326 315 346 267 q 290 394 306 363 l 256 357 l 253 319 l 250 260 q 257 221 250 231 q 281 211 264 211 q 284 190 294 211 q 250 137 274 168 q 197 74 226 106 q 144 22 168 43 q 108 0 119 0 q 61 28 74 0 q 49 100 49 57 q 53 164 49 131 l 93 689 l 94 747 q 90 795 94 783 q 76 804 85 807 q 64 807 64 799 q 85 842 64 817 q 135 899 106 868 q 192 955 164 931 q 238 985 221 979 q 251 988 243 988 q 285 956 275 988 q 294 883 294 925 q 294 864 294 874 q 293 844 294 854 l 269 540 q 368 645 318 592 q 457 740 418 699 q 440 757 447 749 q 438 771 438 760 q 449 831 438 792 q 476 910 460 871 q 508 974 493 950 q 529 990 522 999 q 570 961 544 971 q 624 951 596 951 q 683 961 654 951 q 731 988 713 971 q 739 992 738 992 q 743 981 743 992 q 735 932 743 964 q 713 864 726 900 q 686 799 700 828 q 661 760 672 771 m 354 1093 q 374 1128 361 1103 q 399 1181 386 1153 q 422 1230 413 1210 q 432 1250 432 1250 q 485 1288 447 1271 q 567 1316 524 1306 q 640 1326 610 1326 q 679 1310 679 1326 q 674 1294 679 1301 q 654 1272 672 1292 q 610 1224 636 1251 q 560 1168 585 1196 q 518 1122 535 1140 q 501 1104 501 1104 q 456 1079 492 1089 q 392 1069 421 1069 q 358 1075 369 1069 q 354 1093 346 1081 z "},"Ǩ":{"ha":778,"x_min":49,"x_max":743,"o":"m 661 760 q 597 724 635 735 l 460 576 q 496 495 475 543 q 541 396 517 447 q 592 299 565 344 q 649 224 619 253 q 707 192 678 194 q 707 170 717 190 q 675 122 697 150 q 627 65 653 93 q 580 17 601 36 q 549 0 558 -1 q 485 34 517 3 q 425 113 454 65 q 371 213 396 160 q 326 315 346 267 q 290 394 306 363 l 256 357 l 253 319 l 250 260 q 257 221 250 231 q 281 211 264 211 q 284 190 294 211 q 250 137 274 168 q 197 74 226 106 q 144 22 168 43 q 108 0 119 0 q 61 28 74 0 q 49 100 49 57 q 53 164 49 131 l 93 689 l 94 747 q 90 795 94 783 q 76 804 85 807 q 64 807 64 799 q 85 842 64 817 q 135 899 106 868 q 192 955 164 931 q 238 985 221 979 q 251 988 243 988 q 285 956 275 988 q 294 883 294 925 q 294 864 294 874 q 293 844 294 854 l 269 540 q 368 645 318 592 q 457 740 418 699 q 440 757 447 749 q 438 771 438 760 q 449 831 438 792 q 476 910 460 871 q 508 974 493 950 q 529 990 522 999 q 570 961 544 971 q 624 951 596 951 q 683 961 654 951 q 731 988 713 971 q 739 992 738 992 q 743 981 743 992 q 735 932 743 964 q 713 864 726 900 q 686 799 700 828 q 661 760 672 771 m 399 1318 l 500 1210 l 557 1282 q 595 1313 572 1301 q 633 1324 618 1324 q 654 1310 654 1324 q 643 1285 654 1297 l 525 1135 q 507 1118 518 1125 q 453 1080 485 1096 q 400 1064 422 1064 q 379 1071 389 1064 l 246 1213 q 242 1226 242 1219 q 266 1267 242 1244 q 323 1308 290 1290 q 378 1325 356 1325 q 399 1318 389 1325 z "},"Ķ":{"ha":778,"x_min":49,"x_max":743,"o":"m 661 760 q 597 724 635 735 l 460 576 q 496 495 475 543 q 541 396 517 447 q 592 299 565 344 q 649 224 619 253 q 707 192 678 194 q 707 170 717 190 q 675 122 697 150 q 627 65 653 93 q 580 17 601 36 q 549 0 558 -1 q 485 34 517 3 q 425 113 454 65 q 371 213 396 160 q 326 315 346 267 q 290 394 306 363 l 256 357 l 253 319 l 250 260 q 257 221 250 231 q 281 211 264 211 q 284 190 294 211 q 250 137 274 168 q 197 74 226 106 q 144 22 168 43 q 108 0 119 0 q 61 28 74 0 q 49 100 49 57 q 53 164 49 131 l 93 689 l 94 747 q 90 795 94 783 q 76 804 85 807 q 64 807 64 799 q 85 842 64 817 q 135 899 106 868 q 192 955 164 931 q 238 985 221 979 q 251 988 243 988 q 285 956 275 988 q 294 883 294 925 q 294 864 294 874 q 293 844 294 854 l 269 540 q 368 645 318 592 q 457 740 418 699 q 440 757 447 749 q 438 771 438 760 q 449 831 438 792 q 476 910 460 871 q 508 974 493 950 q 529 990 522 999 q 570 961 544 971 q 624 951 596 951 q 683 961 654 951 q 731 988 713 971 q 739 992 738 992 q 743 981 743 992 q 735 932 743 964 q 713 864 726 900 q 686 799 700 828 q 661 760 672 771 m 356 -22 q 415 -78 392 -51 q 438 -136 438 -106 q 407 -204 438 -168 q 346 -258 385 -231 q 264 -304 307 -285 q 258 -307 261 -306 q 253 -308 256 -308 q 229 -301 240 -308 q 226 -286 218 -293 q 289 -226 258 -264 q 299 -204 299 -217 q 285 -167 299 -189 q 232 -115 271 -146 q 229 -107 229 -112 q 246 -79 229 -96 q 285 -47 263 -62 q 328 -24 308 -32 q 356 -22 349 -15 z "},"Ḳ":{"ha":778,"x_min":49,"x_max":743,"o":"m 661 760 q 597 724 635 735 l 460 576 q 496 495 475 543 q 541 396 517 447 q 592 299 565 344 q 649 224 619 253 q 707 192 678 194 q 707 170 717 190 q 675 122 697 150 q 627 65 653 93 q 580 17 601 36 q 549 0 558 -1 q 485 34 517 3 q 425 113 454 65 q 371 213 396 160 q 326 315 346 267 q 290 394 306 363 l 256 357 l 253 319 l 250 260 q 257 221 250 231 q 281 211 264 211 q 284 190 294 211 q 250 137 274 168 q 197 74 226 106 q 144 22 168 43 q 108 0 119 0 q 61 28 74 0 q 49 100 49 57 q 53 164 49 131 l 93 689 l 94 747 q 90 795 94 783 q 76 804 85 807 q 64 807 64 799 q 85 842 64 817 q 135 899 106 868 q 192 955 164 931 q 238 985 221 979 q 251 988 243 988 q 285 956 275 988 q 294 883 294 925 q 294 864 294 874 q 293 844 294 854 l 269 540 q 368 645 318 592 q 457 740 418 699 q 440 757 447 749 q 438 771 438 760 q 449 831 438 792 q 476 910 460 871 q 508 974 493 950 q 529 990 522 999 q 570 961 544 971 q 624 951 596 951 q 683 961 654 951 q 731 988 713 971 q 739 992 738 992 q 743 981 743 992 q 735 932 743 964 q 713 864 726 900 q 686 799 700 828 q 661 760 672 771 m 324 -74 l 419 -178 q 407 -205 424 -183 q 365 -251 390 -226 q 319 -292 340 -275 q 294 -303 299 -308 l 199 -197 q 210 -171 194 -192 q 251 -125 226 -150 q 298 -84 276 -100 q 324 -74 319 -68 z "},"Ƙ":{"ha":824,"x_min":49,"x_max":865,"o":"m 249 982 q 264 985 254 985 q 290 962 283 985 q 296 907 296 939 q 296 876 296 893 q 293 844 296 860 l 269 539 q 374 651 321 594 q 474 758 428 708 q 549 840 519 807 q 585 878 579 872 q 589 882 586 881 q 644 928 615 908 q 716 967 683 956 q 775 978 749 978 q 842 949 819 978 q 865 878 865 921 q 836 776 865 829 q 783 717 819 747 q 709 665 746 686 q 654 644 672 644 q 642 653 642 644 q 650 676 642 660 q 669 735 669 707 q 660 768 669 754 q 639 790 651 782 l 456 585 q 492 505 471 553 q 538 403 513 457 q 590 303 563 350 q 647 225 618 256 q 707 192 676 194 q 708 170 718 190 q 675 122 697 150 q 627 65 653 93 q 580 17 601 36 q 549 0 558 -1 q 484 35 515 3 q 424 114 453 67 q 370 215 396 161 q 324 317 344 268 q 290 397 304 365 l 256 358 l 253 319 l 250 260 q 257 221 250 231 q 281 211 264 211 q 284 190 294 211 q 250 137 274 168 q 197 74 226 106 q 144 22 168 43 q 108 0 119 0 q 61 28 74 0 q 49 100 49 57 q 53 164 49 131 l 93 689 l 99 781 q 88 801 99 806 q 75 804 75 796 q 96 840 75 814 q 146 897 117 865 q 203 952 175 928 q 249 982 232 976 z "},"Ḵ":{"ha":778,"x_min":49,"x_max":743,"o":"m 661 760 q 597 724 635 735 l 460 576 q 496 495 475 543 q 541 396 517 447 q 592 299 565 344 q 649 224 619 253 q 707 192 678 194 q 707 170 717 190 q 675 122 697 150 q 627 65 653 93 q 580 17 601 36 q 549 0 558 -1 q 485 34 517 3 q 425 113 454 65 q 371 213 396 160 q 326 315 346 267 q 290 394 306 363 l 256 357 l 253 319 l 250 260 q 257 221 250 231 q 281 211 264 211 q 284 190 294 211 q 250 137 274 168 q 197 74 226 106 q 144 22 168 43 q 108 0 119 0 q 61 28 74 0 q 49 100 49 57 q 53 164 49 131 l 93 689 l 94 747 q 90 795 94 783 q 76 804 85 807 q 64 807 64 799 q 85 842 64 817 q 135 899 106 868 q 192 955 164 931 q 238 985 221 979 q 251 988 243 988 q 285 956 275 988 q 294 883 294 925 q 294 864 294 874 q 293 844 294 854 l 269 540 q 368 645 318 592 q 457 740 418 699 q 440 757 447 749 q 438 771 438 760 q 449 831 438 792 q 476 910 460 871 q 508 974 493 950 q 529 990 522 999 q 570 961 544 971 q 624 951 596 951 q 683 961 654 951 q 731 988 713 971 q 739 992 738 992 q 743 981 743 992 q 735 932 743 964 q 713 864 726 900 q 686 799 700 828 q 661 760 672 771 m 172 -47 l 493 -50 q 501 -67 501 -50 q 494 -108 501 -82 q 476 -159 488 -133 q 454 -202 465 -185 q 435 -219 443 -219 l 114 -217 q 106 -201 106 -217 q 113 -159 106 -185 q 131 -108 119 -133 q 153 -65 142 -82 q 172 -47 164 -47 z "},"L":{"ha":592,"x_min":31,"x_max":536,"o":"m 246 985 q 283 967 274 992 q 292 907 292 943 q 290 869 292 889 q 288 831 289 849 q 262 553 275 692 q 238 276 249 415 q 285 283 261 283 q 365 263 326 283 q 414 242 390 251 q 460 233 438 233 q 491 238 475 233 q 524 256 507 243 q 531 258 529 258 q 536 247 536 258 q 527 197 536 231 q 504 126 518 163 q 476 60 490 89 q 451 25 463 32 q 416 8 433 13 q 381 3 399 3 q 303 20 342 3 q 235 51 264 38 q 171 65 206 65 q 108 51 138 65 q 60 15 79 38 q 39 -1 47 -1 q 38 25 31 -1 q 38 29 38 26 l 90 681 q 96 740 93 715 q 99 781 99 765 q 79 810 99 814 q 72 823 64 807 q 103 865 81 839 q 155 917 126 890 q 208 963 183 943 q 246 985 233 982 z "},"Ĺ":{"ha":592,"x_min":31,"x_max":536,"o":"m 246 985 q 283 967 274 992 q 292 907 292 943 q 290 869 292 889 q 288 831 289 849 q 262 553 275 692 q 238 276 249 415 q 285 283 261 283 q 365 263 326 283 q 414 242 390 251 q 460 233 438 233 q 491 238 475 233 q 524 256 507 243 q 531 258 529 258 q 536 247 536 258 q 527 197 536 231 q 504 126 518 163 q 476 60 490 89 q 451 25 463 32 q 416 8 433 13 q 381 3 399 3 q 303 20 342 3 q 235 51 264 38 q 171 65 206 65 q 108 51 138 65 q 60 15 79 38 q 39 -1 47 -1 q 38 25 31 -1 q 38 29 38 26 l 90 681 q 96 740 93 715 q 99 781 99 765 q 79 810 99 814 q 72 823 64 807 q 103 865 81 839 q 155 917 126 890 q 208 963 183 943 q 246 985 233 982 m 129 1042 q 149 1076 136 1051 q 174 1130 161 1101 q 197 1178 188 1158 q 207 1199 207 1199 q 260 1237 222 1219 q 342 1265 299 1254 q 415 1275 385 1275 q 454 1258 454 1275 q 449 1243 454 1250 q 429 1220 447 1240 q 385 1172 411 1200 q 335 1117 360 1144 q 293 1071 310 1089 q 276 1053 276 1053 q 231 1028 267 1038 q 167 1018 196 1018 q 133 1024 144 1018 q 129 1042 121 1029 z "},"Ľ":{"ha":633,"x_min":72,"x_max":692,"o":"m 288 985 q 324 967 315 992 q 333 907 333 943 q 332 869 333 889 q 329 831 331 849 q 303 553 317 692 q 279 276 290 415 q 326 283 303 283 q 407 263 368 283 q 456 242 432 251 q 501 233 479 233 q 533 238 517 233 q 565 256 549 243 q 572 258 571 258 q 578 247 578 258 q 569 197 578 231 q 546 126 560 163 q 518 60 532 89 q 493 25 504 32 q 458 8 475 13 q 422 3 440 3 q 344 20 383 3 q 276 51 306 38 q 213 65 247 65 q 150 51 179 65 q 101 15 121 38 q 81 -1 89 -1 q 79 25 72 -1 q 79 29 79 26 l 132 681 q 138 740 135 715 q 140 781 140 765 q 121 810 140 814 q 114 823 106 807 q 145 865 122 839 q 197 917 168 890 q 250 963 225 943 q 288 985 275 982 m 440 667 q 454 794 450 747 q 458 842 458 842 q 486 887 463 864 q 542 929 510 910 q 606 961 574 949 q 660 974 638 974 q 686 944 692 974 l 635 753 q 611 726 633 742 q 558 694 589 710 q 499 667 528 678 q 454 657 469 657 q 440 667 440 657 z "},"Ḽ":{"ha":592,"x_min":31,"x_max":536,"o":"m 246 985 q 283 967 274 992 q 292 907 292 943 q 290 869 292 889 q 288 831 289 849 q 262 553 275 692 q 238 276 249 415 q 285 283 261 283 q 365 263 326 283 q 414 242 390 251 q 460 233 438 233 q 491 238 475 233 q 524 256 507 243 q 531 258 529 258 q 536 247 536 258 q 527 197 536 231 q 504 126 518 163 q 476 60 490 89 q 451 25 463 32 q 416 8 433 13 q 381 3 399 3 q 303 20 342 3 q 235 51 264 38 q 171 65 206 65 q 108 51 138 65 q 60 15 79 38 q 39 -1 47 -1 q 38 25 31 -1 q 38 29 38 26 l 90 681 q 96 740 93 715 q 99 781 99 765 q 79 810 99 814 q 72 823 64 807 q 103 865 81 839 q 155 917 126 890 q 208 963 183 943 q 246 985 233 982 m 272 -275 l 182 -176 l 131 -242 q 97 -269 117 -260 q 61 -279 76 -279 q 43 -267 43 -279 q 53 -244 43 -256 l 160 -110 q 167 -101 163 -104 q 175 -94 171 -97 q 224 -60 196 -75 q 272 -46 253 -46 q 282 -47 278 -46 q 290 -51 286 -49 l 410 -179 q 414 -192 414 -185 q 392 -229 414 -208 q 342 -265 371 -250 q 292 -281 313 -281 q 272 -275 283 -281 z "},"Ļ":{"ha":592,"x_min":31,"x_max":536,"o":"m 246 985 q 283 967 274 992 q 292 907 292 943 q 290 869 292 889 q 288 831 289 849 q 262 553 275 692 q 238 276 249 415 q 285 283 261 283 q 365 263 326 283 q 414 242 390 251 q 460 233 438 233 q 491 238 475 233 q 524 256 507 243 q 531 258 529 258 q 536 247 536 258 q 527 197 536 231 q 504 126 518 163 q 476 60 490 89 q 451 25 463 32 q 416 8 433 13 q 381 3 399 3 q 303 20 342 3 q 235 51 264 38 q 171 65 206 65 q 108 51 138 65 q 60 15 79 38 q 39 -1 47 -1 q 38 25 31 -1 q 38 29 38 26 l 90 681 q 96 740 93 715 q 99 781 99 765 q 79 810 99 814 q 72 823 64 807 q 103 865 81 839 q 155 917 126 890 q 208 963 183 943 q 246 985 233 982 m 294 -22 q 353 -78 331 -51 q 376 -136 376 -106 q 346 -204 376 -168 q 285 -258 324 -231 q 203 -304 246 -285 q 197 -307 200 -306 q 192 -308 194 -308 q 168 -301 179 -308 q 165 -286 157 -293 q 228 -226 197 -264 q 238 -204 238 -217 q 224 -167 238 -189 q 171 -115 210 -146 q 168 -107 168 -112 q 185 -79 168 -96 q 224 -47 201 -62 q 267 -24 247 -32 q 294 -22 288 -15 z "},"Ŀ":{"ha":536,"x_min":72,"x_max":669,"o":"m 288 985 q 324 967 315 992 q 333 907 333 943 q 332 869 333 889 q 329 831 331 849 q 303 553 317 692 q 279 276 290 415 q 326 283 303 283 q 407 263 368 283 q 456 242 432 251 q 501 233 479 233 q 533 238 517 233 q 565 256 549 243 q 572 258 571 258 q 578 247 578 258 q 569 197 578 231 q 546 126 560 163 q 518 60 532 89 q 493 25 504 32 q 458 8 475 13 q 422 3 440 3 q 344 20 383 3 q 276 51 306 38 q 213 65 247 65 q 150 51 179 65 q 101 15 121 38 q 81 -1 89 -1 q 79 25 72 -1 q 79 29 79 26 l 132 681 q 138 740 135 715 q 140 781 140 765 q 121 810 140 814 q 114 823 106 807 q 145 865 122 839 q 197 917 168 890 q 250 963 225 943 q 288 985 275 982 m 553 632 l 665 508 q 658 485 669 503 q 624 445 646 468 q 580 401 603 422 q 540 367 557 379 q 518 361 522 356 l 406 485 q 413 508 401 490 q 447 548 425 525 q 491 592 468 571 q 531 624 514 613 q 553 632 549 636 z "},"Ḷ":{"ha":592,"x_min":31,"x_max":536,"o":"m 246 985 q 283 967 274 992 q 292 907 292 943 q 290 869 292 889 q 288 831 289 849 q 262 553 275 692 q 238 276 249 415 q 285 283 261 283 q 365 263 326 283 q 414 242 390 251 q 460 233 438 233 q 491 238 475 233 q 524 256 507 243 q 531 258 529 258 q 536 247 536 258 q 527 197 536 231 q 504 126 518 163 q 476 60 490 89 q 451 25 463 32 q 416 8 433 13 q 381 3 399 3 q 303 20 342 3 q 235 51 264 38 q 171 65 206 65 q 108 51 138 65 q 60 15 79 38 q 39 -1 47 -1 q 38 25 31 -1 q 38 29 38 26 l 90 681 q 96 740 93 715 q 99 781 99 765 q 79 810 99 814 q 72 823 64 807 q 103 865 81 839 q 155 917 126 890 q 208 963 183 943 q 246 985 233 982 m 263 -74 l 358 -178 q 346 -205 363 -183 q 304 -251 329 -226 q 258 -292 279 -275 q 233 -303 238 -308 l 138 -197 q 149 -171 133 -192 q 190 -125 165 -150 q 237 -84 215 -100 q 263 -74 258 -68 z "},"Ł":{"ha":728,"x_min":118,"x_max":686,"o":"m 519 606 q 478 579 508 597 q 411 538 449 561 q 399 407 404 472 q 388 276 393 342 q 435 283 411 283 q 515 263 476 283 q 564 242 540 251 q 610 233 588 233 q 641 238 625 233 q 674 256 657 243 q 681 258 679 258 q 686 247 686 258 q 677 197 686 231 q 654 126 668 163 q 626 60 640 89 q 601 25 613 32 q 566 8 583 13 q 531 3 549 3 q 453 20 492 3 q 385 51 414 38 q 321 65 356 65 q 258 51 288 65 q 210 15 229 38 q 189 -1 197 -1 q 188 25 181 -1 q 188 29 188 26 l 219 426 q 179 403 194 413 q 164 394 164 394 q 136 386 147 386 q 118 413 118 386 q 130 463 118 433 q 162 519 142 492 q 206 561 182 547 q 232 576 208 563 l 240 681 q 246 740 243 715 q 249 781 249 765 q 229 810 249 814 q 222 823 214 807 q 253 865 231 839 q 305 917 276 890 q 358 963 333 943 q 396 985 383 982 q 433 967 424 992 q 442 907 442 943 q 440 869 442 889 q 438 831 439 849 q 431 758 435 794 q 425 686 428 722 q 501 731 468 711 q 544 758 535 751 q 579 774 564 774 q 599 746 599 774 q 577 674 599 717 q 519 606 556 631 z "},"M":{"ha":972,"x_min":-42,"x_max":922,"o":"m 40 231 q 92 261 61 250 q 142 463 122 367 q 174 636 163 560 q 192 758 186 713 q 197 810 197 804 q 216 844 197 821 q 256 886 235 867 q 310 941 281 914 q 362 983 339 968 q 389 990 385 997 q 428 895 410 956 q 461 759 446 835 q 490 603 476 683 q 517 449 504 524 q 583 628 554 547 q 629 757 613 708 q 647 811 646 806 q 663 842 649 825 q 696 872 678 858 q 756 934 722 903 q 814 981 789 965 q 839 982 839 997 l 839 790 q 840 631 839 715 q 845 467 842 547 q 857 320 849 386 q 878 215 865 254 q 911 174 892 175 q 913 154 922 172 q 880 110 903 136 q 830 59 857 85 q 780 16 803 33 q 747 -1 757 -1 q 706 49 722 0 q 680 175 689 97 q 667 345 671 253 q 661 526 663 438 q 614 396 639 464 q 560 258 589 328 q 556 253 558 256 q 572 201 564 222 q 590 172 581 181 q 583 146 597 167 q 543 98 568 125 q 491 46 518 71 q 442 6 464 21 q 415 -3 421 -8 q 378 78 394 17 q 346 228 361 140 q 315 412 331 315 q 281 596 299 508 q 252 436 269 519 q 210 269 235 353 q 267 233 247 258 q 269 221 269 228 q 262 176 269 206 q 242 113 254 146 q 218 52 231 81 q 194 8 206 24 q 178 0 183 -7 q 138 29 164 19 q 81 39 111 39 q 20 29 50 39 q -29 3 -10 19 q -36 -1 -33 -1 q -42 11 -42 -1 q -33 60 -42 28 q -11 128 -24 92 q 16 192 1 164 q 40 231 31 221 m 311 914 q 311 914 311 915 l 311 914 z "},"Ḿ":{"ha":972,"x_min":-42,"x_max":922,"o":"m 40 231 q 92 261 61 250 q 142 463 122 367 q 174 636 163 560 q 192 758 186 713 q 197 810 197 804 q 216 844 197 821 q 256 886 235 867 q 310 941 281 914 q 362 983 339 968 q 389 990 385 997 q 428 895 410 956 q 461 759 446 835 q 490 603 476 683 q 517 449 504 524 q 583 628 554 547 q 629 757 613 708 q 647 811 646 806 q 663 842 649 825 q 696 872 678 858 q 756 934 722 903 q 814 981 789 965 q 839 982 839 997 l 839 790 q 840 631 839 715 q 845 467 842 547 q 857 320 849 386 q 878 215 865 254 q 911 174 892 175 q 913 154 922 172 q 880 110 903 136 q 830 59 857 85 q 780 16 803 33 q 747 -1 757 -1 q 706 49 722 0 q 680 175 689 97 q 667 345 671 253 q 661 526 663 438 q 614 396 639 464 q 560 258 589 328 q 556 253 558 256 q 572 201 564 222 q 590 172 581 181 q 583 146 597 167 q 543 98 568 125 q 491 46 518 71 q 442 6 464 21 q 415 -3 421 -8 q 378 78 394 17 q 346 228 361 140 q 315 412 331 315 q 281 596 299 508 q 252 436 269 519 q 210 269 235 353 q 267 233 247 258 q 269 221 269 228 q 262 176 269 206 q 242 113 254 146 q 218 52 231 81 q 194 8 206 24 q 178 0 183 -7 q 138 29 164 19 q 81 39 111 39 q 20 29 50 39 q -29 3 -10 19 q -36 -1 -33 -1 q -42 11 -42 -1 q -33 60 -42 28 q -11 128 -24 92 q 16 192 1 164 q 40 231 31 221 m 311 914 q 311 914 311 915 l 311 914 m 517 1040 q 536 1075 524 1050 q 562 1128 549 1100 q 585 1177 575 1157 q 594 1197 594 1197 q 648 1235 610 1218 q 729 1263 686 1253 q 803 1274 772 1274 q 842 1257 842 1274 q 836 1242 842 1249 q 817 1219 835 1239 q 773 1171 799 1199 q 722 1115 747 1143 q 681 1069 697 1088 q 664 1051 664 1051 q 619 1026 654 1036 q 554 1017 583 1017 q 520 1022 532 1017 q 517 1040 508 1028 z "},"Ṃ":{"ha":972,"x_min":-42,"x_max":922,"o":"m 40 231 q 92 261 61 250 q 142 463 122 367 q 174 636 163 560 q 192 758 186 713 q 197 810 197 804 q 216 844 197 821 q 256 886 235 867 q 310 941 281 914 q 362 983 339 968 q 389 990 385 997 q 428 895 410 956 q 461 759 446 835 q 490 603 476 683 q 517 449 504 524 q 583 628 554 547 q 629 757 613 708 q 647 811 646 806 q 663 842 649 825 q 696 872 678 858 q 756 934 722 903 q 814 981 789 965 q 839 982 839 997 l 839 790 q 840 631 839 715 q 845 467 842 547 q 857 320 849 386 q 878 215 865 254 q 911 174 892 175 q 913 154 922 172 q 880 110 903 136 q 830 59 857 85 q 780 16 803 33 q 747 -1 757 -1 q 706 49 722 0 q 680 175 689 97 q 667 345 671 253 q 661 526 663 438 q 614 396 639 464 q 560 258 589 328 q 556 253 558 256 q 572 201 564 222 q 590 172 581 181 q 583 146 597 167 q 543 98 568 125 q 491 46 518 71 q 442 6 464 21 q 415 -3 421 -8 q 378 78 394 17 q 346 228 361 140 q 315 412 331 315 q 281 596 299 508 q 252 436 269 519 q 210 269 235 353 q 267 233 247 258 q 269 221 269 228 q 262 176 269 206 q 242 113 254 146 q 218 52 231 81 q 194 8 206 24 q 178 0 183 -7 q 138 29 164 19 q 81 39 111 39 q 20 29 50 39 q -29 3 -10 19 q -36 -1 -33 -1 q -42 11 -42 -1 q -33 60 -42 28 q -11 128 -24 92 q 16 192 1 164 q 40 231 31 221 m 311 914 q 311 914 311 915 l 311 914 m 428 -74 l 524 -178 q 511 -205 528 -183 q 469 -251 494 -226 q 424 -292 444 -275 q 399 -303 403 -308 l 303 -197 q 315 -171 299 -192 q 356 -125 331 -150 q 402 -84 381 -100 q 428 -74 424 -68 z "},"N":{"ha":774,"x_min":-42,"x_max":801,"o":"m 40 233 q 88 263 61 251 q 101 407 94 331 q 115 556 108 483 q 126 688 121 629 q 133 776 131 746 q 110 821 121 800 q 120 849 106 828 q 159 897 135 871 q 209 946 183 922 q 255 981 235 969 q 279 985 275 993 q 367 808 322 908 q 458 599 411 707 q 551 396 504 492 q 567 569 560 483 q 579 714 574 654 q 499 754 526 719 q 496 768 496 757 q 507 828 496 789 q 535 908 518 868 q 566 972 551 947 q 588 988 581 996 q 628 958 603 968 q 682 949 654 949 q 742 958 713 949 q 789 985 771 968 q 797 989 796 989 q 801 978 801 989 q 793 929 801 961 q 772 861 785 897 q 744 797 758 825 q 719 757 731 768 q 700 742 711 749 q 689 612 696 683 q 675 467 682 540 q 662 328 668 393 q 650 217 656 263 q 685 169 668 190 q 676 143 690 164 q 639 96 663 122 q 589 46 615 69 q 543 9 563 22 q 518 3 524 -4 q 421 155 469 63 q 326 353 372 247 q 233 564 279 460 q 219 409 226 486 q 206 272 211 332 q 261 236 240 261 q 264 224 264 231 q 253 164 264 203 q 226 84 242 125 q 194 19 210 43 q 172 3 179 -6 q 131 32 157 22 q 78 42 106 42 q 19 32 47 42 q -29 6 -10 22 q -36 1 -33 1 q -42 14 -42 1 q -33 63 -42 31 q -11 131 -24 94 q 15 195 1 167 q 40 233 29 224 z "},"Ń":{"ha":982,"x_min":167,"x_max":1010,"o":"m 249 233 q 296 263 269 251 q 310 407 303 331 q 323 556 317 483 q 334 688 329 629 q 342 776 339 746 q 318 821 329 800 q 328 849 314 828 q 367 897 343 871 q 417 946 392 922 q 463 981 443 969 q 488 985 483 993 q 575 808 531 908 q 666 599 619 707 q 760 396 713 492 q 775 569 768 483 q 788 714 782 654 q 707 754 735 719 q 704 768 704 757 q 715 828 704 789 q 743 908 726 868 q 774 972 760 947 q 796 988 789 996 q 837 958 811 968 q 890 949 863 949 q 950 958 921 949 q 997 985 979 968 q 1006 989 1004 989 q 1010 978 1010 989 q 1001 929 1010 961 q 980 861 993 897 q 953 797 967 825 q 928 757 939 768 q 908 742 919 749 q 897 612 904 683 q 883 467 890 540 q 870 328 876 393 q 858 217 864 263 q 893 169 876 190 q 885 143 899 164 q 847 96 871 122 q 797 46 824 69 q 751 9 771 22 q 726 3 732 -4 q 629 155 678 63 q 534 353 581 247 q 442 564 488 460 q 427 409 435 486 q 414 272 419 332 q 469 236 449 261 q 472 224 472 231 q 461 164 472 203 q 434 84 450 125 q 403 19 418 43 q 381 3 388 -6 q 340 32 365 22 q 286 42 314 42 q 227 32 256 42 q 179 6 199 22 q 172 1 175 1 q 167 14 167 1 q 176 63 167 31 q 197 131 185 94 q 224 195 210 167 q 249 233 238 224 m 586 1042 q 606 1076 593 1051 q 631 1130 618 1101 q 654 1178 644 1158 q 664 1199 664 1199 q 717 1237 679 1219 q 799 1265 756 1254 q 872 1275 842 1275 q 911 1258 911 1275 q 906 1243 911 1250 q 886 1220 904 1240 q 842 1172 868 1200 q 792 1117 817 1144 q 750 1071 767 1089 q 733 1053 733 1053 q 688 1028 724 1038 q 624 1018 653 1018 q 590 1024 601 1018 q 586 1042 578 1029 z "},"Ň":{"ha":982,"x_min":167,"x_max":1010,"o":"m 249 233 q 296 263 269 251 q 310 407 303 331 q 323 556 317 483 q 334 688 329 629 q 342 776 339 746 q 318 821 329 800 q 328 849 314 828 q 367 897 343 871 q 417 946 392 922 q 463 981 443 969 q 488 985 483 993 q 575 808 531 908 q 666 599 619 707 q 760 396 713 492 q 775 569 768 483 q 788 714 782 654 q 707 754 735 719 q 704 768 704 757 q 715 828 704 789 q 743 908 726 868 q 774 972 760 947 q 796 988 789 996 q 837 958 811 968 q 890 949 863 949 q 950 958 921 949 q 997 985 979 968 q 1006 989 1004 989 q 1010 978 1010 989 q 1001 929 1010 961 q 980 861 993 897 q 953 797 967 825 q 928 757 939 768 q 908 742 919 749 q 897 612 904 683 q 883 467 890 540 q 870 328 876 393 q 858 217 864 263 q 893 169 876 190 q 885 143 899 164 q 847 96 871 122 q 797 46 824 69 q 751 9 771 22 q 726 3 732 -4 q 629 155 678 63 q 534 353 581 247 q 442 564 488 460 q 427 409 435 486 q 414 272 419 332 q 469 236 449 261 q 472 224 472 231 q 461 164 472 203 q 434 84 450 125 q 403 19 418 43 q 381 3 388 -6 q 340 32 365 22 q 286 42 314 42 q 227 32 256 42 q 179 6 199 22 q 172 1 175 1 q 167 14 167 1 q 176 63 167 31 q 197 131 185 94 q 224 195 210 167 q 249 233 238 224 m 631 1267 l 732 1158 l 789 1231 q 827 1261 804 1250 q 865 1272 850 1272 q 886 1258 886 1272 q 875 1233 886 1246 l 757 1083 q 739 1067 750 1074 q 685 1028 717 1044 q 632 1013 654 1013 q 611 1019 621 1013 l 478 1161 q 474 1175 474 1168 q 498 1216 474 1193 q 555 1256 522 1239 q 610 1274 588 1274 q 631 1267 621 1274 z "},"Ṋ":{"ha":774,"x_min":-42,"x_max":801,"o":"m 40 233 q 88 263 61 251 q 101 407 94 331 q 115 556 108 483 q 126 688 121 629 q 133 776 131 746 q 110 821 121 800 q 120 849 106 828 q 159 897 135 871 q 209 946 183 922 q 255 981 235 969 q 279 985 275 993 q 367 808 322 908 q 458 599 411 707 q 551 396 504 492 q 567 569 560 483 q 579 714 574 654 q 499 754 526 719 q 496 768 496 757 q 507 828 496 789 q 535 908 518 868 q 566 972 551 947 q 588 988 581 996 q 628 958 603 968 q 682 949 654 949 q 742 958 713 949 q 789 985 771 968 q 797 989 796 989 q 801 978 801 989 q 793 929 801 961 q 772 861 785 897 q 744 797 758 825 q 719 757 731 768 q 700 742 711 749 q 689 612 696 683 q 675 467 682 540 q 662 328 668 393 q 650 217 656 263 q 685 169 668 190 q 676 143 690 164 q 639 96 663 122 q 589 46 615 69 q 543 9 563 22 q 518 3 524 -4 q 421 155 469 63 q 326 353 372 247 q 233 564 279 460 q 219 409 226 486 q 206 272 211 332 q 261 236 240 261 q 264 224 264 231 q 253 164 264 203 q 226 84 242 125 q 194 19 210 43 q 172 3 179 -6 q 131 32 157 22 q 78 42 106 42 q 19 32 47 42 q -29 6 -10 22 q -36 1 -33 1 q -42 14 -42 1 q -33 63 -42 31 q -11 131 -24 94 q 15 195 1 167 q 40 233 29 224 m 382 -275 l 292 -176 l 240 -242 q 206 -269 226 -260 q 171 -279 186 -279 q 153 -267 153 -279 q 163 -244 153 -256 l 269 -110 q 276 -101 272 -104 q 285 -94 281 -97 q 334 -60 306 -75 q 382 -46 363 -46 q 392 -47 388 -46 q 400 -51 396 -49 l 519 -179 q 524 -192 524 -185 q 502 -229 524 -208 q 451 -265 481 -250 q 401 -281 422 -281 q 382 -275 393 -281 z "},"Ņ":{"ha":982,"x_min":167,"x_max":1010,"o":"m 249 233 q 296 263 269 251 q 310 407 303 331 q 323 556 317 483 q 334 688 329 629 q 342 776 339 746 q 318 821 329 800 q 328 849 314 828 q 367 897 343 871 q 417 946 392 922 q 463 981 443 969 q 488 985 483 993 q 575 808 531 908 q 666 599 619 707 q 760 396 713 492 q 775 569 768 483 q 788 714 782 654 q 707 754 735 719 q 704 768 704 757 q 715 828 704 789 q 743 908 726 868 q 774 972 760 947 q 796 988 789 996 q 837 958 811 968 q 890 949 863 949 q 950 958 921 949 q 997 985 979 968 q 1006 989 1004 989 q 1010 978 1010 989 q 1001 929 1010 961 q 980 861 993 897 q 953 797 967 825 q 928 757 939 768 q 908 742 919 749 q 897 612 904 683 q 883 467 890 540 q 870 328 876 393 q 858 217 864 263 q 893 169 876 190 q 885 143 899 164 q 847 96 871 122 q 797 46 824 69 q 751 9 771 22 q 726 3 732 -4 q 629 155 678 63 q 534 353 581 247 q 442 564 488 460 q 427 409 435 486 q 414 272 419 332 q 469 236 449 261 q 472 224 472 231 q 461 164 472 203 q 434 84 450 125 q 403 19 418 43 q 381 3 388 -6 q 340 32 365 22 q 286 42 314 42 q 227 32 256 42 q 179 6 199 22 q 172 1 175 1 q 167 14 167 1 q 176 63 167 31 q 197 131 185 94 q 224 195 210 167 q 249 233 238 224 m 613 -22 q 672 -78 649 -51 q 694 -136 694 -106 q 664 -204 694 -168 q 603 -258 642 -231 q 521 -304 564 -285 q 515 -307 518 -306 q 510 -308 513 -308 q 486 -301 497 -308 q 483 -286 475 -293 q 546 -226 515 -264 q 556 -204 556 -217 q 542 -167 556 -189 q 489 -115 528 -146 q 486 -107 486 -112 q 503 -79 486 -96 q 542 -47 519 -62 q 585 -24 565 -32 q 613 -22 606 -15 z "},"Ṅ":{"ha":774,"x_min":-42,"x_max":801,"o":"m 40 233 q 88 263 61 251 q 101 407 94 331 q 115 556 108 483 q 126 688 121 629 q 133 776 131 746 q 110 821 121 800 q 120 849 106 828 q 159 897 135 871 q 209 946 183 922 q 255 981 235 969 q 279 985 275 993 q 367 808 322 908 q 458 599 411 707 q 551 396 504 492 q 567 569 560 483 q 579 714 574 654 q 499 754 526 719 q 496 768 496 757 q 507 828 496 789 q 535 908 518 868 q 566 972 551 947 q 588 988 581 996 q 628 958 603 968 q 682 949 654 949 q 742 958 713 949 q 789 985 771 968 q 797 989 796 989 q 801 978 801 989 q 793 929 801 961 q 772 861 785 897 q 744 797 758 825 q 719 757 731 768 q 700 742 711 749 q 689 612 696 683 q 675 467 682 540 q 662 328 668 393 q 650 217 656 263 q 685 169 668 190 q 676 143 690 164 q 639 96 663 122 q 589 46 615 69 q 543 9 563 22 q 518 3 524 -4 q 421 155 469 63 q 326 353 372 247 q 233 564 279 460 q 219 409 226 486 q 206 272 211 332 q 261 236 240 261 q 264 224 264 231 q 253 164 264 203 q 226 84 242 125 q 194 19 210 43 q 172 3 179 -6 q 131 32 157 22 q 78 42 106 42 q 19 32 47 42 q -29 6 -10 22 q -36 1 -33 1 q -42 14 -42 1 q -33 63 -42 31 q -11 131 -24 94 q 15 195 1 167 q 40 233 29 224 m 475 1264 l 581 1147 q 574 1126 585 1143 q 542 1088 563 1110 q 501 1046 522 1065 q 463 1015 479 1026 q 443 1008 447 1004 l 336 1125 q 344 1146 332 1129 q 376 1184 356 1163 q 417 1226 396 1206 q 455 1257 439 1246 q 475 1264 471 1268 z "},"Ṇ":{"ha":774,"x_min":-42,"x_max":801,"o":"m 40 233 q 88 263 61 251 q 101 407 94 331 q 115 556 108 483 q 126 688 121 629 q 133 776 131 746 q 110 821 121 800 q 120 849 106 828 q 159 897 135 871 q 209 946 183 922 q 255 981 235 969 q 279 985 275 993 q 367 808 322 908 q 458 599 411 707 q 551 396 504 492 q 567 569 560 483 q 579 714 574 654 q 499 754 526 719 q 496 768 496 757 q 507 828 496 789 q 535 908 518 868 q 566 972 551 947 q 588 988 581 996 q 628 958 603 968 q 682 949 654 949 q 742 958 713 949 q 789 985 771 968 q 797 989 796 989 q 801 978 801 989 q 793 929 801 961 q 772 861 785 897 q 744 797 758 825 q 719 757 731 768 q 700 742 711 749 q 689 612 696 683 q 675 467 682 540 q 662 328 668 393 q 650 217 656 263 q 685 169 668 190 q 676 143 690 164 q 639 96 663 122 q 589 46 615 69 q 543 9 563 22 q 518 3 524 -4 q 421 155 469 63 q 326 353 372 247 q 233 564 279 460 q 219 409 226 486 q 206 272 211 332 q 261 236 240 261 q 264 224 264 231 q 253 164 264 203 q 226 84 242 125 q 194 19 210 43 q 172 3 179 -6 q 131 32 157 22 q 78 42 106 42 q 19 32 47 42 q -29 6 -10 22 q -36 1 -33 1 q -42 14 -42 1 q -33 63 -42 31 q -11 131 -24 94 q 15 195 1 167 q 40 233 29 224 m 372 -74 l 468 -178 q 456 -205 472 -183 q 414 -251 439 -226 q 368 -292 389 -275 q 343 -303 347 -308 l 247 -197 q 259 -171 243 -192 q 300 -125 275 -150 q 347 -84 325 -100 q 372 -74 368 -68 z "},"Ǹ":{"ha":774,"x_min":-42,"x_max":801,"o":"m 40 233 q 88 263 61 251 q 101 407 94 331 q 115 556 108 483 q 126 688 121 629 q 133 776 131 746 q 110 821 121 800 q 120 849 106 828 q 159 897 135 871 q 209 946 183 922 q 255 981 235 969 q 279 985 275 993 q 367 808 322 908 q 458 599 411 707 q 551 396 504 492 q 567 569 560 483 q 579 714 574 654 q 499 754 526 719 q 496 768 496 757 q 507 828 496 789 q 535 908 518 868 q 566 972 551 947 q 588 988 581 996 q 628 958 603 968 q 682 949 654 949 q 742 958 713 949 q 789 985 771 968 q 797 989 796 989 q 801 978 801 989 q 793 929 801 961 q 772 861 785 897 q 744 797 758 825 q 719 757 731 768 q 700 742 711 749 q 689 612 696 683 q 675 467 682 540 q 662 328 668 393 q 650 217 656 263 q 685 169 668 190 q 676 143 690 164 q 639 96 663 122 q 589 46 615 69 q 543 9 563 22 q 518 3 524 -4 q 421 155 469 63 q 326 353 372 247 q 233 564 279 460 q 219 409 226 486 q 206 272 211 332 q 261 236 240 261 q 264 224 264 231 q 253 164 264 203 q 226 84 242 125 q 194 19 210 43 q 172 3 179 -6 q 131 32 157 22 q 78 42 106 42 q 19 32 47 42 q -29 6 -10 22 q -36 1 -33 1 q -42 14 -42 1 q -33 63 -42 31 q -11 131 -24 94 q 15 195 1 167 q 40 233 29 224 m 475 1042 q 472 1024 483 1029 q 438 1018 460 1018 q 374 1028 408 1018 q 328 1053 339 1038 q 311 1071 328 1053 q 269 1117 294 1089 q 219 1172 244 1144 q 176 1220 193 1200 q 156 1243 158 1240 q 150 1258 150 1250 q 189 1275 150 1275 q 263 1265 219 1275 q 344 1237 306 1254 q 397 1199 382 1219 q 407 1178 397 1199 q 430 1130 417 1158 q 456 1076 443 1101 q 475 1042 469 1051 z "}}}
